<svg width="22" height="16" viewBox="0 0 22 16" fill="none" xmlns="http://www.w3.org/2000/svg">
<g clip-path="url(#clip0_452_25)">
<path d="M14.1567 8.88544L12.37 10.6782C11.6454 11.4053 10.3706 11.4209 9.6304 10.6782L7.8436 8.88544L1.42627 15.3236C1.66514 15.4341 1.92852 15.5 2.20852 15.5H19.7919C20.0719 15.5 20.3351 15.4341 20.5739 15.3236L14.1567 8.88544Z" fill="white"/>
<path d="M19.7918 0.5H2.20844C1.92844 0.5 1.66506 0.565917 1.42627 0.676375L8.28364 7.5565C8.2841 7.55696 8.28464 7.55704 8.2851 7.5575C8.28556 7.55796 8.28564 7.55858 8.28564 7.55858L10.5154 9.79567C10.7522 10.0325 11.2481 10.0325 11.4849 9.79567L13.7142 7.55896C13.7142 7.55896 13.7147 7.55796 13.7152 7.5575C13.7152 7.5575 13.7162 7.55696 13.7166 7.5565L20.5739 0.676333C20.3351 0.565833 20.0718 0.5 19.7918 0.5Z" fill="white"/>
<path d="M0.532913 1.55048C0.409329 1.80039 0.333496 2.07781 0.333496 2.37498V13.625C0.333496 13.9221 0.409246 14.1996 0.532871 14.4495L6.96133 8.00019L0.532913 1.55048Z" fill="white"/>
<path d="M21.4674 1.55042L15.0391 8.00021L21.4674 14.4496C21.591 14.1997 21.6669 13.9222 21.6669 13.625V2.375C21.6669 2.07775 21.591 1.80033 21.4674 1.55042Z" fill="white"/>
</g>
<defs>
<clipPath id="clip0_452_25">
<rect width="22" height="16" fill="white"/>
</clipPath>
</defs>
</svg>
