<svg width="160" height="164" viewBox="0 0 160 164" fill="none" xmlns="http://www.w3.org/2000/svg"><path opacity=".3" d="M74.9406 164c26.6054 0 48.1744-4.801 48.1744-10.722 0-5.922-21.569-10.723-48.1744-10.723-26.6058 0-48.174 4.801-48.174 10.723 0 5.921 21.5682 10.722 48.174 10.722z" fill="#603711" fill-opacity=".4"/><path d="M116.662 130.118s8.892.468 11.426 0c0 0 3.142 2.366-3.658 4.392 0 0-6.49 2.396-15.539 1.023.003 0 5.455-3.568 7.771-5.415z" fill="#FFD37B"/><path d="M116.662 131.801c3.893.201 8.009.578 11.871-.061-.428-.057-.86-.114-1.288-.168-.921-.717-.171-.111-.168-.111.315.023-.147.057.071.08.214.027-.161.074-.007-.067.231-.212-.007-.06-.084-.017-1.215.673-2.399 1.242-3.748 1.646-4.475 1.343-9.371 1.461-13.97.804.134 1.027.268 2.05.399 3.076 2.757-1.807 5.515-3.638 8.106-5.677 1.693-1.333-.69-3.699-2.367-2.38-2.362 1.862-4.916 3.507-7.429 5.153-1.068.7-1.135 2.857.398 3.076 4.96.71 10.05.673 14.93-.582 2.487-.64 6.416-1.589 7.038-4.496.231-1.084-.184-2.239-.974-2.999-.99-.953-2.269-.512-3.517-.468-3.083.108-6.185-.02-9.264-.178-2.149-.108-2.142 3.257.003 3.369z" fill="#856030"/><path d="M116.129 80.6254s22.681-.9659 22.517 23.4576c0 0-1.339 21.697-19.796 22.787l-2.721-46.2446z" fill="#94CFB4"/><path d="M116.129 82.3081c6.021-.2423 13.039 2.4096 16.874 7.5554 3.033 4.0654 4.355 9.7329 3.919 14.7545-.063.73-.046.491-.19 1.346-.144.845-.318 1.683-.522 2.514-.519 2.11-1.215 4.18-2.179 6.128-3.022 6.112-8.31 10.11-15.184 10.578.558.562 1.114 1.121 1.673 1.683-.793-13.469-1.586-26.9408-2.38-40.4093-.113-1.9453-.227-3.8905-.344-5.8357-.128-2.1539-3.474-2.1674-3.347 0 .793 13.4685 1.586 26.94 2.379 40.409.114 1.945.228 3.89.345 5.836.05.861.726 1.746 1.674 1.682 6.907-.471 12.808-3.813 16.603-9.655 2.503-3.847 3.999-8.404 4.645-12.94.74-5.176-.311-10.9044-2.768-15.5016-2.59-4.8428-7.031-8.2386-12.145-10.0155-2.838-.9861-6.038-1.6154-9.056-1.4943-2.142.0842-2.152 3.453.003 3.3655z" fill="#856030"/><path d="M128.62 121.569s1.691-19.415-9.766-32.2001c0 0 6.898 21.1181 1.423 36.0171 0 0 4.625.023 8.343-3.817z" fill="#7FBC96"/><path d="M28.5309 74.6752c-1.2216-9.4569-2.2357-23.6086 8.0959-39.0661 17.9956-26.92021 49.6863-17.884 53.264-16.9753.2142.0538.415.1615.6326.2053 4.4579.8649 41.5436 15.3902 26.8246 62.2372-.402 1.2822-.519 2.6385-.02 3.8871 3.728 9.329 17.219 49.1856-20.9946 56.4856-2.1152.404-3.735 2.124-4.0329 4.267-.5924 4.278-2.4532 10.05-8.3335 10.312-.4786.02-3.3066.384-5.7263-.895-.7397-.394-3.4773-2.066-3.4773-2.066-.3046 0-.9405 1.033-1.8374 2.066-1.2919 1.487-3.4907 1.726-4.7491 1.673-1.3086-.058-7.5135.632-12.1522-12.389-.6292-1.77-2.1654-3.069-4.0195-3.331-6.9747-.987-23.4107-6.482-20.499-36.542.2276-2.343-1.1848-4.52-3.397-5.2842-5.2478-1.814-18.23328-6.4247-15.3617-15.5686 0 0 2.6004-5.9467 8.1828-3.5909.164.0639 8.7586 3.5371 7.6006-5.4251z" fill="#F9E8BB"/><path d="M30.2046 74.6753c-1.1982-9.3559-.9974-18.6513 2.336-27.5832 3.6815-9.8607 10.519-18.8095 19.803-23.8778 10.8803-5.9367 24.0834-6.2093 35.8942-3.2645 6.5497 1.6322 12.4102 4.9203 17.6072 9.6723 4.405 4.0284 7.989 8.9655 10.228 14.5286 2.962 7.3569 3.558 15.4037 2.617 23.2351-.308 2.5644-.796 5.1087-1.399 7.6193-.606 2.5241-1.804 5.1525-1.954 7.7473-.131 2.2548 1.124 4.5332 1.834 6.6366 1.626 4.8194 2.885 9.8204 3.47 14.879.683 5.92.553 12.041-1.372 17.729-2.135 6.313-6.653 11.24-12.523 14.266-1.811.932-3.702 1.673-5.647 2.275-2.2117.687-4.8356.821-6.8939 1.888-4.2537 2.211-3.2263 7.323-5.4318 10.934-2.2357 3.662-7.2123 3.783-10.616 1.784-1.2182-.713-2.9117-2.325-4.3876-1.474-.8769.508-1.3354 1.562-2.0248 2.268-.9238.946-2.1252 1.178-3.397 1.182-1.5697.006-2.6306-.142-4.15-1.108-3.8656-2.456-5.0135-7.023-6.9011-10.884-.9806-2.009-2.8213-3.284-4.98-3.691-.8367-.159-1.6701-.293-2.4967-.502-2.0081-.515-3.8522-1.255-5.6293-2.302-5.2511-3.089-8.5075-8.37-10.0437-14.199-1.2182-4.62-1.4492-9.443-1.2249-14.198.1205-2.578.7497-5.234-.6292-7.593-1.1245-1.9283-2.9318-2.7225-4.9265-3.4327-3.2832-1.1711-6.6132-2.5442-9.4212-4.6577-2.3963-1.8005-4.8528-4.9607-3.7216-8.067.3246-.8919 1.0944-1.8106 1.824-2.3861 1.4224-1.1241 2.8682-.9322 4.478-.3702 1.8006.6293 3.7986 1.0298 5.6862.5654 3.5074-.8582 4.3541-4.4188 3.9927-7.6194-.241-2.1269-3.5911-2.1505-3.3468 0 .2008 1.7669.3447 4.1496-1.8608 4.4458-1.1011.148-2.2089-.1481-3.2999-.525-2.0617-.7102-4.0496-1.0467-6.1113-.1077-1.7503.7942-3.2062 2.3019-4.1031 4.0048-2.26244 4.291.2175 9.2416 3.5844 12.0483 2.0214 1.6828 4.314 2.9751 6.7069 4.0487 2.0282.9086 4.4111 1.4168 6.3388 2.5038 1.5697.885 1.8006 2.393 1.6734 4.039-.1573 2.012-.2844 4.021-.2878 6.044-.0067 3.227.2477 6.465.8501 9.639.9204 4.839 2.7946 9.507 5.897 13.35 2.2256 2.753 5.1072 4.985 8.3168 6.455 1.3554.619 2.7544 1.141 4.1969 1.521 1.2918.34 2.9685.34 4.1332.983 1.8274 1.01 2.1989 3.635 3.0121 5.408.7631 1.66 1.66 3.248 2.7578 4.705 1.4692 1.949 3.2832 3.642 5.569 4.557 1.2015.481 2.4499.666 3.7417.69 1.3287.024 2.6373-.111 3.879-.619.7865-.323 1.4859-.768 2.095-1.367.3213-.316.5924-.683.8736-1.033.271-.336 1.2784-1.127.3949-.774-.4284-.057-.8601-.114-1.2885-.168 2.2088 1.349 4.3207 2.783 6.9445 3.13 2.7879.37 5.8904.047 8.1997-1.68 2.336-1.743 3.6513-4.492 4.3608-7.266.3146-1.238.2912-2.712.8802-3.85.9103-1.753 2.8046-1.814 4.5115-2.211 10.1103-2.356 19.0533-8.181 23.0663-18.092 3.203-7.916 2.915-16.865 1.385-25.1268-.632-3.4126-1.509-6.7814-2.583-10.0795-.405-1.2419-.837-2.4736-1.299-3.6919-.251-.6563-.566-1.3126-.666-2.0092-.278-1.9486.937-4.3549 1.429-6.2429 2.962-11.3786 3.474-23.7197-1.091-34.7482-3.186-7.6968-8.584-14.1686-15.291-19.0215-8.9665-6.4853-19.8067-8.9959-30.7641-8.8579-11.3456.1413-22.4401 3.8534-30.8406 11.6781C31.2019 36.6727 25.6128 51.871 26.155 66.7531c.097 2.6519.3681 5.2904.7028 7.9188.2711 2.1203 3.6212 2.1472 3.3468.0034z" fill="#856030"/><path d="M71.6909 137.162c12.5523 0 22.728-11.509 22.728-25.706 0-14.1963-10.1757-25.7049-22.728-25.7049s-22.728 11.5086-22.728 25.7049c0 14.197 10.1757 25.706 22.728 25.706z" fill="#E8C587"/><path d="M83.07 42.5117c1.4399 0 2.6072-1.1738 2.6072-2.6217 0-1.4479-1.1673-2.6217-2.6072-2.6217-1.4398 0-2.6071 1.1738-2.6071 2.6217 0 1.4479 1.1673 2.6217 2.6071 2.6217zM57.1618 42.5117c1.4399 0 2.6072-1.1738 2.6072-2.6217 0-1.4479-1.1673-2.6217-2.6072-2.6217-1.4399 0-2.6071 1.1738-2.6071 2.6217 0 1.4479 1.1672 2.6217 2.6071 2.6217z" fill="#603711"/><path d="M65.7864 46.2912c.3849.6663.8467 1.2923 1.3722 1.8543.2543.2726.5288.5284.8133.7673.3079.2558.6425.5688 1.0575.6092.4083.0404.7162-.1582 1.0308-.4005.3481-.2726.6962-.5452 1.0442-.8178.7296-.5721 1.4626-1.1476 2.1922-1.7198.2142-.1682.174-.5351 0-.7134-.2075-.2154-.4987-.1683-.7095 0-.5924.4644-1.1848.9288-1.7738 1.3933-.2945.2322-.5924.4644-.8869.6966-.1406.1077-.2778.2188-.4184.3265-.087.0673-.2476.2389-.3648.2423-.1907 0-.5355-.3904-.6727-.5116-.2376-.2086-.4652-.4341-.6794-.6663-.4384-.4779-.8166-1.0029-1.1412-1.5683-.3213-.5654-1.1881-.0572-.8635.5082z" fill="#EF9292"/><path d="M90.6401 97.2844s-7.9519 14.4946-1.5662 18.2036c5.9807 3.473 8.6447-2.171 13.1691-10.901" fill="#F9E8BB"/><path d="M89.1946 96.4329c-2.1319 3.9071-3.9358 8.4301-4.2437 12.9031-.1874 2.716.4752 5.624 2.7912 7.279 2.5703 1.835 5.887 2.171 8.4674.223 3.5676-2.693 5.4815-7.553 7.4765-11.403.994-1.918-1.894-3.621-2.888-1.699-1.1648 2.251-2.296 4.533-3.6113 6.7-.8668 1.427-1.8675 3.117-3.3534 3.975-2.316 1.336-5.134-.596-5.5022-3.036-.425-2.82.6259-5.889 1.5998-8.487.6091-1.626 1.322-3.2311 2.152-4.7556 1.0408-1.8981-1.8474-3.601-2.8883-1.6995z" fill="#856030"/><path d="M122.134 82.8263s-.362 3.3823 2.814 5.0414c.107.0572.221.1111.335.1649 3.537 1.6087 6.479.0438 6.479.0438s-3.909-4.153-9.628-5.2501zM136.879 106.344s-4.97-.895-5.974 3.52c-1.008 4.412 2.965 5.53 2.965 5.53s2.44-4.247 3.009-9.05z" fill="#79B38E"/><path d="M50.6896 54.6779c4.6358 0 8.3938-2.1607 8.3938-4.8261 0-2.6653-3.758-4.826-8.3938-4.826-4.6357 0-8.3937 2.1607-8.3937 4.826 0 2.6654 3.758 4.8261 8.3937 4.8261z" fill="#F9C2C2"/><path d="M46.1822 47.5868c.6861 1.5851 1.3688 3.1702 2.0549 4.7553.0971.2222.1941.4476.2878.6698.1071.249.4719.3062.6861.1817.2577-.1515.2878-.4409.1807-.6899-.6861-1.5852-1.3688-3.1703-2.0549-4.7554-.097-.2221-.1941-.4476-.2878-.6697-.1071-.2491-.4719-.3063-.6861-.1818-.2577.1481-.2878.4375-.1807.69zM50.0567 47.2199c.6861 1.5852 1.3688 3.1703 2.0549 4.7554.0971.2221.1941.4476.2879.6697.1071.2491.4718.3063.686.1818.2577-.1515.2879-.4409.1808-.6899-.6861-1.5852-1.3689-3.1703-2.055-4.7554-.097-.2221-.1941-.4476-.2878-.6697-.1071-.2491-.4719-.3063-.6861-.1818-.2577.1515-.2911.4375-.1807.6899z" fill="#EF9292"/><path d="M91.5695 54.1428c4.6357 0 8.3937-2.1607 8.3937-4.826 0-2.6654-3.758-4.8261-8.3937-4.8261-4.6357 0-8.3937 2.1607-8.3937 4.8261 0 2.6653 3.758 4.826 8.3937 4.826z" fill="#F9C2C2"/><path d="M88.0249 47.0383c.6861 1.5851 1.3689 3.1702 2.055 4.7554.097.2221.1941.4476.2878.6697.1071.249.4719.3062.6861.1817.2577-.1514.2878-.4408.1807-.6899-.6861-1.5851-1.3688-3.1702-2.0549-4.7554-.0971-.2221-.1941-.4476-.2878-.6697-.1071-.249-.4719-.3062-.6861-.1817-.2577.1514-.2879.4409-.1808.6899zM91.9014 46.6748c.6861 1.5851 1.3689 3.1702 2.055 4.7554.097.2221.1941.4476.2878.6697.1071.249.4719.3062.6861.1817.2577-.1514.2878-.4409.1807-.6899-.6861-1.5851-1.3688-3.1703-2.0549-4.7554-.0971-.2221-.1941-.4476-.2879-.6697-.1071-.2491-.4718-.3063-.686-.1817-.2577.148-.2912.4375-.1808.6899z" fill="#EF9292"/><path d="M66.1785 143.142c4.7056 1.168 9.853 1.05 14.5552 0 2.1018-.468 1.2115-3.715-.8902-3.244-4.1032.915-8.6615 1.019-12.7747 0-2.0918-.519-2.9853 2.726-.8903 3.244z" fill="#856030"/><path d="M72.2297 142.27c.2108 3.346.425 6.694.6359 10.039.1372 2.151 3.484 2.168 3.3468 0-.2109-3.345-.4251-6.693-.6359-10.039-.1339-2.15-3.484-2.167-3.3468 0zM7.93481 123.094c.37819 6.973 3.72159 13.236 8.56439 18.133 1.5228 1.538 3.889-.841 2.3662-2.379-4.1969-4.244-7.2558-9.686-7.5838-15.754-.1171-2.154-3.46727-2.167-3.34679 0zM.002674 121.664c.46855 9.184 4.946546 17.513 11.335526 23.941 1.5228 1.535 3.8923-.844 2.3662-2.379-5.74307-5.782-9.93325-13.277-10.35494-21.562-.11045-2.158-3.45723-2.171-3.346786 0zM146.327 76.7854c2.39 6.4651 1.714 13.3541-.75 19.6913-.783 2.0192 2.45 2.8942 3.227.8952 2.654-6.8285 3.323-14.5219.749-21.4817-.743-2.0125-3.979-1.1409-3.226.8952zM154.799 74.0088c2.961 7.9526 2.121 16.5244-.921 24.3187-.786 2.0155 2.447 2.8905 3.226.8952 3.233-8.2857 4.063-17.6652.921-26.1091-.746-2.0092-3.983-1.1409-3.226.8952z" fill="#856030"/><path d="M20.4847.063334c-.5455-.141348-1.1278-.04375-1.5997.269236l-7.798 5.18615c-.8568.56876-1.1413 1.68609-.6661 2.60149l2.972 5.72129c-.6861.0437-1.3889.2356-2.0583.5856-2.23563 1.1745-3.23967 3.6986-2.23898 5.6236 1.00068 1.9251 3.63458 2.5376 5.87028 1.363 2.2356-1.1745 3.2397-3.6986 2.239-5.6236l-4.3843-8.43721 6.9847-4.64431 2.6507 5.10538c-.6861.04375-1.3889.23558-2.0583.58558-2.2356 1.17454-3.2397 3.69866-2.239 5.62366 1.0007 1.925 3.6346 2.5376 5.8703 1.363 2.2356-1.1745 3.2397-3.6986 2.239-5.62365l-4.5148-8.68622c-.2611-.501448-.723-.871647-1.2685-1.012996z" fill="#78D1C0"/><path d="M127.492 2.74222l4.618.56203c.733.09087 1.399-.43751 1.489-1.17454.091-.73703-.431-1.406758-1.168-1.497625l-5.087-.615876c-1.097-.134618-2.112.582222-2.356 1.669261l-1.546 6.84532c-.599-.42741-1.312-.75386-2.105-.9356-2.658-.60578-5.245.81444-5.73 2.96161-.485 2.1471 1.238 4.5534 3.896 5.1626 2.657.6058 5.244-.8145 5.729-2.9616l2.26-10.01558z" fill="#F7CD70"/><path d="M124.566 54.4623v13.408l-6.492-2.5006-.258-10.9074c0-23.999-19.7058-43.5724-43.8696-43.5724S30.0801 30.4633 30.0801 54.4623l-3.2296 18.1364-3.5175-4.7284v-13.408c0-27.7515 22.6778-50.27639 50.6168-50.27639 27.9392 0 50.6162 22.52489 50.6162 50.27639z" fill="#4C417E"/><path d="M124.566 54.4623v13.408l-6.071-1.5582-.679-11.8498c0-23.999-19.7059-43.5724-43.8697-43.5724V4.18591c27.9427 0 50.6197 22.52489 50.6197 50.27639z" fill="#382E64"/><path d="M24.0164 69.8929h-4.6688c-3.8622 0-7.0048-3.1602-7.0048-7.0439v-9.7026c0-3.8837 3.1426-7.0439 7.0048-7.0439h4.6688c1.2918 0 2.336 1.0501 2.336 2.3491v19.0922c0 1.2991-1.0442 2.3491-2.336 2.3491z" fill="#85C847"/><path d="M23.5476 75.5637c-3.6045 0-6.533-3.3957-6.533-7.5722V47.4623c0-4.1765 2.9318-7.5723 6.533-7.5723 5.2477 0 6.5329 3.3958 6.5329 7.5723v20.5292c0 4.1731-2.9318 7.5722-6.5329 7.5722z" fill="#4C417E"/><path d="M121.806 64.9256V45.8335c0-1.2991 1.044-2.3491 2.336-2.3491h4.668c3.863 0 7.005 3.1601 7.005 7.0439v9.7025c0 3.8838-3.142 7.0439-7.005 7.0439h-4.668c-1.292-.0034-2.336-1.0534-2.336-2.3491z" fill="#85C847"/><path d="M118.073 65.3698V44.8406c0-4.1766 1.285-7.5723 6.533-7.5723 3.605 0 6.533 3.3957 6.533 7.5723v20.5292c0 4.1765-2.932 7.5722-6.533 7.5722-3.601 0-6.533-3.3957-6.533-7.5722z" fill="#4C417E"/></svg>