<svg width="257" height="164" viewBox="0 0 257 164" fill="none" xmlns="http://www.w3.org/2000/svg"><g clip-path="url(#clip0_446_4448)"><path opacity=".3" d="M79.0229 163.534c31.0671 0 56.2521-4.811 56.2521-10.747 0-5.935-25.185-10.747-56.2521-10.747-31.0673 0-56.2524 4.812-56.2524 10.747 0 5.936 25.1851 10.747 56.2524 10.747z" fill="#603711" fill-opacity=".4"/><path d="M123.152 110.514s-1.577-10.143 2.526-10.049c0 0 2.061.466 1.702 3.607 0 0 4.701-13.0908 11.191-10.3048 0 0 1.554.8216.803 3.7457 0 0 5.964-5.2889 10.472-1.0909 4.508 4.198-1.802 7.398-1.802 7.398s5.998 1.588 2.549 6.494c-3.449 4.902-7.327 3.438-7.327 3.438s7.431 6.101-10.697 6.701l-1.567-.611c.003.004 1.626-7.37-7.85-9.328z" fill="#D76D5B"/><path d="M129.3 111.363s2.536-6.445 9.673-6.69c.962-.031 1.664.904 1.339 1.809-.952 2.655-3.228 7.622-7.435 9.597-.55.259-1.207.128-1.609-.328-.968-1.108-2.598-3.235-1.968-4.388z" fill="#E53320"/><path d="M26.2503 81.2354c-3.8747 4.7192-10.7869 5.092-16.72005 6.5524-3.2935.8112-6.91565 2.5374-7.67329 5.8343-.5397 2.3475.60542 4.7848 2.19335 6.6009 4.56662 5.227 12.47519 6.456 19.22479 4.809 6.7496-1.647 12.6343-5.6757 18.3218-9.6596" fill="#A4D6CE"/><path d="M25.025 80.0131c-3.4734 4.0391-9.0883 4.6226-14.0043 5.6652C6.48866 86.638.731963 88.5885.06081 93.9361c-.681533 5.3993 4.31406 9.8799 8.8357 11.7999 4.74309 2.016 10.16419 2.147 15.12519.887 6.8326-1.736 12.7519-5.775 18.4463-9.7594 1.8094-1.267.0831-4.2601-1.747-2.9793-8.047 5.6272-17.5538 12.1207-27.9014 9.5457-3.82276-.953-9.90812-4.281-9.33037-9.0313.53969-4.45 7.29617-5.1542 10.69697-5.8447 4.8399-.9804 9.9324-2.1922 13.2881-6.0967 1.4392-1.6813-.9963-4.1324-2.4493-2.4442z" fill="#856030"/><path d="M98.2056 136.737s9.0884 10.83-2.7642 16.157c0 0-9.5934 5.772-25.2236-5.593" fill="#A4D6CE"/><path d="M96.9803 137.956c.256.307-.1003-.141.0415.052.2214.307.4394.614.6469.932.5985.925 1.1348 1.902 1.5119 2.938 1.0174 2.776.806 5.593-1.5222 7.64-.9653.849-2.1173 1.419-3.2659 1.978-.1211.059-.5846.269-.4082.197.1003-.042-.6054.217-.8337.286-2.3456.732-4.878.815-7.2997.473-5.435-.766-10.3683-3.487-14.7654-6.642-1.8093-1.298-3.5391 1.695-1.7471 2.979 6.8361 4.906 15.9866 9.121 24.5594 6.57 2.093-.621 4.2276-1.747 5.8847-3.128 3.0135-2.513 4.0405-6.266 3.1135-10.015-.598-2.427-1.871-4.778-3.4733-6.697-1.4184-1.713-3.8539.742-2.4424 2.437z" fill="#856030"/><path d="M70.9362 20.2337c-3.7536-.1346-44.8911-.5074-43.9744 48.8358 0 0-1.5983 21.159-3.2381 28.3604 0 0-10.8561 42.7771 40.6498 46.6681 0 0 48.6685 4.332 67.0735-25.744 0 0 2.488-4.754-2.304-4.857-.737-.017-1.47-.114-2.162-.356-3.985-1.401-14.364-8.013-11.756-38.6549l.443-17.4028s2.633-36.8599-43.9499-36.8323c-.2629-.0034-.5258-.0069-.7819-.0173z" fill="#A4D6CE"/><path d="M70.9368 18.5076c-8.4274-.2969-17.3116 1.9437-24.6112 6.1002-6.1338 3.4902-11.2367 8.6099-14.6962 14.755-4.878 8.6721-6.4763 18.8183-6.4106 28.6538.0173 2.4925-.301 4.9954-.5224 7.4776-.4082 4.6019-.8545 9.2003-1.4219 13.7849-.4462 3.5973-1.2627 7.1152-1.7609 10.6952-1.4046 10.0357.2387 20.9107 6.3656 29.2097 8.8668 12.007 24.3899 16.15 38.6709 16.768 14.032.607 28.7489-1.264 41.7569-6.684 8.69-3.621 16.571-9.028 22.276-16.585 1.782-2.361 4.587-5.993 2.591-9.062-1.366-2.102-3.857-1.519-5.909-2.209-.308-.104-.218-.087-.1-.035-.152-.069-.308-.135-.457-.21-.339-.177-.674-.353-.996-.553-1.46-.901-2.941-2.378-4.051-4.029-1.91-2.837-3.048-6.093-3.806-9.4071-2.048-8.9483-1.017-18.0381-.788-27.1003.2-7.8746 1.093-15.9598-.948-23.6791-1.478-5.5858-4.238-10.8194-8.179-15.0657-5.483-5.9137-13.0146-9.4937-20.8124-11.2371-5.352-1.2014-10.7316-1.4396-16.1908-1.5881-2.2279-.0621-2.2245 3.3902 0 3.4523 9.5692.2589 19.1694 1.1703 27.5692 6.1761 5.369 3.2003 9.604 7.8781 12.257 13.526 2.844 6.0553 3.266 11.6652 3.103 18.1382-.093 3.6698-.186 7.3395-.28 11.0093-.09 3.5731-.401 7.1289-.481 10.702-.197 8.6031.426 18.2245 4.941 25.8195 2.037 3.428 5.407 7.012 9.541 7.737.623.11 2.218-.125 2.674.393.291.332.018 1.043-.072 1.402-.153.6-.059.307-.346.797-.599 1.022-1.294 1.999-2 2.948-2.733 3.684-6.154 6.902-9.908 9.529-12.932 9.062-29.4755 12.134-45.0158 12.428-12.3645.235-25.8014-1.45-35.9448-9.035-9.0502-6.77-12.8453-17.699-12.444-28.629.1037-2.814.2767-4.34.8372-6.9187 1.5879-7.3015 2.1138-14.8896 2.7745-22.3189.6781-7.6295.3322-15.3592 2.0619-22.8609 1.7333-7.5087 5.1824-14.5824 10.7904-19.9645 7.2685-6.9736 17.5399-10.4293 27.1713-10.8539.9203-.0415 1.8474-.0553 2.7677-.0242 2.2279.0794 2.2245-3.3729.0034-3.4523z" fill="#856030"/><path d="M64.2014 43.8542c1.4674 0 2.6569-1.187 2.6569-2.6513s-1.1895-2.6514-2.6569-2.6514c-1.4674 0-2.657 1.1871-2.657 2.6514 0 1.4643 1.1896 2.6513 2.657 2.6513zM90.7478 43.8542c1.4673 0 2.6569-1.187 2.6569-2.6513s-1.1896-2.6514-2.6569-2.6514c-1.4674 0-2.657 1.1871-2.657 2.6514 0 1.4643 1.1896 2.6513 2.657 2.6513z" fill="#603711"/><path d="M53.3993 53.7451c5.3682-.1747 9.6388-2.7989 9.5387-5.8614-.1001-3.0624-4.533-5.4033-9.9012-5.2286-5.3681.1747-9.6388 2.7989-9.5387 5.8614.1001 3.0624 4.533 5.4033 9.9012 5.2286z" fill="#F9C2C2"/><path d="M55.3449 45.1936c-.851 1.7952-1.7056 3.5904-2.5566 5.3856-.1211.252-.2422.5074-.3598.7595-.1211.252-.0692.5592.1868.7077.2249.1312.5881.069.7092-.1865.8511-1.7951 1.7056-3.5903 2.5566-5.3855.1211-.252.2422-.5075.3598-.7595.1211-.252.0692-.5593-.1868-.7077-.2249-.1312-.5881-.069-.7092.1864zM50.8747 44.6275c-.8511 1.7951-1.7056 3.5903-2.5566 5.3855-.1211.252-.2422.5075-.3598.7595-.1211.252-.0692.5593.1868.7077.2249.1312.5881.0691.7092-.1864.8511-1.7952 1.7056-3.5904 2.5566-5.3856.1211-.252.2422-.5074.3598-.7595.1211-.252.0692-.5592-.1868-.7077-.2249-.1312-.5881-.069-.7092.1865z" fill="#EF9292"/><path d="M98.956 53.4634c5.368-.1747 9.639-2.799 9.539-5.8614-.1-3.0624-4.533-5.4034-9.9015-5.2287-5.3682.1748-9.6388 2.799-9.5387 5.8614.1001 3.0624 4.533 5.4034 9.9012 5.2287z" fill="#F9C2C2"/><path d="M102.021 44.8624c-.851 1.7952-1.705 3.5903-2.5564 5.3855-.1211.252-.2422.5075-.3598.7595-.1211.252-.0692.5593.1868.7077.2249.1312.5881.0691.7094-.1864.851-1.7952 1.705-3.5903 2.556-5.3855.121-.252.243-.5075.36-.7595.121-.252.069-.5593-.187-.7077-.224-.1312-.588-.0656-.709.1864zM97.55 44.2961c-.8511 1.7952-1.7056 3.5904-2.5566 5.3855-.1211.2521-.2422.5075-.3598.7595-.1211.2521-.0692.5593.1868.7078.2249.1311.5881.069.7092-.1865.8511-1.7951 1.7056-3.5903 2.5566-5.3855.1211-.252.2422-.5075.3598-.7595.1211-.252.0692-.5593-.1868-.7077-.2249-.1312-.5881-.0656-.7092.1864z" fill="#EF9292"/><path d="M89.2981 21.4211L85.579 10.5396c-.6123-1.79518-2.5669-2.75146-4.3659-2.14041-1.799.61105-2.7573 2.56161-2.1449 4.35681l3.719 10.8815c.6123 1.7952 2.567 2.7515 4.3659 2.1404 1.7956-.6145 2.7573-2.565 2.145-4.3568z" fill="#512B0B"/><path d="M81.6833 14.3822l-4.6324-1.7745c-.7887-.3003-1.6709.0898-1.9719.8769-.301.7871.0899 1.6674.8787 1.9678l4.6324 1.7744c.7887.3004 1.6709-.0897 1.9719-.8768.301-.7837-.0934-1.664-.8787-1.9678zM68.6726 21.2072l-3.719-10.8816c-.6124-1.79517-2.567-2.75145-4.366-2.1404-1.799.61106-2.7573 2.5616-2.1449 4.3568l3.719 10.8815c.6123 1.7952 2.567 2.7515 4.366 2.1404 1.7955-.611 2.7572-2.5616 2.1449-4.3567z" fill="#512B0B"/><path d="M61.0539 14.1717l-4.6324-1.7744c-.7887-.3004-1.6709.0897-1.9719.8768-.301.7872.0899 1.6675.8787 1.9678l4.6324 1.7745c.7888.3003 1.6709-.0898 1.9719-.8769.3045-.7836-.0899-1.6674-.8787-1.9678z" fill="#512B0B"/><path d="M72.774 44.8484h12.0324c.5362 0 .9444.4868.8441 1.0115-.3183 1.6364-1.6122 4.6847-6.8326 4.6847 0 0-6.2964-.1795-6.8949-4.7537-.0657-.5006.3425-.9425.851-.9425z" fill="#F9C2C2"/><path d="M58.3649 141.823S35.0406 124.886 38.552 96.0733c3.975-32.6171 39.5047-21.6009 39.5047-21.6009s13.9385 4.5432 13.5268 19.9023c0 0 2.823 25.1673-6.3309 47.4483 0 0-16.7893 2.209-26.8877 0z" fill="#F7E4C4"/><mask id="a" style="mask-type:luminance" maskUnits="userSpaceOnUse" x="38" y="72" width="55" height="71"><path d="M58.4069 141.74S35.0826 124.803 38.594 95.9904c3.975-32.6171 39.5047-21.6009 39.5047-21.6009s13.9385 4.5432 13.5268 19.9024c0 0 2.823 25.1671-6.3309 47.4481-.0035 0-16.7927 2.209-26.8877 0z" fill="#fff"/></mask><g mask="url(#a)"><path d="M41.9766 83.9075c15.5161 1.809 31.6134 2.0679 47.0914-.0621 2.1968-.3004 1.2628-3.6283-.9202-3.328-15.146 2.0817-30.9942 1.7089-46.1712-.0621-2.2072-.2555-2.1899 3.1968 0 3.4522z" fill="#965C35" opacity=".18"/></g><mask id="b" style="mask-type:luminance" maskUnits="userSpaceOnUse" x="38" y="72" width="55" height="71"><path d="M58.4069 141.74S35.0826 124.803 38.594 95.9904c3.975-32.6171 39.5047-21.6009 39.5047-21.6009s13.9385 4.5432 13.5268 19.9024c0 0 2.823 25.1671-6.3309 47.4481-.0035 0-16.7927 2.209-26.8877 0z" fill="#fff"/></mask><g mask="url(#b)"><path d="M38.2335 99.6773c17.7545 1.7947 36.0763 2.1197 53.7996 0 2.183-.2624 2.2106-3.7181 0-3.4523-17.7268 2.1197-36.0451 1.7952-53.7996 0-2.2141-.2244-2.2003 3.2279 0 3.4523z" fill="#965C35" opacity=".18"/></g><mask id="c" style="mask-type:luminance" maskUnits="userSpaceOnUse" x="38" y="72" width="55" height="71"><path d="M58.4069 141.74S35.0826 124.803 38.594 95.9904c3.975-32.6171 39.5047-21.6009 39.5047-21.6009s13.9385 4.5432 13.5268 19.9024c0 0 2.823 25.1671-6.3309 47.4481-.0035 0-16.7927 2.209-26.8877 0z" fill="#fff"/></mask><g mask="url(#c)"><path d="M38.2348 115.22c17.8963.811 35.9102.956 53.7995 0 2.2141-.118 2.228-3.574 0-3.453-17.8893.957-35.9067.812-53.7995 0-2.228-.1-2.2211 3.352 0 3.453z" fill="#965C35" opacity=".18"/></g><mask id="d" style="mask-type:luminance" maskUnits="userSpaceOnUse" x="38" y="72" width="55" height="71"><path d="M58.4069 141.74S35.0826 124.803 38.594 95.9904c3.975-32.6171 39.5047-21.6009 39.5047-21.6009s13.9385 4.5432 13.5268 19.9024c0 0 2.823 25.1671-6.3309 47.4481-.0035 0-16.7927 2.209-26.8877 0z" fill="#fff"/></mask><g mask="url(#d)"><path d="M43.5825 131.438c15.5161 1.809 31.6134 2.068 47.0915-.062 2.1968-.3 1.2627-3.628-.9203-3.328-15.1459 2.082-30.9941 1.709-46.1712-.062-2.2072-.259-2.1899 3.197 0 3.452z" fill="#965C35" opacity=".18"/></g><path d="M113.577 80.5137c2.93 5.6548 9.496 7.8332 14.948 10.8263 3.024 1.6605 6.21 4.3084 6.387 7.7469.124 2.4481-1.384 4.5431-3.207 5.9101-5.259 3.936-13.354 3.67-19.249-.324-5.587-3.784-.772-.042-7.289-5.2029" fill="#A4D6CE"/><path d="M112.086 81.3838c2.148 3.9563 5.864 6.4557 9.773 8.4891 3.671 1.9091 9.192 3.656 10.967 7.7676 2.124 4.9165-4.684 7.9645-8.469 8.3685-4.899.521-8.798-1.426-12.776-3.988-2.021-1.301-3.135-2.14-5.19-3.7694-1.726-1.3671-4.189 1.0598-2.446 2.4404 5.785 4.581 12.081 9.332 19.91 8.807 4.819-.321 10.469-2.644 12.299-7.484 2.051-5.4309-2.605-9.9085-6.964-12.2871-5.048-2.7549-11.206-4.7434-14.112-10.091-1.069-1.947-4.058-.2071-2.992 1.7469zM26.336 2.47881c3.0755 4.1082 6.1545 8.21299 9.2301 12.32119 1.3181 1.7572 4.321.0379 2.9856-1.7434-3.0756-4.10824-6.1546-8.21298-9.2301-12.321184-1.3147-1.757206-4.321-.037975-2.9856 1.743394zM14.7509 15.4178c3.6291 2.7963 7.2547 5.5927 10.8838 8.389 1.7609 1.3568 3.4838-1.6398 1.7471-2.9793-3.6291-2.7963-7.2547-5.5927-10.8838-8.389-1.7609-1.3602-3.4838 1.6398-1.7471 2.9793zM6.22737 30.5147c4.28983 1.6122 8.57973 3.2244 12.86953 4.8366 2.0861.7837 2.9856-2.5512.9203-3.3279-4.2899-1.6122-8.5797-3.2245-12.86958-4.8367-2.08612-.7836-2.9856 2.5513-.92025 3.328z" fill="#856030"/><path d="M122.648 19.0669c1.066 3.7734.339 7.8298-1.508 11.2406-1.879 3.4661-4.889 6.1623-8.286 8.1094-1.917 1.1013-3.951 1.9678-6.051 2.6617-.629.2071-.36 1.2083.277.9977 3.944-1.3015 7.732-3.2244 10.815-6.0311 3.023-2.7515 5.258-6.3902 6.009-10.4328.422-2.2646.367-4.5984-.26-6.8216-.176-.6387-1.179-.366-.996.2761zM34.2804 21.3593c-1.3735 5.9207.7369 12.3695 5.0924 16.564 1.2247 1.1773 2.6259 2.1715 4.155 2.9172.5985.2934 1.1243-.6007.5224-.8941-5.134-2.5064-8.6247-7.8712-9.1021-13.526-.1349-1.6053-.0346-3.2175.3321-4.7849.1522-.649-.8511-.9252-.9998-.2762z" fill="#63937B"/><path d="M72.6328 131.062s10.0293-5.769 19.4012-6.079c0 0-2.8022 14.323-6.2618 15.704-3.4596 1.381-13.1394-9.625-13.1394-9.625z" fill="#A4D6CE"/><path d="M88.1381 141.881c-15.1286 21.09-25.4865 15.342-25.4865 15.342-7.6145-3.818-2.5809-13.698-2.5809-13.698 6.3276-11.106 12.323-12.732 12.323-12.732" fill="#A4D6CE"/><path d="M86.6446 141.011c-3.809 5.265-8.3548 10.616-14.2707 13.595-1.4945.753-3.1309 1.329-4.7949 1.54-.3667.045-1.1036.079-1.626.062-.7784-.024-.7196-.007-1.2662-.135-.301-.069-.595-.158-.8926-.238-.6642-.172.0104.045-.211-.076-1.7125-.915-2.9302-2.185-3.297-4.139-.7818-4.167 1.3908-7.761 3.6222-10.968 1.7817-2.558 3.9093-5.078 6.497-6.863.6262-.431 1.2766-.818 1.9582-1.153.4878-.238-.1799.093.2871-.121.0623-.027.1349-.048.2007-.065 2.1414-.601 1.2316-3.933-.9203-3.328-3.8332 1.073-7.099 4.684-9.4411 7.667-3.0929 3.943-5.9055 8.42-5.7809 13.623.1972 8.444 8.4378 10.691 15.0905 8.182 7.5799-2.859 13.2225-9.48 17.8306-15.85 1.3077-1.795-1.6917-3.521-2.9856-1.733z" fill="#856030"/><path opacity=".3" d="M191.58 164c26.877 0 48.665-4.812 48.665-10.747s-21.788-10.747-48.665-10.747c-26.878 0-48.666 4.812-48.666 10.747S164.702 164 191.58 164z" fill="#603711" fill-opacity=".4"/><path d="M231.554 81.0178s22.539 2.5305 18.647 26.4342c0 0-4.636 21.052-23.023 19.291l4.376-45.7252z" fill="#94CFB4"/><path d="M231.554 82.744c.021.0034-.523-.1001.062.0138.474.0932.948.1761 1.419.2865 1.439.3384 2.885.7941 4.231 1.3706 4.016 1.7227 7.521 4.5501 9.572 8.4512 4.127 7.8439 1.938 17.3439-2.923 24.2659-3.934 5.603-9.891 8.472-16.741 7.882.578.576 1.152 1.149 1.73 1.726 1.28-13.354 2.556-26.707 3.836-40.057.18-1.8884.364-3.7767.544-5.6651.211-2.2095-3.249-2.1957-3.46 0-1.28 13.3533-2.557 26.7071-3.837 40.0571-.179 1.888-.363 3.776-.543 5.665-.093.984.872 1.653 1.73 1.726 6.805.587 13.226-1.923 17.741-7.053 3.058-3.473 5.244-7.723 6.58-12.138 1.487-4.916 1.259-10.8542-.554-15.6494-1.903-5.0369-5.673-9.0208-10.444-11.4857-2.768-1.4293-5.836-2.496-8.943-2.8516-2.207-.252-2.187 3.2037 0 3.4557z" fill="#856030"/><path d="M237.487 122.366s4.625-18.449-4.729-32.7314c0 0 3.58 21.7454-4.1 35.5064-.003-.003 4.574.414 8.829-2.775z" fill="#7FBC96"/><path d="M236.626 84.0903s-.969 3.4903 2.103 5.7412c.104.0759.215.1518.325.2243 3.457 2.2544 6.778 1.1117 6.778 1.1117s-3.311-5.0507-9.206-7.0772zM248.119 108.287s-5.356-1.712-7.117 2.987c-1.76 4.698 2.429 6.49 2.429 6.49s3.408-4.243 4.688-9.477z" fill="#79B38E"/><path d="M222.009 130.672s8.884.462 11.417 0c0 0 3.141 2.344-3.653 4.353 0 0-6.487 2.375-15.523 1.015 0 0 5.445-3.538 7.759-5.368z" fill="#FFD37B"/><path d="M222.009 132.398c3.895.2 8.012.57 11.876-.062-.56-.149-1.121-.297-1.681-.445.27.21.176.372.183.148-.01.318.166-.145.021-.135-.183.014-.82.58-1 .674-.667.341-1.384.555-2.093.78-.211.065-.418.138-.629.2-4.491 1.322-9.362 1.467-13.974.815.139 1.053.277 2.102.412 3.155 2.757-1.795 5.518-3.614 8.113-5.637 1.75-1.368-.713-3.795-2.446-2.441-2.36 1.84-4.906 3.469-7.41 5.099-1.104.718-1.173 2.931.411 3.155 4.947.701 10.009.666 14.876-.559 2.526-.635 6.508-1.588 7.141-4.512.235-1.088-.173-2.255-.976-3.021-.996-.953-2.214-.539-3.463-.494-3.113.118-6.248-.013-9.358-.176-2.228-.11-2.221 3.342-.003 3.456z" fill="#856030"/><path d="M195.063 137.152s12.395 10.129 3.885 15.521c0 0-8.839 7.026-24.065-11.924" fill="#F9E8BB"/><path d="M193.838 138.374c1.689 1.388 3.27 3.045 4.505 4.847.871 1.274 1.733 2.741 1.847 4.312.132 1.805-1.059 2.979-2.47 3.918.765-.507-.083.004-.322.135-.512.286.066.02-.415.179-.38.125-.758.235-1.145.318-.647.141-1.771.186-2.757.062-1.301-.166-2.623-.597-3.823-1.139-5.338-2.42-9.535-7.019-13.153-11.482-1.401-1.727-3.834.728-2.446 2.44 5.206 6.422 13.412 15.09 22.705 13.519 1.231-.207 2.408-.645 3.456-1.322 3.805-2.465 4.677-6.518 2.736-10.591-1.394-2.928-3.767-5.59-6.268-7.644-1.709-1.398-4.169 1.032-2.45 2.448zM232.735 5.52014c-3.076 4.1082-6.155 8.21296-9.23 12.32116-1.336 1.7814 1.667 3.504 2.985 1.7434 3.076-4.1082 6.155-8.213 9.23-12.32117 1.336-1.78137-1.667-3.50405-2.985-1.74339zM245.561 17.2199c-3.629 2.7964-7.255 5.5927-10.884 8.3891-1.737 1.3394-.017 4.3395 1.747 2.9793 3.629-2.7964 7.255-5.5927 10.884-8.389 1.736-1.3361.017-4.3361-1.747-2.9794zM254.911 31.9717c-4.289 1.6122-8.579 3.2244-12.869 4.8366-2.066.7767-1.17 4.1151.92 3.328 4.29-1.6122 8.58-3.2244 12.87-4.8367 2.065-.7767 1.169-4.1151-.921-3.3279z" fill="#856030"/><path d="M142.386 79.9822s-12.246-59.7519 43.75-59.7588c52.775-.0069 43.525 60.9153 43.525 60.9153s17.778 58.2983-38.301 63.1283c0 0-51.669 6.438-47.887-44.745 0 0-10.241 7.937-16.755 3.155 0 .004-8.254-6.3069 15.668-22.6948z" fill="#F9E8BB"/><path d="M144.054 79.5229c-.096-.4799-.176-.9632-.252-1.4465-.038-.2485-.076-.5006-.114-.7491-.021-.1416-.042-.2866-.059-.4281.062.4419 0-.0069-.024-.183-.094-.7595-.184-1.5224-.256-2.2854-.422-4.3947-.495-8.8309-.166-13.236.851-11.4097 4.753-23.0094 13.827-30.5042 5.788-4.778 13.178-7.2636 20.55-8.2233 8.687-1.1324 17.941-.7008 26.192 2.42 12.41 4.6951 19.779 15.8735 22.813 28.3397 2.072 8.5202 2.477 17.5444 1.563 26.2545-.041.397-.089.794-.138 1.191-.055.4557.017-.4868-.003.0069-.035.8286.135 1.3671.339 2.1577.785 3.0311 1.384 6.3625 1.729 9.2417 1.287 10.7232.623 22.3392-4.826 31.9192-7.043 12.387-20.625 17.31-34.194 18.574-7.386.69-14.935-.011-21.982-2.241-5.4-1.709-10.486-4.484-14.492-8.523-4.982-5.024-7.767-11.621-8.919-18.525-.754-4.54-.768-9.187-.446-13.7646.087-1.2117-1.574-2.2819-2.602-1.4913-3.698 2.8449-10.707 6.5939-14.941 3.1519-.35-.283.141.283-.066-.09-.114-.203-.232-.4-.336-.611.204.428-.045-.152-.1-.397-.035-.1483-.066-.3002-.086-.4521.079.5041-.004-.1691.003-.3072.028-.7837.104-1.3671.491-2.389.443-1.1634 1.201-2.3579 1.969-3.4039 3.584-4.8884 8.794-8.6618 13.727-12.0623 1.82-1.2531.094-4.2462-1.747-2.9793-5.085 3.5041-10.257 7.3223-14.125 12.1969-1.868 2.3544-3.615 5.1301-3.764 8.2198-.249 5.0851 4.487 7.4091 9.154 6.9741 4.13-.384 8.299-2.351 11.572-4.868-.868-.497-1.737-.994-2.602-1.4916-.626 8.8726.205 18.0626 4.218 26.1266 2.944 5.917 7.649 10.806 13.347 14.144 8.562 5.023 18.954 6.77 28.787 6.425 11.963-.421 24.569-3.656 33.481-12.007 9.341-8.748 12.638-21.711 12.482-34.129-.059-4.6885-.578-9.3835-1.463-13.9889-.26-1.3567-.557-2.71-.9-4.0495-.09-.3452-.145-.7422-.287-1.0736-.256-.5973.329-.1381-.083.611.28-.5109.222-1.7089.28-2.2888.156-1.5467.263-3.1002.326-4.6537.204-4.9022.006-9.8252-.634-14.6894-1.688-12.8286-6.725-25.5917-17.46-33.487-6.521-4.7987-14.495-7.0875-22.494-7.7504-9.116-.756-18.768.1934-27.244 3.7803-12.558 5.313-20.318 16.6192-23.11 29.6757-1.875 8.7687-1.923 17.9898-.529 26.8345.076.4833.152.9666.252 1.4465.45 2.1714 3.785 1.2497 3.342-.9218z" fill="#856030"/><path d="M226.497 80.7727s18.671 13.8332 11.908 22.0673c0 0-9.185 7.978-21.262-9.8463" fill="#F9E8BB"/><path d="M225.625 82.264c.339.2521.093.0691.156.1174.398.3107.792.6283 1.183.9529 1.221 1.008 2.404 2.0644 3.546 3.1622 2.726 2.6307 5.566 5.6514 6.985 9.2245.574 1.4465.937 3.1001.394 4.609-.173.48-.443.901-.733 1.315.135-.19.287-.159-.132.076-1.567.88-3.165 1.391-5.262 1.108-5.746-.78-10.091-6.2864-13.122-10.7018-1.249-1.8228-4.248-.0967-2.985 1.7434 4.67 6.8014 13.544 16.1704 22.663 11.1064 2.436-1.354 3.494-4.261 3.266-6.9568-.391-4.6191-3.594-8.6686-6.639-11.9414-2.304-2.4753-4.854-4.771-7.569-6.7906-1.792-1.3326-3.519 1.664-1.751 2.9758z" fill="#856030"/><path d="M182.539 133.434c12.541 0 22.708-11.412 22.708-25.488 0-14.0771-10.167-25.4885-22.708-25.4885-12.542 0-22.709 11.4114-22.709 25.4885 0 14.076 10.167 25.488 22.709 25.488z" fill="#E8C587"/><path d="M176.561 136.461s-12.395 10.129-3.885 15.522c0 0 8.84 7.025 24.065-11.924" fill="#F9E8BB"/><path d="M175.336 135.239c-4.681 3.846-11.008 12.107-4.715 17.365 3.446 2.876 8.22 2.852 12.347 1.184 6.113-2.471 10.929-7.498 14.997-12.514 1.387-1.712-1.045-4.17-2.446-2.441-3.373 4.16-7.171 8.289-11.939 10.871-2.259 1.226-4.84 2.079-7.434 1.758-1.007-.125-1.592-.415-2.536-.929-.111-.059-.581-.352.29.228-.384-.256-.774-.542-1.12-.843-.634-.555-1.139-1.242-1.298-2.078-.283-1.464.388-2.972 1.104-4.212 1.304-2.261 3.186-4.287 5.2-5.944 1.716-1.416-.744-3.846-2.45-2.445z" fill="#856030"/><path d="M194.235 46.6367c1.467 0 2.657-1.1871 2.657-2.6514 0-1.4643-1.19-2.6513-2.657-2.6513s-2.657 1.187-2.657 2.6513 1.19 2.6514 2.657 2.6514zM170.455 46.6367c1.468 0 2.657-1.1871 2.657-2.6514 0-1.4643-1.189-2.6513-2.657-2.6513-1.467 0-2.657 1.187-2.657 2.6513s1.19 2.6514 2.657 2.6514z" fill="#603711"/><path d="M214.243 54.3989c.1-3.0625-4.171-5.6867-9.539-5.8614-5.368-.1748-9.801 2.1662-9.901 5.2286-.1 3.0625 4.17 5.6867 9.539 5.8614 5.368.1747 9.801-2.1662 9.901-5.2286z" fill="#F9C2C2"/><path d="M201.5 51.608c.851 1.7952 1.705 3.5904 2.556 5.3856.121.252.242.5075.36.7595.121.252.484.3176.709.1864.26-.1519.308-.4557.187-.7077-.851-1.7952-1.706-3.5904-2.557-5.3855-.121-.2521-.242-.5075-.359-.7595-.121-.2521-.485-.3177-.71-.1865-.259.1519-.307.4523-.186.7077zM205.972 51.042c.851 1.7952 1.705 3.5904 2.556 5.3855.121.2521.243.5075.36.7595.121.2521.485.3177.709.1865.26-.1519.308-.4557.187-.7077-.851-1.7952-1.705-3.5904-2.556-5.3856-.121-.252-.243-.5075-.36-.7595-.121-.252-.485-.3176-.709-.1864-.26.1484-.308.4522-.187.7077z" fill="#EF9292"/><path d="M171.454 54.1176c.1-3.0624-4.17-5.6866-9.539-5.8614-5.368-.1747-9.801 2.1663-9.901 5.2287-.1 3.0624 4.171 5.6866 9.539 5.8614 5.368.1747 9.801-2.1663 9.901-5.2287z" fill="#F9C2C2"/><path d="M157.591 51.2765c.851 1.7952 1.706 3.5904 2.557 5.3855.121.2521.242.5075.36.7595.121.2521.484.3176.709.1865.259-.1519.308-.4557.187-.7077-.851-1.7952-1.706-3.5904-2.557-5.3856-.121-.252-.242-.5075-.36-.7595-.121-.252-.484-.3176-.709-.1864-.259.1519-.304.4557-.187.7077zM162.065 50.7103c.851 1.7952 1.706 3.5904 2.557 5.3856.121.252.242.5075.359.7595.122.252.485.3176.71.1864.259-.1519.308-.4557.186-.7077-.851-1.7952-1.705-3.5904-2.556-5.3856-.121-.252-.242-.5074-.36-.7594-.121-.2521-.484-.3177-.709-.1865-.26.1519-.308.4557-.187.7077z" fill="#EF9292"/><path d="M188.431 50.7415h-12.033c-.536 0-.944.4867-.844 1.0115.319 1.6363 1.612 4.6847 6.833 4.6847 0 0 6.296-.1795 6.895-4.7538.066-.504-.343-.9424-.851-.9424z" fill="#F9C2C2"/></g><defs><clipPath id="clip0_446_4448"><path fill="#fff" d="M0 0h257v164H0z"/></clipPath></defs></svg>