<svg width="36" height="38" viewBox="0 0 36 38" fill="none" xmlns="http://www.w3.org/2000/svg">
<path d="M3.13672 27.5357H3.80408H19.901C19.9998 27.5 19.9953 27.5357 19.9998 27C19.9998 27 19.9998 25.5 19.9953 26.1876C19.9953 25.2911 19.9818 24.4283 19.901 23.6126C19.7796 22.3723 20.1773 21.132 21.0334 20.1074C24.06 16.4944 24.606 10.9535 24.7004 8.74255V8.66841C24.7004 7.81233 24.1341 7.05737 23.305 6.82144C22.8062 6.67989 22.2804 6.7473 21.8356 7.00344C21.3772 7.27307 21.0401 7.7247 20.9121 8.24374C18.5461 17.8021 14.0298 17.7077 14.0365 17.7077C13.2883 17.6066 12.4592 17.5527 11.5627 17.5527C7.74741 17.5527 5.40838 18.4492 4.20178 20.3838C3.23112 21.9409 3.13675 23.9699 3.13675 26.1876C3.13714 25.9524 3.13672 26.6293 3.13672 27C3.13672 27.3707 3.13737 27.3402 3.13672 27.5357Z" fill="#576168"/>
<path d="M11.5635 16.609C14.1991 16.609 16.3426 14.4654 16.3426 11.8298C16.3426 9.19419 14.1991 7.05737 11.5635 7.05737C8.93457 7.05737 6.79102 9.19419 6.79102 11.8298C6.79102 14.4654 8.93457 16.609 11.5635 16.609Z" fill="#576168"/>
<path d="M32.904 1.24686H12.911C11.7988 1.24686 10.8955 2.15012 10.8955 3.26234V5.74293C11.118 5.71596 11.3404 5.70248 11.5696 5.70248C14.9467 5.70248 17.6969 8.44596 17.6969 11.8231C17.6969 12.3691 17.616 12.8948 17.488 13.3937C18.2429 12.1534 18.9979 10.4008 19.6113 7.91344C19.827 7.04389 20.3865 6.28893 21.1617 5.8373C21.6672 5.54745 22.2267 5.39915 22.7929 5.39915C23.0895 5.39915 23.3929 5.43959 23.6827 5.52048C25.0848 5.91819 26.0554 7.21241 26.0554 8.66167V8.73582C25.9678 10.8659 25.4892 15.7327 23.0963 19.548H32.9108C34.023 19.548 34.9263 18.6447 34.9263 17.5325V3.26908C34.9195 2.15686 34.0163 1.24686 32.904 1.24686Z" fill="#576168"/>
<path d="M2.8607 34.604C3.1667 34.892 3.5987 35.036 4.1507 35.036C4.5107 35.042 4.8287 34.976 5.1047 34.838C5.3747 34.706 5.5847 34.514 5.7347 34.262C5.8787 34.016 5.9567 33.722 5.9567 33.38V32.732C5.9567 32.696 5.9387 32.66 5.9147 32.63C5.8847 32.606 5.8487 32.588 5.8067 32.588H4.3667C4.3247 32.588 4.2887 32.606 4.2647 32.63C4.2347 32.66 4.2227 32.696 4.2227 32.732V33.068C4.2227 33.116 4.2347 33.152 4.2647 33.176C4.2887 33.206 4.3247 33.218 4.3667 33.218H5.0987V33.404C5.0987 33.716 5.0087 33.944 4.8407 34.1C4.6667 34.256 4.4387 34.334 4.1567 34.334C3.8747 34.334 3.6527 34.256 3.4967 34.1C3.3347 33.944 3.2507 33.698 3.2447 33.368C3.2387 33.248 3.2387 33.074 3.2387 32.834C3.2387 32.594 3.2387 32.414 3.2447 32.294C3.2507 31.976 3.3347 31.742 3.4907 31.586C3.6467 31.436 3.8687 31.358 4.1507 31.358C4.3907 31.358 4.5767 31.412 4.7207 31.52C4.8587 31.628 4.9547 31.754 5.0147 31.898C5.0267 31.934 5.0447 31.964 5.0687 31.982C5.0867 32 5.1167 32.006 5.1587 32.006H5.7887C5.8247 32.006 5.8607 31.994 5.8847 31.97C5.9087 31.946 5.9207 31.91 5.9207 31.874C5.9087 31.694 5.8367 31.508 5.7047 31.316C5.5667 31.13 5.3627 30.974 5.0987 30.842C4.8347 30.716 4.5167 30.65 4.1507 30.65C3.6047 30.65 3.1787 30.794 2.8667 31.082C2.5547 31.37 2.3867 31.76 2.3747 32.264C2.3687 32.384 2.3687 32.576 2.3687 32.834C2.3687 33.098 2.3687 33.284 2.3747 33.398C2.3927 33.914 2.5547 34.316 2.8607 34.604ZM6.93573 34.712C7.19373 34.952 7.55973 35.072 8.02773 35.072C8.49573 35.072 8.85573 34.952 9.11373 34.712C9.37173 34.472 9.50973 34.142 9.52773 33.716C9.53373 33.674 9.53973 33.584 9.53973 33.452C9.53973 33.32 9.53373 33.236 9.52773 33.188C9.50973 32.768 9.37173 32.438 9.10773 32.198C8.84373 31.958 8.48373 31.832 8.02773 31.832C7.56573 31.832 7.20573 31.958 6.94173 32.198C6.67773 32.438 6.53973 32.768 6.52773 33.188L6.51573 33.452L6.52773 33.716C6.53973 34.142 6.67773 34.472 6.93573 34.712ZM8.02773 34.466C7.81173 34.466 7.64973 34.4 7.53573 34.268C7.41573 34.136 7.35573 33.944 7.35573 33.686L7.34373 33.452L7.35573 33.218C7.35573 32.966 7.41573 32.768 7.53573 32.636C7.64973 32.504 7.81173 32.432 8.02773 32.432C8.23773 32.432 8.39973 32.504 8.51973 32.636C8.63373 32.768 8.69373 32.966 8.69973 33.218C8.70573 33.26 8.71173 33.338 8.71173 33.452C8.71173 33.572 8.70573 33.65 8.69973 33.686C8.69373 33.944 8.63373 34.136 8.51973 34.268C8.40573 34.4 8.24373 34.466 8.02773 34.466ZM12.146 34.718C12.326 34.91 12.602 35 12.968 35H13.46C13.502 35 13.538 34.988 13.562 34.958C13.586 34.934 13.604 34.898 13.604 34.856V34.478C13.604 34.436 13.586 34.4 13.562 34.376C13.538 34.352 13.502 34.334 13.46 34.334H13.04C12.902 34.334 12.806 34.292 12.746 34.202C12.686 34.118 12.656 33.986 12.656 33.812V32.522H13.406C13.442 32.522 13.478 32.51 13.508 32.48C13.532 32.456 13.55 32.42 13.55 32.378V32.024C13.55 31.988 13.532 31.952 13.508 31.922C13.478 31.898 13.442 31.88 13.406 31.88H12.656V30.884C12.656 30.842 12.638 30.806 12.614 30.782C12.59 30.758 12.554 30.74 12.512 30.74H12.014C11.972 30.74 11.936 30.758 11.912 30.782C11.882 30.806 11.87 30.842 11.87 30.884V31.88H11.396C11.354 31.88 11.318 31.898 11.294 31.922C11.264 31.952 11.252 31.988 11.252 32.024V32.378C11.252 32.42 11.264 32.456 11.294 32.48C11.318 32.51 11.354 32.522 11.396 32.522H11.87V33.878C11.87 34.25 11.96 34.526 12.146 34.718ZM14.424 34.712C14.682 34.952 15.048 35.072 15.516 35.072C15.984 35.072 16.344 34.952 16.602 34.712C16.86 34.472 16.998 34.142 17.016 33.716C17.022 33.674 17.028 33.584 17.028 33.452C17.028 33.32 17.022 33.236 17.016 33.188C16.998 32.768 16.86 32.438 16.596 32.198C16.332 31.958 15.972 31.832 15.516 31.832C15.054 31.832 14.694 31.958 14.43 32.198C14.166 32.438 14.028 32.768 14.016 33.188L14.004 33.452L14.016 33.716C14.028 34.142 14.166 34.472 14.424 34.712ZM15.516 34.466C15.3 34.466 15.138 34.4 15.024 34.268C14.904 34.136 14.844 33.944 14.844 33.686L14.832 33.452L14.844 33.218C14.844 32.966 14.904 32.768 15.024 32.636C15.138 32.504 15.3 32.432 15.516 32.432C15.726 32.432 15.888 32.504 16.008 32.636C16.122 32.768 16.182 32.966 16.188 33.218C16.194 33.26 16.2 33.338 16.2 33.452C16.2 33.572 16.194 33.65 16.188 33.686C16.182 33.944 16.122 34.136 16.008 34.268C15.894 34.4 15.732 34.466 15.516 34.466ZM19.4483 34.628C19.7483 34.916 20.1803 35.054 20.7323 35.054C21.0863 35.054 21.3983 34.994 21.6623 34.874C21.9263 34.754 22.1303 34.58 22.2743 34.364C22.4183 34.148 22.4963 33.908 22.5083 33.638C22.5083 33.602 22.4963 33.572 22.4723 33.548C22.4483 33.524 22.4183 33.506 22.3823 33.506H21.8003C21.7523 33.506 21.7163 33.518 21.6923 33.542C21.6683 33.566 21.6443 33.608 21.6323 33.662C21.5723 33.914 21.4643 34.094 21.3143 34.196C21.1643 34.304 20.9723 34.352 20.7323 34.352C20.1563 34.352 19.8623 34.028 19.8383 33.374C19.8323 33.26 19.8323 33.086 19.8323 32.858C19.8323 32.63 19.8323 32.462 19.8383 32.348C19.8623 31.7 20.1563 31.376 20.7323 31.376C20.9723 31.376 21.1703 31.43 21.3203 31.532C21.4643 31.64 21.5723 31.814 21.6323 32.066C21.6443 32.126 21.6683 32.162 21.6923 32.186C21.7163 32.21 21.7523 32.216 21.8003 32.216H22.3823C22.4123 32.216 22.4423 32.21 22.4663 32.186C22.4903 32.162 22.5083 32.138 22.5083 32.102V32.09C22.4963 31.826 22.4183 31.58 22.2743 31.364C22.1303 31.148 21.9263 30.98 21.6623 30.854C21.3983 30.734 21.0863 30.668 20.7323 30.668C20.1803 30.668 19.7543 30.818 19.4543 31.106C19.1483 31.394 18.9863 31.802 18.9683 32.318C18.9623 32.438 18.9623 32.618 18.9623 32.87C18.9623 33.122 18.9623 33.296 18.9683 33.404C18.9863 33.932 19.1483 34.34 19.4483 34.628ZM23.1957 34.958C23.2197 34.988 23.2557 35 23.2977 35H23.8017C23.8437 35 23.8797 34.988 23.9037 34.958C23.9277 34.934 23.9457 34.898 23.9457 34.856V30.608C23.9457 30.566 23.9277 30.53 23.9037 30.506C23.8797 30.482 23.8437 30.464 23.8017 30.464H23.2977C23.2557 30.464 23.2197 30.482 23.1957 30.506C23.1657 30.53 23.1537 30.566 23.1537 30.608V34.856C23.1537 34.898 23.1657 34.934 23.1957 34.958ZM27.3695 31.844H26.8235C26.7875 31.844 26.7515 31.862 26.7275 31.886C26.7035 31.91 26.6915 31.94 26.6915 31.976V32.198C26.4515 31.94 26.1395 31.808 25.7435 31.808C25.4195 31.808 25.1615 31.88 24.9635 32.03C24.9035 32.078 24.8375 32.144 24.7715 32.228L24.6935 32.348C24.6395 32.426 24.5795 32.564 24.5135 32.762C24.4475 32.96 24.4175 33.182 24.4175 33.428L24.4235 33.584C24.4355 33.8 24.4715 34.004 24.5375 34.184C24.5975 34.364 24.6455 34.484 24.6815 34.532C24.9155 34.88 25.2755 35.06 25.7555 35.06C26.1515 35.066 26.4635 34.94 26.6915 34.682V34.868C26.6915 34.904 26.7035 34.94 26.7275 34.964C26.7515 34.994 26.7875 35.006 26.8235 35.006H27.3695C27.4055 35.006 27.4355 34.994 27.4595 34.964C27.4835 34.94 27.5015 34.904 27.5015 34.868V31.976C27.5015 31.94 27.4835 31.91 27.4595 31.886C27.4355 31.862 27.4055 31.844 27.3695 31.844ZM26.6915 33.314V33.506C26.6795 33.782 26.6315 33.992 26.5355 34.136C26.4035 34.328 26.2055 34.418 25.9475 34.4C25.7555 34.388 25.6115 34.322 25.5035 34.202C25.3775 34.064 25.3115 33.824 25.3055 33.488C25.2995 33.128 25.3475 32.864 25.4555 32.708C25.6055 32.492 25.8335 32.408 26.1455 32.462C26.4995 32.522 26.6795 32.81 26.6915 33.314ZM28.5951 34.922C28.7991 35.018 29.0511 35.06 29.3571 35.06C29.7951 35.06 30.1371 34.976 30.3831 34.796C30.6291 34.622 30.7551 34.394 30.7551 34.106C30.7551 33.62 30.3951 33.308 29.6751 33.164C29.4411 33.122 29.2671 33.08 29.1531 33.038C29.0331 32.996 28.9551 32.948 28.9191 32.9C28.8831 32.852 28.8651 32.792 28.8651 32.72C28.8651 32.618 28.9011 32.534 28.9851 32.468C29.0631 32.408 29.1771 32.372 29.3271 32.372C29.4351 32.372 29.5251 32.39 29.6031 32.42C29.6751 32.456 29.7471 32.498 29.8071 32.552C29.8671 32.606 29.9151 32.642 29.9451 32.66C29.9691 32.696 29.9991 32.708 30.0471 32.708H30.4971C30.5331 32.708 30.5631 32.696 30.5871 32.672C30.6111 32.648 30.6291 32.612 30.6291 32.576C30.6291 32.486 30.5751 32.378 30.4731 32.258C30.3711 32.138 30.2211 32.036 30.0291 31.952C29.8311 31.868 29.5971 31.82 29.3271 31.82C29.0631 31.82 28.8351 31.868 28.6431 31.958C28.4511 32.048 28.3131 32.162 28.2171 32.306C28.1211 32.45 28.0731 32.6 28.0731 32.756C28.0731 33.002 28.1511 33.2 28.3131 33.344C28.4751 33.494 28.7271 33.602 29.0691 33.674C29.3031 33.728 29.4771 33.776 29.5971 33.818C29.7171 33.86 29.7951 33.908 29.8431 33.956C29.8911 34.004 29.9151 34.07 29.9151 34.148C29.9151 34.268 29.8611 34.358 29.7651 34.418C29.6631 34.478 29.5311 34.508 29.3751 34.508C29.2671 34.508 29.1651 34.496 29.0751 34.46C28.9851 34.424 28.9071 34.376 28.8351 34.316C28.7691 34.262 28.7271 34.226 28.7031 34.202C28.6791 34.172 28.6491 34.154 28.6191 34.154H28.1271C28.0911 34.154 28.0551 34.166 28.0311 34.19C28.0071 34.214 27.9951 34.25 27.9951 34.286C27.9951 34.376 28.0431 34.484 28.1391 34.604C28.2351 34.724 28.3911 34.832 28.5951 34.922ZM31.7943 34.922C31.9983 35.018 32.2503 35.06 32.5563 35.06C32.9943 35.06 33.3363 34.976 33.5823 34.796C33.8283 34.622 33.9543 34.394 33.9543 34.106C33.9543 33.62 33.5943 33.308 32.8743 33.164C32.6403 33.122 32.4663 33.08 32.3523 33.038C32.2323 32.996 32.1543 32.948 32.1183 32.9C32.0823 32.852 32.0643 32.792 32.0643 32.72C32.0643 32.618 32.1003 32.534 32.1843 32.468C32.2623 32.408 32.3763 32.372 32.5263 32.372C32.6343 32.372 32.7243 32.39 32.8023 32.42C32.8743 32.456 32.9463 32.498 33.0063 32.552C33.0663 32.606 33.1143 32.642 33.1443 32.66C33.1683 32.696 33.1983 32.708 33.2463 32.708H33.6963C33.7323 32.708 33.7623 32.696 33.7863 32.672C33.8103 32.648 33.8283 32.612 33.8283 32.576C33.8283 32.486 33.7743 32.378 33.6723 32.258C33.5703 32.138 33.4203 32.036 33.2283 31.952C33.0303 31.868 32.7963 31.82 32.5263 31.82C32.2623 31.82 32.0343 31.868 31.8423 31.958C31.6503 32.048 31.5123 32.162 31.4163 32.306C31.3203 32.45 31.2723 32.6 31.2723 32.756C31.2723 33.002 31.3503 33.2 31.5123 33.344C31.6743 33.494 31.9263 33.602 32.2683 33.674C32.5023 33.728 32.6763 33.776 32.7963 33.818C32.9163 33.86 32.9943 33.908 33.0423 33.956C33.0903 34.004 33.1143 34.07 33.1143 34.148C33.1143 34.268 33.0603 34.358 32.9643 34.418C32.8623 34.478 32.7303 34.508 32.5743 34.508C32.4663 34.508 32.3643 34.496 32.2743 34.46C32.1843 34.424 32.1063 34.376 32.0343 34.316C31.9683 34.262 31.9263 34.226 31.9023 34.202C31.8783 34.172 31.8483 34.154 31.8183 34.154H31.3263C31.2903 34.154 31.2543 34.166 31.2303 34.19C31.2063 34.214 31.1943 34.25 31.1943 34.286C31.1943 34.376 31.2423 34.484 31.3383 34.604C31.4343 34.724 31.5903 34.832 31.7943 34.922Z" fill="#576168"/>
</svg>
