<svg width="626" height="523" viewBox="0 0 626 523" fill="none" xmlns="http://www.w3.org/2000/svg">
<path d="M567.843 363.077V365.549C566.078 366.749 564.171 368.02 561.982 369.15V370.492H572.716V373.034H561.982V378.26C561.982 380.025 561.064 380.873 559.228 380.873H555.838L555.203 378.472C556.192 378.472 557.251 378.542 558.381 378.542C559.016 378.542 559.369 378.118 559.369 377.342V373.034H548V370.492H559.369V368.02C561.347 366.961 562.83 366.114 563.959 365.478H552.802V363.006H567.843V363.077ZM572.292 364.631H569.609V360.605H551.037V364.631H548.353V358.134H558.946C558.593 357.216 558.169 356.439 557.745 355.662L560.782 355.168C561.135 356.086 561.558 357.004 561.912 358.134H572.222V364.631H572.292Z" fill="#97BCB3"/>
<path d="M9.90666 75.8133C10.9597 75.8133 11.8133 74.9597 11.8133 73.9067C11.8133 72.8536 10.9597 72 9.90666 72C8.85365 72 8 72.8536 8 73.9067C8 74.9597 8.85365 75.8133 9.90666 75.8133Z" fill="#97BCB3"/>
<path d="M9.90666 75.8133C10.9597 75.8133 11.8133 74.9597 11.8133 73.9067C11.8133 72.8536 10.9597 72 9.90666 72C8.85365 72 8 72.8536 8 73.9067C8 74.9597 8.85365 75.8133 9.90666 75.8133Z" fill="#97BCB3"/>
<path d="M87.9067 3.81331C88.9597 3.81331 89.8133 2.95967 89.8133 1.90666C89.8133 0.853639 88.9597 0 87.9067 0C86.8536 0 86 0.853639 86 1.90666C86 2.95967 86.8536 3.81331 87.9067 3.81331Z" fill="#97BCB3"/>
<path d="M87.9067 3.81331C88.9597 3.81331 89.8133 2.95967 89.8133 1.90666C89.8133 0.853639 88.9597 0 87.9067 0C86.8536 0 86 0.853639 86 1.90666C86 2.95967 86.8536 3.81331 87.9067 3.81331Z" fill="#97BCB3"/>
<path d="M77.9067 388.813C78.9597 388.813 79.8133 387.96 79.8133 386.907C79.8133 385.854 78.9597 385 77.9067 385C76.8536 385 76 385.854 76 386.907C76 387.96 76.8536 388.813 77.9067 388.813Z" fill="#97BCB3"/>
<path d="M77.9067 388.813C78.9597 388.813 79.8133 387.96 79.8133 386.907C79.8133 385.854 78.9597 385 77.9067 385C76.8536 385 76 385.854 76 386.907C76 387.96 76.8536 388.813 77.9067 388.813Z" fill="#97BCB3"/>
<path d="M557.907 468.813C558.96 468.813 559.813 467.96 559.813 466.907C559.813 465.854 558.96 465 557.907 465C556.854 465 556 465.854 556 466.907C556 467.96 556.854 468.813 557.907 468.813Z" fill="#97BCB3"/>
<path d="M557.907 468.813C558.96 468.813 559.813 467.96 559.813 466.907C559.813 465.854 558.96 465 557.907 465C556.854 465 556 465.854 556 466.907C556 467.96 556.854 468.813 557.907 468.813Z" fill="#97BCB3"/>
<path opacity="0.6" d="M623.536 289.087H625.16V290.782H608V289.087H609.695V280.33H613.72V278H615.415V280.33H617.886V278H619.581V280.33H623.606V289.087H623.536ZM615.062 292.265C613.438 293.536 611.46 294.666 609.13 295.513L608.353 293.889C610.613 293.112 612.449 292.194 613.932 290.994L615.062 292.265ZM613.791 284.567V281.955H611.46V284.567H613.791ZM613.791 289.087V286.262H611.46V289.087H613.791ZM615.415 284.567H617.886V281.955H615.415V284.567ZM617.886 289.087V286.262H615.415V289.087H617.886ZM625.019 293.959L624.101 295.442C622.194 294.101 620.358 293.041 618.381 292.265L619.299 290.923C621.347 291.77 623.324 292.83 625.019 293.959ZM619.581 284.567H621.841V281.955H619.581V284.567ZM621.841 289.087V286.262H619.581V289.087H621.841Z" fill="#B7D7CF"/>
<path opacity="0.8" d="M13.3084 242V246.628H23V259.557H20.3833V258.031H13.3084V267H10.6432V258.031H3.56828V259.557H1V246.628H10.6432V242H13.3084ZM10.6432 255.55V249.156H3.56828V255.597H10.6432V255.55ZM20.3833 255.55V249.156H13.3084V255.597H20.3833V255.55Z" fill="#97BCB3"/>
<path d="M551.848 148.242V146.182H554.182V148.242H556.756V150.424H554.182V152.545H555.259C556.576 150.848 557.773 149.03 558.731 147.03L560.646 148.061C559.808 149.697 558.91 151.212 557.953 152.606H559.389V154.848H556.217C555.678 155.515 555.14 156.121 554.541 156.667H558.551V158.424C557.713 159.455 556.696 160.424 555.559 161.455V162.303C557.175 162.061 558.671 161.758 559.928 161.394V163.697C558.791 164 557.354 164.303 555.559 164.545V167.091C555.559 168.848 554.661 169.697 552.985 169.697H550.591L549.993 167.455C550.89 167.576 551.549 167.636 552.087 167.636C552.805 167.636 553.224 167.212 553.224 166.364V164.909C551.608 165.091 549.813 165.273 547.838 165.455L547.539 163.091C549.633 162.97 551.549 162.848 553.224 162.667V161.03C554.122 160.424 554.9 159.697 555.738 158.848H552.207C551.01 159.758 549.813 160.606 548.556 161.333L547 159.636C547.599 159.273 548.137 158.97 548.736 158.606V156.727H551.309C552.027 156.121 552.686 155.515 553.344 154.909H547.539V152.667H551.848V150.545H548.736V148.364H551.848V148.242ZM560.466 158.061L559.03 156.242C560.586 153.697 561.603 150.242 562.202 146L564.596 146.424C564.416 147.636 564.177 148.788 563.938 149.818H570.282V152.182H568.845C568.666 156.242 567.888 159.697 566.392 162.606C567.589 164.667 569.145 166.424 571 167.818L569.743 170C567.828 168.545 566.272 166.848 565.015 164.788C563.579 166.848 561.663 168.606 559.389 170L558.012 167.758C560.406 166.424 562.322 164.606 563.698 162.364C562.8 160.424 562.142 158.242 561.663 155.879C561.364 156.667 560.945 157.394 560.466 158.061ZM563.279 152.121V152.182C563.579 155.03 564.177 157.576 565.075 159.818C565.973 157.576 566.511 155.03 566.631 152.121H563.279Z" fill="#97BCB3"/>
<path d="M615.718 46.277C615.584 45.8986 615.406 45.5676 615.227 45.2365L616.835 45C617.014 45.3784 617.148 45.8041 617.282 46.3243H623V47.6959H620.007C621.168 48.6892 622.107 49.5405 622.732 50.25L621.57 51.1014C621.258 50.723 620.945 50.3446 620.543 49.9662C618.175 50.1554 615.093 50.3446 611.385 50.4865L611.072 49.2568C611.34 49.2095 611.564 49.1622 611.742 49.0676C612.234 48.7365 612.814 48.2635 613.44 47.6959H610V46.277H615.718ZM613.395 59H612.055V51.0068H620.945V57.4865C620.945 58.4797 620.409 59 619.426 59H617.952L617.595 57.6284L618.979 57.6757C619.337 57.6757 619.56 57.4865 619.56 57.2027V56.5878H613.44V59H613.395ZM613.306 49.1622C615.674 49.0676 617.773 48.973 619.515 48.8311C619.247 48.5473 618.935 48.3108 618.622 48.027L619.247 47.6014H615.182C614.467 48.2635 613.842 48.7838 613.306 49.1622ZM619.56 52.2365H613.44V53.2297H619.56V52.2365ZM613.395 55.3581H619.515V54.4122H613.395V55.3581Z" fill="#B7D7CF"/>
<path opacity="0.6" d="M68.8272 162.696C68.4286 161.912 67.8804 161.225 67.2824 160.539L68.8272 160C69.4252 160.784 69.9734 161.667 70.4718 162.745H76.6512V164.265H74.1595C73.3621 166.716 72.2159 168.725 70.7209 170.343C72.4153 171.716 74.5083 172.843 77 173.725L76.1528 175C73.5615 174.02 71.3688 172.843 69.6246 171.422C67.7807 173.039 65.5382 174.216 62.8472 174.951L62 173.627C64.6412 172.941 66.7841 171.912 68.5282 170.441C66.7342 168.676 65.4884 166.618 64.7907 164.265H62.299V162.745H68.8272V162.696ZM69.5747 169.314C70.8704 167.892 71.8671 166.176 72.5149 164.167H66.2359C66.9336 166.127 68.0299 167.843 69.5747 169.314Z" fill="#B7D7CF"/>
<path opacity="0.7" d="M7.18527 469.784L9.09192 467.878C9.72747 467.242 9.72747 466.112 9.09192 465.477C8.45637 464.841 7.3265 464.841 6.69095 465.477L4.7843 467.383L2.87763 465.477C2.24208 464.841 1.11222 464.841 0.476664 465.477C-0.158888 466.112 -0.158888 467.242 0.476664 467.878L2.38332 469.784L0.476664 471.691C-0.158888 472.326 -0.158888 473.456 0.476664 474.092C0.829748 474.445 1.25345 474.586 1.67715 474.586C2.10085 474.586 2.52455 474.445 2.87763 474.092L4.7843 472.185L6.69095 474.092C7.04404 474.445 7.46774 474.586 7.89144 474.586C8.31514 474.586 8.73884 474.445 9.09192 474.092C9.72747 473.456 9.72747 472.326 9.09192 471.691L7.18527 469.784Z" fill="#97BCB3"/>
<path opacity="0.7" d="M621.185 517.784L623.092 515.878C623.727 515.242 623.727 514.112 623.092 513.477C622.456 512.841 621.327 512.841 620.691 513.477L618.784 515.383L616.878 513.477C616.242 512.841 615.112 512.841 614.477 513.477C613.841 514.112 613.841 515.242 614.477 515.878L616.383 517.784L614.477 519.691C613.841 520.326 613.841 521.456 614.477 522.092C614.83 522.445 615.253 522.586 615.677 522.586C616.101 522.586 616.525 522.445 616.878 522.092L618.784 520.185L620.691 522.092C621.044 522.445 621.468 522.586 621.891 522.586C622.315 522.586 622.739 522.445 623.092 522.092C623.727 521.456 623.727 520.326 623.092 519.691L621.185 517.784Z" fill="#97BCB3"/>
<path d="M507.907 21.8133C508.96 21.8133 509.813 20.9597 509.813 19.9067C509.813 18.8536 508.96 18 507.907 18C506.854 18 506 18.8536 506 19.9067C506 20.9597 506.854 21.8133 507.907 21.8133Z" fill="#97BCB3"/>
</svg>
