<svg width="29" height="28" viewBox="0 0 29 28" fill="none" xmlns="http://www.w3.org/2000/svg">
<path d="M28.0032 14.3229C28.0032 13.3712 27.9244 12.4144 27.7565 11.4781H14.2837V16.8692H21.9989C21.6788 18.6079 20.6501 20.146 19.1438 21.1234V24.6214H23.7467C26.4496 22.1831 28.0032 18.5822 28.0032 14.3229Z" fill="#4285F4"/>
<path d="M14.2838 27.9997C18.1361 27.9997 21.3849 26.76 23.752 24.62L19.1491 21.122C17.8685 21.9759 16.2152 22.4595 14.289 22.4595C10.5626 22.4595 7.40304 19.9954 6.26938 16.6826H1.51953V20.2887C3.94432 25.0161 8.88311 27.9997 14.2838 27.9997Z" fill="#34A853"/>
<path d="M6.26927 16.6836C5.67095 14.9449 5.67095 13.0622 6.26927 11.3234V7.71741H1.51943C-0.506475 11.6733 -0.506475 16.3338 1.51943 20.2897L6.26927 16.6836Z" fill="#FBBC04"/>
<path d="M14.2838 5.54118C16.3202 5.51032 18.2883 6.26136 19.7631 7.63999L23.8412 3.64299C21.259 1.2664 17.837 -0.0402097 14.2838 0.000943429C8.88311 0.000943429 3.94432 2.98454 1.51953 7.71715L6.26413 11.3232C7.3978 8.00523 10.5626 5.54118 14.2838 5.54118Z" fill="#EA4335"/>
</svg>
