<svg width="1440" height="823" viewBox="0 0 1440 823" fill="none" xmlns="http://www.w3.org/2000/svg"><g clip-path="url(#clip0_239_14)"><path fill="#EBF2F5" d="M0 0h1440v823H0z"/><g clip-path="url(#clip1_239_14)"><path fill="#EBF2F5" d="M540 0h360v823H540z"/><path d="M801.041-226.475c29.991 22.738 13.434 56.146 65.373 89.872 19.06 12.377 26.098 11.002 40.296 22.792 29.932 24.8526 40.613 65.8048 23.2 91.8026-35.873 53.5513-200.88 58.5211-311.256 38.907-24.28-4.3185-206.958-36.8009-211.33-112.5696-3.23-55.972 92.915-99.174 118.37-110.618 89.344-40.142 226.647-57.101 275.347-20.186z" fill="#fff"/></g><path d="M652.828 753.652L-50.7627 152.706V1030H652.828V753.652zM860.156 753.652L1462 152.706V1030H860.156V753.652z" fill="#fff"/><ellipse cx="696.023" cy="170.252" rx="765.023" ry="670.252" fill="#EBF2F5"/><path d="M576.194 910.256c-12.45-33.537-82.387-61.252-121.978-76.512-67.359-25.962-229.767-46.915-312.153 0-102.983 58.644-48.9741 113.622-16.706 125.763 32.268 12.141 69.023-37.465 100.466-49.251 53.78-20.159 94.515 19.242 108.933 64.829 20.431 64.595 77.58 98.045 103.898 107.665 26.318 9.62 92.227-9.62 117.172-43.07 24.945-33.44 35.929-87.503 20.368-129.424z" fill="#DCF0F6"/><path d="M510.682 783.463c7.735 1.199 16.046 6.171 19.718 15.698 3.815 9.845 1.802 21.372-.146 32.519-.229 1.303-.456 2.6-.671 3.885-2.877 17.134-.849 29.852 5.864 36.784 3.877 4.001 8.844 5.576 13.647 7.088 4.803 1.513 9.416 2.981 12.917 6.713 5.47 5.817 7.352 16.239 5.558 30.949-.182 1.512-.387 3.034-.587 4.569-1.342 10.126-2.732 20.584.565 30.121 1.213 3.426 2.977 6.516 5.186 9.087 2.208 2.57 4.817 4.567 7.669 5.872 8.093 3.616 16.86 1.191 25.339-1.15 9.306-2.568 18.092-4.998 25.779.09 6.2 4.108 10.478 12.946 11.44 23.641.679 7.545-.197 15.131-1.396 22.571h2.228c.897-5.61 1.593-11.32 1.593-17.08.004-1.933-.08-3.865-.251-5.786-1.04-11.572-5.74-21.18-12.578-25.709-8.388-5.567-18.008-2.913-27.293-.344-8.173 2.237-16.623 4.591-24.113 1.244-2.571-1.178-4.923-2.979-6.914-5.296-1.992-2.318-3.582-5.104-4.676-8.192-3.049-8.802-1.71-18.884-.419-28.64.204-1.544.408-3.079.594-4.605 1.907-15.662-.208-26.899-6.291-33.369-3.891-4.14-8.931-5.733-13.803-7.277-4.777-1.512-9.289-2.94-12.786-6.547-4.223-4.363-8.544-13.836-5.127-34.188.211-1.28.437-2.569.663-3.867 2.024-11.581 4.118-23.56 0-34.229-4.102-10.57-13.26-16.02-21.709-17.255v2.703z" fill="#fff"/><ellipse cx="696.023" cy="-647.748" rx="765.023" ry="670.252" fill="#fff"/></g><defs><clipPath id="clip0_239_14"><path fill="#fff" d="M0 0h1440v823H0z"/></clipPath><clipPath id="clip1_239_14"><path fill="#fff" transform="translate(540)" d="M0 0h360v823H0z"/></clipPath></defs></svg>