<svg width="281" height="332" viewBox="0 0 281 332" fill="none" xmlns="http://www.w3.org/2000/svg"><path d="M216.258 322.398c-29.541 5.346-59.441 8.55-89.459 9.586 0 0-118.05553 4.058-125.854381-116.693 0-1.694-.194971-3.419-.227466-5.176l-.194972-3.451v-3.771C-.062733 155.539 10.9207 107.162 33.4398 86.8074 46.178 75.3042 62.1981 69.8722 78.9331 67.6355c5.7814-1.3115 11.7182-1.8383 17.6449-1.5657h5.394c38.333-.1728 76.598 3.2078 114.286 10.0972 33.535 6.135 49.035 23.0062 56.379 45.31 7.344 22.303 6.499 51.125 7.572 79.275 1.819 50.135-3.218 110.526-63.951 121.646z" fill="#B9E1ED"/><path d="M42.9594 54.1807s-5.6241-5.1863-7.6483-7.5258c-.7308-.8443-2.119-.2022-1.938.902.0811.5024.2745 1.1462.6244 1.9666 0 0 1.5198 4.3158 6.0126 8.3518.0003.0023 2.9924-1.7369 2.9493-3.6946z" fill="#FFD37B"/><path d="M43.643 53.2647c-1.4054-1.2961-2.7927-2.611-4.1621-3.9447-.9306-.9058-1.8558-1.8218-2.7384-2.7785-.8421-.914-1.745-1.8031-3.0984-1.2562-2.4087.9744-1.1063 3.8833-.3153 5.5828 1.4127 3.0366 3.5426 5.6804 5.9979 7.9277.2674.2441.8237.3192 1.138.135 1.6385-.9677 3.5455-2.5369 3.6251-4.6025.0574-1.465-2.2044-1.7647-2.2605-.2907-.0313.8429-.6084 1.4587-1.2143 1.9859-.2579.2247-.5293.4352-.8098.6307-.0963.0671-.578.3681-.2489.1748.3793.045.7586.09 1.138.1349-2.0473-1.873-3.832-4.0987-5.0753-6.5946-.2102-.4237-.3982-.8528-.5737-1.2908-.0613-.1556-.7034-1.4897-.5418-1.6797-.065.0765.1272.2132.3101.4139 2.3377 2.5676 4.914 4.9365 7.4647 7.2881 1.0793.9957 2.4362-.8463 1.3647-1.8361z" fill="#856030"/><path d="M121.222 66.0942c1.198-.909 2.47-1.7544 3.893-2.2325 1.423-.4782 3.025-.556 4.403.047 1.376.6056 2.462 1.973 2.487 3.484.013.8157-.269 1.6113-.656 2.3294-1.249 2.3127-3.556 3.8977-6.015 4.7937-2.459.8959-5.091 1.1798-7.691 1.4592" fill="#F9E8BB"/><path d="M121.931 66.9927c1.798-1.3474 4.016-2.7713 6.375-2.2749 1.046.2199 2.042.9196 2.414 1.9591.39 1.0902-.136 2.2243-.751 3.1188-2.757 4.012-8.072 4.5734-12.49 5.045-1.46.1569-1.133 2.4258.324 2.2692 3.267-.3498 6.663-.7276 9.63-2.2616 2.443-1.2642 4.817-3.3638 5.535-6.1328.723-2.7952-1.19-5.4378-3.87-6.152-3.157-.8425-6.129.7943-8.587 2.6326-1.174.88.243 2.677 1.42 1.7966z" fill="#856030"/><path d="M56.0901 64.2081c-.2236-7.8535 4.3636-15.3041 10.6484-19.963 6.2848-4.6589 14.0767-7.8742 21.8178-8.9029 5.7263-.7595 11.7207.1262 17.0877 2.2808 6.813 2.7339 11.809 8.9139 14.742 15.6802 2.117 4.8853 3.316 10.3011 2.539 15.5704-.803 5.4422-3.692 10.4391-7.555 14.3301-3.863 3.891-8.662 6.738-13.687 8.9089-18.706 8.0824-40.708 6.8167-59.4047-1.3187-5.2898-2.3025-10.6671-5.4423-13.2029-10.6493-1.9264-3.9562-1.932-8.5965-1.2161-12.94.9768-5.9143 3.553-12.0888 8.4245-15.7985 4.6767-3.5589 11.6983-4.5164 15.9718.2714 2.9578 3.3144 3.4669 8.0953 3.8345 12.5306z" fill="#F9E8BB"/><path d="M57.2178 64.0458c-.161-8.284 5.1135-15.4515 11.6689-19.9247 7.5495-5.1512 17.185-8.5601 26.389-7.7938 4.426.3679 9.1143 1.5086 12.9403 3.8552 3.459 2.1213 6.261 5.1385 8.458 8.5415 4.916 7.6159 7.225 17.4827 3.301 25.9936-3.881 8.4143-12.046 13.6912-20.345 17.0119-8.2841 3.314-17.2608 4.8286-26.166 4.7025-8.8888-.1238-17.7522-1.7914-26.1089-4.8404-7.6788-2.7993-16.934-6.8352-18.5078-15.8885-.7749-4.4509-.0322-9.2823 1.4427-13.5173 1.3429-3.8548 3.518-7.5075 6.8235-9.9681 2.7085-2.0157 6.2632-3.1365 9.6223-2.4714 4.0959.8115 6.4631 4.4379 7.3701 8.3.4856 2.0746.6799 4.2051.8588 6.3239.1208 1.4717 2.3755 1.1425 2.2531-.3244-.3829-4.5744-.9274-9.6675-4.1788-13.199-2.6354-2.8629-6.4442-4.0006-10.2418-3.4353-8.8509 1.3158-13.9761 9.8166-15.742 17.938-1.0534 4.8483-1.2864 10.2664.8012 14.8826 1.8628 4.1228 5.4122 7.0834 9.2518 9.2727 8.2785 4.7231 18.0453 7.4116 27.4421 8.5925 9.6618 1.2145 19.5946.6878 28.9922-1.9226 9.2875-2.5783 18.7895-7.031 24.9335-14.7475 2.847-3.5757 4.909-7.8582 5.581-12.4108.771-5.2153-.324-10.5672-2.298-15.399-1.714-4.1952-4.154-8.184-7.357-11.3982-3.274-3.2851-7.147-5.4858-11.576-6.7867-9.9203-2.9119-20.3061-1.1273-29.4551 3.4298-8.0163 3.9956-15.2759 10.2237-17.6718 19.2186-.551 2.0687-.7779 4.151-.7367 6.2896.0287 1.4711 2.2821 1.1328 2.2554-.3247z" fill="#856030"/><path d="M106.112 55.1798c.956-.1377 1.62-1.0296 1.482-1.9921-.137-.9625-1.024-1.6311-1.981-1.4934-.957.1377-1.621 1.0296-1.483 1.9921.138.9625 1.025 1.6311 1.982 1.4934zM84.9925 59.9988c.9566-.1377 1.6205-1.0296 1.4828-1.9921-.1378-.9625-1.0249-1.6311-1.9815-1.4934-.9566.1378-1.6204 1.0296-1.4827 1.9921.1377.9625 1.0248 1.6311 1.9814 1.4934z" fill="#603711"/><path d="M116.643 57.6913c-.206-1.5856-2.607-2.5788-5.364-2.2185-2.756.3604-4.823 1.9379-4.617 3.5235.206 1.5856 2.608 2.5788 5.364 2.2185 2.756-.3604 4.824-1.9379 4.617-3.5235z" fill="#F9C2C2"/><path d="M109.835 57.3582c.587.8535 1.172 1.7072 1.759 2.5584.084.1199.166.2424.25.3624.104.1517.343.1659.479.0559.153-.1216.161-.3287.056-.4827-.587-.8534-1.172-1.7072-1.759-2.5583-.084-.12-.166-.2425-.25-.3624-.104-.1517-.343-.1659-.48-.056-.153.1216-.16.3288-.055.4827zM112.073 56.6909c.587.8534 1.172 1.7072 1.759 2.5583.084.12.166.2425.25.3624.104.1517.344.1659.48.056.153-.1216.16-.3288.055-.4827-.587-.8535-1.172-1.7072-1.759-2.5584-.084-.1199-.166-.2424-.249-.3624-.105-.1517-.344-.1659-.48-.0559-.153.1216-.16.3287-.056.4827z" fill="#EF9292"/><path d="M88.3193 66.0123c-.1786-2.0266-3.1798-3.4172-6.7034-3.1059-3.5235.3113-6.2351 2.2066-6.0565 4.2332.1786 2.0266 3.1798 3.4172 6.7034 3.1059 3.5236-.3113 6.2352-2.2066 6.0565-4.2332z" fill="#F9C2C2"/><path d="M79.0369 65.2468c.7004 1.115 1.3983 2.2281 2.0987 3.3431.1011.1592.1998.3187.3009.4778.0984.1572.3478.163.4798.056.1568-.1268.1537-.3255.0553-.4827-.7005-1.1151-1.3984-2.2281-2.0988-3.3431-.101-.1592-.1998-.3187-.3008-.4778-.0985-.1572-.3479-.163-.4799-.056-.1594.1248-.154.3232-.0552.4827zM81.9152 64.5173c.7005 1.1151 1.3983 2.2281 2.0988 3.3432.101.1591.1998.3186.3008.4777.0985.1572.3479.163.4799.056.1568-.1268.1537-.3255.0552-.4827-.7004-1.115-1.3983-2.2281-2.0987-3.3431-.1011-.1592-.1998-.3187-.3009-.4778-.0984-.1572-.3478-.163-.4798-.056-.1572.1245-.1537.3255-.0553.4827z" fill="#EF9292"/><path d="M101.652 58.3671l-7.596 2.2654c-.3399.1022-.5058.4874-.3408.8041.5089.9828 1.898 2.6796 5.1964 1.6975 0 0 4.2544-.8464 3.4574-4.3237-.075-.3319-.395-.5406-.717-.4433z" fill="#F9C2C2"/><path d="M75.4329 38.9801s-5.2561-6.9577-18.6686-5.0268C43.3519 35.8841 39.9038 44.25 40.082 51.4801c0 0-.8335 6.4818 7.7722 6.3963 0 0 6.9127.0354 8.9424-1.2873.0003.0022 2.6758-12.1061 18.6363-17.609z" fill="#94CFB4"/><path d="M76.3247 38.268c-.898-1.1769-2.2093-2.1206-3.46-2.8669-3.2971-1.9687-7.1227-2.8538-10.9323-2.9191-8.7406-.1498-18.8832 3.0612-21.9818 12.1479-1.5554 4.557-2.2334 11.5144 3.3633 13.6777 3.0677 1.1865 7.0615.8015 10.2534.3628 1.4425-.1984 3.7647-.4099 4.3624-1.9434.071-.1793-.1063.3186.0324-.1112.0909-.2818.1773-.5629.2756-.841 2.8277-7.8435 10.0712-13.0897 17.651-15.7441 1.3832-.484.468-2.5848-.9129-2.1011-8.0295 2.8094-15.5807 8.4473-18.726 16.6445-.233.6079-.4427 1.2333-.5864 1.87.1412-.2519.2804-.5012.4216-.7531-.8727.5286-2.1235.6183-3.1068.7437-1.2276.1558-2.464.2342-3.6984.2776-.852.03-1.0347.0401-1.8223.0215-1.3534-.0321-2.7779-.2069-3.986-.8644-1.3233-.7219-2.078-1.9913-2.2423-3.3803-.0139-.1138-.0408-.7839-.0391-.4344-.0005-.132.0152-.2639.0173-.3939.0191-.8319.0092-1.6572.0882-2.4884.457-4.7533 2.9219-8.9062 7.0653-11.3184 2.8984-1.6863 6.2198-2.5072 9.5233-2.8902 3.0612-.355 6.2106-.2873 9.2079.4878 2.0626.5322 4.0653 1.4181 5.7749 2.7005.2683.2022.5308.4122.7859.6349.1184.1034.2323.2074.3464.3137.1278.1206-.0903-.1005.0968.0972.152.1611.3084.3216.4417.4969.8971 1.1701 2.6821-.2541 1.7869-1.4268z" fill="#856030"/><path d="M69.2205 36.2199s-1.7279 3.85-5.9995 3.5965c0 0-3.9048-.2322-4.4277-4.9486-.0019.0026 6.0456-.5878 10.4272 1.3521zM48.3614 37.8654s3.0571 3.9116.6962 7.3432c-2.1914 3.1849-7.2231 1.1093-7.2231 1.1093s1.2081-5.6326 6.5269-8.4525zM65.4622 42.9166s-4.8252-2.4017-7.8808 1.0813c0 0-2.155 2.8276.9633 6.105 0 0 2.4412-3.9967 6.9175-7.1863zM56.2839 54.6805s-12.9576.0103-15.0562-3.8145c0 0-.333 2.3383.7909 3.7097 1.1238 1.3714 2.6641 2.5322 8.5819 2.0972 0 0 4.3319-.2901 5.2067-.8839.0023-.0003.3115-.7188.4767-1.1085z" fill="#79B38E"/><path d="M29.4416 62.7112c-1.0279-.5398-2.2069-.7036-3.365-.7546-2.2494-.1-4.6983.2873-6.2765 1.9018-1.7167 1.7571-1.9346 4.6579-.8946 6.8912 1.04 2.2334 3.1424 3.8321 5.4254 4.7309 2.2831.8988 4.7592 1.1676 7.2045 1.3343" fill="#F9E8BB"/><path d="M29.8687 61.6491c-2.6437-1.2637-6.5089-1.2353-9.1202.1248-2.5449 1.3252-3.8005 3.9724-3.5796 6.8031.2274 2.9085 2.1715 5.3961 4.5845 6.8806 2.9078 1.7908 6.2941 2.2598 9.6354 2.4944 1.4601.1025 1.7516-2.172.2869-2.2738-4.3786-.3099-10.8802-1.2522-12.107-6.4647-.5002-2.1282.2273-4.4122 2.2499-5.4143 2.0828-1.0317 5.109-1.0204 7.1917-.0256 1.3293.6354 2.1803-1.4927.8584-2.1245z" fill="#856030"/><path d="M58.7482 92.6449c-1.1 2.8332-.9677 6.2834-.2644 8.8821.3963 1.467 1.4831 2.902 2.585 3.943 1.5893 1.503 3.7835 2.473 5.9419 2.178 2.2144-.305 3.927-2.283 4.5359-4.446.609-2.163.3123-4.4777-.1566-6.6775-.3323-1.5664-.7474-3.1162-1.2459-4.6378" fill="#F9E8BB"/><path d="M57.6915 92.2133c-1.1735 3.1889-1.3148 7.2529-.0243 10.4487 1.2575 3.11 4.4644 5.832 7.836 6.151 3.4928.328 6.3078-2.166 7.1731-5.466 1.0205-3.8869-.2985-8.2154-1.4867-11.9189-.4491-1.4013-2.5362-.4802-2.0878.9166.935 2.9155 1.955 6.2634 1.5806 9.3583-.3322 2.729-2.2662 5.236-5.2274 4.794-6.0662-.908-7.4352-8.562-5.6487-13.4186.5063-1.3837-1.604-2.2494-2.1148-.8651z" fill="#856030"/><path d="M131.535 49.6c2.456 0 4.447-2.0033 4.447-4.4744 0-2.4712-1.991-4.4744-4.447-4.4744s-4.447 2.0032-4.447 4.4744c0 2.4711 1.991 4.4744 4.447 4.4744zM135.089 20.8458c1.819 0 3.294-1.4839 3.294-3.3144 0-1.8304-1.475-3.3143-3.294-3.3143s-3.294 1.4839-3.294 3.3143c0 1.8305 1.475 3.3144 3.294 3.3144z" fill="#7AB6C8" opacity=".63"/><path d="M144.029 40.703c4.678 0 8.471-3.8157 8.471-8.5226 0-4.7069-3.793-8.5226-8.471-8.5226s-8.47 3.8157-8.47 8.5226c0 4.7069 3.792 8.5226 8.47 8.5226z" fill="#4D757E" fill-opacity=".7" opacity=".63"/><path d="M8.66366 26.9095c.01321.0831.00991.1629-.00661.2426-.11564.5718-.53193 2.9719.74999 2.071 1.45046-1.0205 2.90086-1.7518 4.35126-.7313.9416.6648 2.4978 1.0804 3.4724 1.2931.4163.0898.6443.5252.5088.9341-.2114.6316-.2114 1.4228 1.0969 1.4228 2.1773 0 2.1773-2.1873 5.0749-2.1873 2.2202 0 3.9085-1.7087 4.5792-2.5131.1982-.2394.2214-.5785.0496-.8411-.6344-.9673-2.3524-3.2145-4.6288-3.2145-2.9009 0-2.9009-2.9186-5.0749-2.9186-1.414 0-1.2951.9241-1.0407 1.5723.1388.3491-.0363.748-.3833.8975-1.2984.5552-2.5275 1.2699-3.6541 2.1275-1.4504 1.3131-2.9008.3657-4.35126-.9474-1.30174-1.1834-.84911 2.1043-.74338 2.7924z" fill="#D7813C"/><path d="M24.0759 26.6569c.6377 0 .6377-.9973 0-.9973s-.6377.9973 0 .9973z" fill="#fff"/><path d="M27.0165 4.25485c-.0342.08888-.0855.1663-.151.23511-.4873.5333-2.5847 2.94173-.5557 2.80411 2.2826-.15483 4.3685.01434 5.2947 2.11885.6241 1.41928 2.1544 2.98758 3.0834 3.85918.3533.3298.3191.8946-.0599 1.1957-.6925.5505-1.3536 1.468.1653 2.3912 2.4051 1.4623 3.8585-.9576 7.0644.992 2.502 1.5225 5.6993.7799 6.9817.3814.3448-.109.5699-.4416.5443-.8057-.1026-1.4852-.6098-5.2842-3.1632-6.8354-3.2059-1.94965-1.2681-5.17524-3.6732-6.6375-1.6101-.97771-2.0746.2179-2.2057 1.11533-.0627.43295-.4531.73687-.8834.67379-1.8437-.27812-3.716-.31826-5.574-.12042-2.4763.47595-3.4481-1.54541-4.1804-3.97392-.6612-2.193395-2.3653 1.81493-2.6873 2.60627z" fill="#5281BD"/><path d="M45.7445 14.9552c.55 0 .55-.8602 0-.8602s-.55.8602 0 .8602z" fill="#fff"/></svg>