<svg width="486" height="475" viewBox="0 0 486 475" fill="none" xmlns="http://www.w3.org/2000/svg"><g filter="url(#filter0_d_220_1286)"><path d="M363.672 434.438c-47.054 8.723-94.681 13.95-142.496 15.64 0 0-188.0453 6.621-200.4678-190.393 0-2.764-.3105-5.579-.3623-8.446l-.3106-5.631v-6.151c-.9317-77.263 16.5633-156.1942 52.4332-189.4036 20.29-18.7683 45.8075-27.6311 72.4645-31.2805 9.209-2.1397 18.665-2.9992 28.106-2.5545h8.592c61.059-.282 122.009 5.2339 182.041 16.4743 53.416 10.0098 78.106 37.5366 89.804 73.9263 11.697 36.389 10.352 83.414 12.06 129.345 2.898 81.798-5.125 180.331-101.864 198.474z" fill="#B9E1ED"/></g><defs><filter id="filter0_d_220_1286" x="-1" y="0" width="487" height="475" filterUnits="userSpaceOnUse" color-interpolation-filters="sRGB"><feFlood flood-opacity="0" result="BackgroundImageFix"/><feColorMatrix in="SourceAlpha" values="0 0 0 0 0 0 0 0 0 0 0 0 0 0 0 0 0 0 127 0" result="hardAlpha"/><feOffset dy="4"/><feGaussianBlur stdDeviation="10"/><feComposite in2="hardAlpha" operator="out"/><feColorMatrix values="0 0 0 0 0.8 0 0 0 0 0.8 0 0 0 0 0.8 0 0 0 0.5 0"/><feBlend in2="BackgroundImageFix" result="effect1_dropShadow_220_1286"/><feBlend in="SourceGraphic" in2="effect1_dropShadow_220_1286" result="shape"/></filter></defs></svg>