<svg width="281" height="332" viewBox="0 0 281 332" fill="none" xmlns="http://www.w3.org/2000/svg"><path d="M274.423 211.565c-2.385 17.211-5.963 35.455-17.381 49.511-9.748 11.962-24.118 18.445-38.607 23.58l-88.631 25.358c-12.173 2.428-24.505 4.048-36.908 4.848-43.0787 2.524-66.2428-29.976-76.6771-65.977C4.92005 209.758-3.51681 155.112 1.46183 115.296 3.84681 96.1627 11.4191 77.4883 26.3551 64.2356 45.733 47.0242 72.3553 43.1229 97.7255 43.0082c39.9185-.1995 79.7665 3.239 119.0105 10.2695 30.468 5.4502 55.093 12.8798 60.31 45.7249 5.814 36.4024 2.027 76.1894-2.623 112.5624z" fill="#FEF6C7"/><path d="M260.784 58.4304c.942.1449 2.414 1.0417 2.712 1.9428.298.9012.043 1.9602-.628 2.636-.577.5814-1.391.8584-2.184 1.0693-4.059 1.0746-8.448.8496-12.366-.6344" fill="#fff"/><path d="M260.673 59.4716c1.089.2195 2.314 1.1514 1.74 2.3693-.615 1.3009-2.95 1.4872-4.18 1.6644-3.218.4617-6.485.0851-9.524-1.0337-1.271-.4686-2.05 1.4866-.775 1.9568 4.301 1.5843 9.203 1.8823 13.616.4821 1.943-.616 3.44-2.261 3.07-4.4008-.3-1.7241-2.123-2.8066-3.72-3.1264-1.328-.2673-1.549 1.8233-.227 2.0883z" fill="#856030"/><path d="M185.944 40.9102c-.354-.7379-1.183-1.1412-1.992-1.2795-.81-.139-1.641-.0669-2.463-.1399-1.759-.158-3.38-.9773-4.953-1.7716-.105-.0518-.226-.1058-.336-.0627-.078.0306-.128.1059-.172.1769-.445.7524-.473 1.6967-.238 2.5351.235.8384.71 1.5897 1.23 2.2908 1.142 1.5408 2.554 2.9203 4.275 3.7766 1.722.8563 3.777 1.1494 5.608.5401" fill="#F4EAE1"/><path d="M186.912 40.4835c-.675-1.145-1.705-1.7369-3.021-1.9252-1.591-.2272-3.022-.0938-4.56-.6955-.948-.3703-2.479-1.6223-3.55-1.1685-1.143.4842-1.285 2.3399-1.134 3.3585.384 2.5749 2.718 5.0574 4.777 6.492 2.333 1.6263 5.139 2.2237 7.894 1.3916 1.3-.3939.448-2.3128-.84-1.9229-2.378.7183-4.834-.2715-6.635-1.8109-1.139-.9732-4.4-4.2587-2.798-5.9176-.229.137-.455.2728-.683.4099-.521.0148.627.4242.805.5115.343.1647.687.3254 1.036.4725.725.304 1.471.5485 2.243.7105 1.182.2488 3.813-.2721 4.526.94.681 1.152 2.625.319 1.94-.8459z" fill="#856030"/><path d="M204.406 15.27c-8.437 2.9681-15.477 10.011-17.95 18.6115-.067.2313-.13.4642-.19.6978-2.941 11.4743 2.543 24.5364 12.802 30.4929 8.148 4.7299 18.128 5.0062 27.553 4.3021 6.981-.5214 13.98-1.5252 20.586-3.8417 6.607-2.3185 12.837-6.02 17.4-11.3128-11.742-7.3516-14.771-23.4926-25.431-32.3218-4.701-3.8939-10.573-6.04-16.53-7.1813-5.441-1.0403-10.828-1.5174-16.233-.0682-.677.1815-1.346.3887-2.007.6215z" fill="#fff"/><path d="M204.005 14.3085c-8.213 2.9504-15.154 9.5446-18.064 17.7896-2.655 7.5135-1.681 15.9888 2.097 22.9223 1.865 3.4224 4.365 6.4818 7.435 8.9044 3.704 2.9242 8.167 4.7201 12.766 5.7247 4.921 1.0731 10 1.1983 15.022.9781 5.035-.2195 10.092-.7192 15.045-1.6684 10.195-1.9524 20.197-6.1751 27.133-14.1329.355-.4088.246-1.1803-.208-1.4695-8.161-5.1807-12.049-14.46-17.035-22.314-2.542-4.0039-5.475-7.8363-9.287-10.7279-4.793-3.6359-10.607-5.6225-16.486-6.7197-6.173-1.1503-12.399-1.3663-18.418.7133-1.286.4444-.439 2.3651.84 1.9223 5.3-1.8324 10.836-1.67 16.288-.7362 5.816.9937 11.591 2.832 16.35 6.387 7.502 5.6043 11.196 14.6253 16.159 22.2494 2.75 4.2244 6.015 8.177 10.32 10.9074-.069-.4895-.14-.9799-.209-1.4694-5.779 6.6344-14.021 10.5671-22.469 12.6041-4.502 1.0859-9.107 1.6958-13.715 2.0788-4.765.3964-9.569.5655-14.33.065-4.758-.5016-9.534-1.7059-13.671-4.1434-3.141-1.8495-5.815-4.3688-7.919-7.3289-4.262-5.9944-6.083-13.7329-4.59-20.9793 1.876-9.1077 9.123-16.52 17.788-19.6337 1.281-.46.434-2.3807-.842-1.9231z" fill="#856030"/><path opacity=".3" d="M233.55 19.507s8.376 16.4835-3.45 33.1441c0 0-5.996 8.9648-13.968 15.8626 0 0 19.018.2374 28.401-3.1692 0 0 10.927-2.6635 18.562-10.9066 0 0-4.741-3.0647-9.657-10.6101.017-.122-3.529-6.323-7.626-12.5021-.001.0019-4.611-7.9785-12.262-11.8187z" fill="#FFBF8F"/><path d="M220.058 27.3514c2.147.3774 3.522 1.7636 4.913 3.3256.898 1.0064 2.563-.2949 1.662-1.3047-1.801-2.0217-3.597-3.6277-6.35-4.1098-1.335-.2359-1.559 1.8557-.225 2.0889zM196.195 26.6519c.674-.4521 1.56-.609 2.345-.388.548.1542 1.145-.0317 1.369-.5972.194-.4891-.043-1.2045-.594-1.3594-1.549-.4345-3.079-.2024-4.422.6987-1.13.76.181 2.4004 1.302 1.6459zM204.719 29.2533c2.161 1.639 5.788 2.1783 8.154.578 1.13-.7632-.184-2.4056-1.303-1.6471-.682.4626-1.998.5005-2.799.4581-1.042-.0543-1.96-.4539-2.779-1.0748-1.084-.821-2.352.867-1.273 1.6858z" fill="#856030"/><path d="M213.209 14.8395s2.004 5.1724 8.767 4.0089c0 0 2.155-.7933 3.53 2.1023 0 0 2.405 4.3513 6.643 2.664 0 0 2.309-1.3013 3.248-3.0506 0 0-4.945-3.1848-11.573-4.5613 0 0-6.276-1.2977-10.615-1.1633z" fill="#FFBF8F"/><path d="M263.992 53.0319s-1.109-4.6318.164-9.7732c0 0 7.547 2.0455 8.896 9.483 0 0-4.728 2.9796-7.903 1.3604" fill="#fff"/><path d="M265.035 52.8692c-.721-3.0788-.551-6.4439.175-9.503-.48.2901-.957.5809-1.437.871 4.075 1.1193 7.431 4.5354 8.232 8.668.131-.3286.261-.6573.392-.9879-.042.0265.217-.085-.009.0056-.175.0698-.343.1917-.511.2778-.577.2999-1.17.5638-1.782.7868-1.469.5356-3.104.8243-4.562.1385-1.226-.5754-1.998 1.3824-.776 1.9562 2.86 1.345 6.417.0577 8.942-1.5193.302-.1899.456-.6536.392-.9879-.934-4.8094-4.753-8.9784-9.544-10.2948-.719-.1978-1.269.16-1.437.871-.763 3.2095-.92 6.8147-.163 10.0475.307 1.3064 2.395.9909 2.088-.3295z" fill="#856030"/><path d="M265.46 52.987c.942-1.1816 1.423-2.6888 1.766-4.1352.195-.8252.35-1.6683.425-2.5135.027-.3007-.443-.3526-.471-.048-.07.7996-.218 1.6006-.394 2.3836-.322 1.4069-.788 2.8864-1.703 4.0335-.191.2367.188.5171.377.2796z" fill="#FFBF8F"/><path d="M269.713 48.6713c-.146.57-.479 1.1128-.829 1.579-.928 1.2339-2.277 2.0359-3.744 2.4833-.294.0891-.1.5204.188.4318 2.005-.6108 3.849-1.9488 4.679-3.9156.054-.1321.111-.2682.146-.4079.076-.2905-.364-.4637-.44-.1706z" fill="#FFBF8F"/><path d="M240.472 52.7776s8.788 2.1917 7.714 12.4369c0 0-.154 5.7101 3.433 6.4042 0 0-13.768 4.6157-20.301-8.5877 0 0-.361-.3544-.861-3.7081" fill="#F4EAE1"/><path d="M240.091 53.7537c1.972.4993 3.809 1.786 5.066 3.3645 1.33 1.6726 1.969 3.7405 2.06 5.8598.069 1.5981-.173 3.0824.139 4.6733.462 2.3472 1.663 4.4436 4.144 5.0074-.101-.6694-.204-1.3368-.305-2.0062-.097.0324-.323.0438-.019.0084-.224.0261-.46.1242-.679.1745-.717.1687-1.444.2929-2.173.3798-2.323.2767-4.738.1518-6.977-.5324-3.083-.944-5.641-2.8789-7.509-5.4806-.59-.8225-1.081-1.6908-1.545-2.5889-.352-.6831.043.2156-.104-.196-.374-1.0393-.515-2.1689-.68-3.2557-.203-1.3341-2.291-1.0093-2.086.3303.222 1.4634.408 3.0168 1.119 4.3315 1.453 2.6908 3.312 5.1264 5.886 6.8439 3.676 2.4525 8.216 3.1721 12.565 2.5801 1.024-.1394 2.058-.3456 3.043-.6719 1.122-.3727.59-1.8029-.305-2.0062-1.773-.4037-2.261-2.6796-2.428-4.2074-.026-.2427-.063-.722-.063-.8304 0 .0471.01-.2875.017-.373.086-1.3324.116-2.653-.101-3.9745-.6-3.6627-2.845-6.7153-6.102-8.4746-.687-.3706-1.418-.722-2.18-.914-1.305-.326-2.097 1.6266-.783 1.9583z" fill="#856030"/><path d="M239.313 57.1128c.181 4.5603 3.424 8.0747 6.387 11.2229.46.4902 1.293-.1594.83-.6531-2.845-3.0233-6.003-6.3513-6.175-10.7343-.025-.6735-1.068-.5051-1.042.1645zM234.986 61.4716c1.778 3.2914 4.833 5.4428 7.88 7.4827.56.3758 1.198-.4657.635-.8424-2.877-1.9263-5.862-3.9491-7.546-7.0614-.319-.5915-1.291-.1739-.969.4211zM178.447 41.4882c1.013 1.3675 2.632 2.8936 4.402 3.1339.674.0919.786-.9535.113-1.0455-1.477-.2011-2.849-1.6131-3.685-2.7422-.401-.5424-1.232.1113-.83.6538z" fill="#FFBF8F"/><path d="M156.497 56.531c-.018.106-.013.2077.008.3094.149.729.687 3.7891-.969 2.6405-1.875-1.3012-3.749-2.2336-5.623-.9324-1.217.8476-3.228 1.3774-4.488 1.6487-.538.1144-.832.6696-.657 1.191.273.8053.273 1.814-1.418 1.814-2.813 0-2.813-2.7889-6.558-2.7889-2.869 0-5.051-2.1785-5.918-3.2041-.256-.3052-.286-.7375-.064-1.0723.82-1.2334 3.04-4.0985 5.982-4.0985 3.749 0 3.749-3.7213 6.558-3.7213 1.828 0 1.674 1.1783 1.345 2.0047-.179.4451.047.9537.496 1.1444 1.677.7078 3.266 1.619 4.722 2.7125 1.874 1.6742 3.748.4663 5.623-1.2079 1.682-1.5088 1.097 2.6829.961 3.5602z" fill="#D7813C"/><path d="M136.578 56.2089c-.824 0-.824-1.2715 0-1.2715s.824 1.2715 0 1.2715z" fill="#fff"/><path d="M147.107 37.4304c-.068.1234-.107.2554-.122.3954-.137 1.0619-.859 5.7398-2.659 3.2974-2.025-2.7476-4.229-4.9634-7.52-4.019-2.219.6375-5.482.3842-7.371.154-.716-.0893-1.327.4863-1.304 1.2042.04 1.3119-.367 2.9369-2.884 2.0837-3.986-1.3508-2.63-5.3059-7.943-7.1059-4.148-1.404-6.385-5.7523-7.167-7.5919-.209-.4964-.047-1.0689.393-1.3856 1.791-1.2943 6.609-4.326 10.838-2.8909 5.313 1.8 7.12-3.4725 11.105-2.1216 2.667.9053 1.753 2.5705.856 3.5726-.432.4828-.402 1.2163.085 1.6466 2.095 1.8364 3.946 3.9313 5.512 6.236 1.846 3.2736 5.086 2.4601 8.56.9871 3.136-1.3308.213 4.4191-.379 5.5379z" fill="#5281BD"/><path d="M116.856 26.2684c-.53-.6266.45-1.444.981-.8173.53.6267-.45 1.444-.981.8173z" fill="#fff"/></svg>