<svg width="486" height="474" viewBox="0 0 486 474" fill="none" xmlns="http://www.w3.org/2000/svg"><g filter="url(#filter0_d_220_1280)"><path d="M457.116 284.96c-3.799 27.463-9.497 56.573-27.685 79-15.528 19.087-38.416 29.431-61.495 37.624l-141.178 40.461c-19.389 3.873-39.031 6.458-58.788 7.735-68.6182 4.028-105.5153-47.83-122.1356-105.272-17.9975-62.431-31.4362-149.624-23.5059-213.153 3.7989-30.529 15.8605-60.3258 39.6513-81.4718C92.8462 22.421 135.252 16.1962 175.663 16.0131c63.584-.3183 127.056 5.1681 189.567 16.3858 48.531 8.6964 87.755 20.551 96.065 72.9581 9.26 58.083 3.229 121.566-4.179 179.603z" fill="#FEF6C7"/></g><defs><filter id="filter0_d_220_1280" x="-1" y="-1" width="487" height="476" filterUnits="userSpaceOnUse" color-interpolation-filters="sRGB"><feFlood flood-opacity="0" result="BackgroundImageFix"/><feColorMatrix in="SourceAlpha" values="0 0 0 0 0 0 0 0 0 0 0 0 0 0 0 0 0 0 127 0" result="hardAlpha"/><feOffset dy="4"/><feGaussianBlur stdDeviation="10"/><feComposite in2="hardAlpha" operator="out"/><feColorMatrix values="0 0 0 0 0.8 0 0 0 0 0.8 0 0 0 0 0.8 0 0 0 0.5 0"/><feBlend in2="BackgroundImageFix" result="effect1_dropShadow_220_1280"/><feBlend in="SourceGraphic" in2="effect1_dropShadow_220_1280" result="shape"/></filter></defs></svg>