<svg width="800" height="219" viewBox="0 0 800 219" fill="none" xmlns="http://www.w3.org/2000/svg"><g filter="url(#filter0_d_220_1292)" fill="#FFE7C1"><path d="M60.0009 122.889c.0824 6.32 1.39 12.633 3.9162 18.906 1.5004 5.213 5.475 10.333 11.8007 15.201 3.0119 2.297 7.363 4.41 12.845 6.239 5.5706 1.724 11.8742 3.215 18.7452 4.434 10.131 1.766 20.592 3.352 31.329 4.75l12.167 1.694 133.306 9.295c23.445 2.914 47.673 5.511 71.117 8.028l6.893.744c13.019 1.394 25.986 2.814 38.9 4.26 12.114 1.362 25.116 2.803 38.013 4.148 24.228 2.534 43.078 4.244 61.145 5.558 11.33.824 21.512 1.441 31.016 1.885 5.691.269 10.756.475 15.664.633 4.909.158 8.929.285 13.472.333h4.438c11.431.055 22.791-.552 33.47-1.79 5.488-.651 10.738-1.474 15.665-2.454 4.804-.986 9.312-2.099 13.472-3.325 8.493-2.605 15.767-5.552 21.617-8.757 6.266-3.404 11.61-6.958 15.978-10.625 7.258-5.937 12.793-12.129 18.223-18.13l3.812-4.544 3.916-4.212c3.812-4.086 7.676-8.329 11.331-12.509 6.057-7.047 10.443-12.858 13.889-18.273 4.016-6.079 6.876-12.222 8.563-18.4 1.728-6.1272 1.728-12.288 0-18.4152-.522-1.5835-1.148-3.1669-1.775-4.5287-.627-1.3617-1.253-2.4226-2.193-3.5152-1.616-2.0293-3.999-3.9952-7.101-5.8587-2.893-1.7141-6.49-3.3102-10.705-4.7503-4.059-1.3556-8.613-2.5668-13.576-3.6103-10.416-2.147-21.939-3.7525-34.096-4.7503-12.91-1.0477-26.104-1.7419-39.423-2.0743-11.644-.3008-24.437-.4592-40.363-.475h-4.595c-19.476 0-40.153.1583-61.353.475-48.612.7126-96.494 2.1377-132.732 3.2936-17.126.5383-34.201 1.1084-51.327 1.6784l-14.934.5067-6.579.2217c-8.772.285-17.492.5859-26.108.8551-10.13.3325-20.26.6175-30.807.9025-19.007.5384-40.624 1.1559-61.719 2.0902-11.383.5067-21.408 1.045-30.755 1.6626-5.639.3642-10.756.7283-15.664 1.1242-4.909.3959-8.459.6809-12.323 1.0926-6.84.6913-13.407 1.61-19.581 2.7393-5.574 1.0241-10.6973 2.2585-15.247 3.6736-4.4348 1.3842-8.2768 2.9323-11.4353 4.6078-3.2988 1.7535-5.9934 3.6053-8.0411 5.5262-2.265 2.1544-4.0101 4.3559-5.2216 6.5871-1.4097 2.676-2.6629 5.5574-3.7595 8.7884-2.2301 6.332-3.3282 12.696-3.2896 19.064zM741.545.00008c.433-.002206.865.041586 1.289.130628 1.094.311939 2.09.896492 2.893 1.698182 1.02.95524 1.826 2.11227 2.368 3.39635.56 1.39807.863 2.88471.894 4.38914.058 1.60902-.111 3.21812-.5 4.78102-.382 1.7334-.919 3.4296-1.604 5.0684-1.598 3.7942-3.562 7.4253-5.866 10.8422-2.389 3.676-4.971 7.2253-7.733 10.6332-2.394 2.9784-4.972 6.009-7.891 9.1963-2.473 2.7955-5.077 5.5387-7.05 7.6026-.213.1773-.485.2703-.763.2613-.256 0-.505-.0825-.71-.2351-.226-.0611-.427-.1886-.579-.3658-.104-.1166-.184-.2532-.234-.4015-.049-.1482-.068-.305-.055-.4606.631-3.318 1.342-6.8973 2.262-10.4504.29-1.2018.632-2.3774.974-3.5792v-.4703c.683-2.4036 1.394-4.8333 2.13-7.2107 2.093-7.0597 4.659-13.9724 7.681-20.6917 1.405-3.1118 3.086-6.09315 5.024-8.90886.77-1.1127 1.651-2.14552 2.63-3.08284.79-.78511 1.729-1.406723 2.762-1.828811.491-.174893 1.005-.280426 1.526-.31351h.552zM759.786 37.0006c.806-.0118 1.606.1397 2.354.4456.625.2571 1.203.6205 1.707 1.0747.48.416.906.8916 1.268 1.4154.622.9339.93 2.046.88 3.1715-.123 1.1223-.524 2.1952-1.165 3.1191-.735 1.078-1.605 2.0558-2.587 2.9094-1.178 1.0145-2.432 1.9347-3.751 2.7521-3.063 1.9765-6.262 3.7284-9.572 5.2422-3.001 1.3891-6.209 2.621-9.779 4.0889-1.785.6552-3.57 1.2843-5.407 1.8871-1.008.3592-2.036.6568-3.079.8912h-.129c-.156.0098-.313-.0131-.459-.0672-.147-.0542-.282-.1383-.395-.2473-.15-.063-.284-.1619-.388-.2883-.101-.116-.178-.2513-.226-.3979-.048-.1466-.066-.3015-.054-.4555.012-.1541.054-.3041.125-.4411.07-.1371.167-.2584.284-.3568 2.769-3.0667 5.77-6.2906 9.159-9.8291 2.921-3.1443 6.032-6.103 9.313-8.8593 1.639-1.3435 3.367-2.5696 5.174-3.6695 1.497-.9516 3.129-1.6675 4.838-2.1231.644-.1544 1.304-.2336 1.966-.2358l-.077-.0263zM791.079 64.0001h2.575c1.074-.0067 2.137.219 3.115.6616.978.4427 1.848 1.0916 2.549 1.9019.552.9164.779 1.9906.644 3.0506-.039.5045-.134 1.0031-.283 1.4868-.186.6672-.445 1.312-.773 1.9226-1.491 2.4935-3.787 4.4095-6.514 5.4346-1.551.6937-3.163 1.243-4.815 1.6406-1.857.473-3.74.8411-5.639 1.1023-4.163.5705-8.363.8361-12.565.7947-3.992 0-8.266-.2051-12.617-.6152-3.507-.3035-6.996-.7826-10.454-1.4356-1.211-.2307-2.807-.5639-4.352-1.0254-.297-.0575-.563-.2217-.747-.4614-.087-.1255-.149-.2675-.18-.4173a1.12124 1.12124 0 010-.4543c.011-.1261.049-.2484.111-.3588.063-.1105.148-.2066.25-.2821.057-.1246.139-.2364.241-.3289.102-.0924.221-.1636.351-.2094 3.347-1.1279 6.695-2.1789 10.042-3.2556l3.862-1.2305c2.575-.7947 4.995-1.5893 7.493-2.3328 3.734-1.1023 7.081-2.0251 10.3-2.7942 4.171-1.0254 7.724-1.7431 10.84-2.2302 2.206-.3494 4.435-.5379 6.669-.564h-.103zM24.0321 85.0423h-1.7062c-3.2784-.008-6.5475.3469-9.7466 1.0582-1.2638.2796-2.4835.7281-3.62569 1.3333-.9599.4828-1.77047 1.214-2.34602 2.1163-.26979.4507-.45749.945-.55452 1.4603a4.347242 4.347242 0 000 1.3544c.05324.7807.36005 1.5233.87443 2.1163.58651.64 1.31735 1.1332 2.13274 1.4392.91701.3753 1.87676.6382 2.85786.783 1.3765.205 2.767.304 4.1589.2963 1.1943 0 2.3673 0 3.5403-.127 3.1308-.208 6.2487-.5753 9.3415-1.1005 3.0285-.4867 6.1849-1.0793 9.6613-1.82 2.7086-.5926 5.5665-1.2698 8.531-2.0105 1.9621-.4868 3.9029-1.0159 5.8437-1.5873.6612-.1905 1.237-.3598 1.7702-.5714.1933-.0648.3538-.2013.4479-.3809.1603-.0265.309-.1003.4265-.2117.1539-.1273.2659-.2974.3214-.4885.0555-.191.052-.3941-.01-.5832-.0619-.1891-.1796-.3554-.3377-.4774-.1582-.1221-.3496-.1943-.5495-.2074-3.1227-.5648-6.2784-.9324-9.4481-1.1005-1.3009 0-2.6019-.1693-3.8816-.2963-2.8365-.2751-5.6518-.5291-8.531-.7196-3.327-.2116-6.2702-.3174-9.0002-.3174M89.2194 58.7207l1.2065-1.2064c2.3239-2.3126 4.3845-4.8752 6.1437-7.6402.6959-1.0914 1.2412-2.271 1.6209-3.5065.3374-1.0202.3935-2.1104.1625-3.1554-.128-.5094-.3448-.9917-.6405-1.4246-.2673-.3674-.5904-.6905-.9577-.9578-.5897-.5144-1.3317-.8225-2.1148-.8781-.8673-.0378-1.7328.1302-2.5257.4904-.9138.383-1.7784.8757-2.5745 1.4672-1.1183.8284-2.1715 1.7415-3.1503 2.7312-.8445.8445-1.674 1.674-2.4136 2.5932-2.0667 2.3609-4.0117 4.8253-5.8272 7.3836-1.7973 2.4856-3.6103 5.1366-5.5447 8.1185-1.4962 2.3343-3.0382 4.834-4.6106 7.454-1.0433 1.7316-2.0415 3.4781-3.0098 5.2545-.3329.6022-.6203 1.1291-.8477 1.6557-.0909.1825-.1079.3926-.0473.5861-.0947.1321-.1476.2894-.152.4513-.0188.1988.0224.3983.1182.5726s.2419.3155.4194.4054c.1776.0899.3783.1242.5765.0987.1981-.0255.3845-.1097.5352-.2418 2.6074-1.8088 5.0987-3.7803 7.4589-5.9027.9199-.9199 1.9596-1.7201 2.9542-2.5352 2.2003-1.8112 4.3706-3.6223 6.5411-5.5235 2.5023-2.2029 4.6583-4.2093 6.5886-6.1396M11.1899 37h-.833c-.77596.0122-1.53722.2113-2.21819.5801-.68097.3687-1.26121.8961-1.69069 1.5366-.36157.8462-.50782 1.7675-.42588 2.6828.08194.9154.38956 1.7967.8958 2.5666.5197.9786 1.11979 1.9131 1.79422 2.7941.64079.8467 1.32434 1.6933 2.13594 2.6035 3.0318 3.2757 6.5202 6.1054 10.3595 8.4033 4.0198 2.3865 8.194 4.5079 12.4955 6.3502 3.3107 1.4605 6.7069 2.8575 9.9963 4.2334l2.905 1.1853c2.1359.9102 4.2719 1.8204 6.4079 2.7729.833.381 1.6447.7409 2.435 1.143.1692.096.3604.147.5553.1482h.1923c.1361-.0226.2657-.0741.3799-.1508.1143-.0767.2105-.1768.2822-.2937.1242-.2261.1693-.4867.1282-.7409-.0419-.15-.1067-.2927-.1922-.4233-.0451-.0913-.1109-.171-.1923-.2328l-4.4855-4.0006c-3.3535-2.9846-6.707-5.9691-10.0178-8.996-2.2854-2.1167-4.5709-4.2334-6.7924-6.3501l-1.9223-1.8627c-1.303-1.2277-2.5846-2.4766-3.9089-3.7042-1.9785-1.8506-4.0608-3.5891-6.237-5.2071-2.0743-1.5307-4.3172-2.8231-6.6856-3.8524-1.0113-.4223-2.0634-.7415-3.1399-.9526-.7035-.1412-1.4184-.2191-2.136-.2328"/></g><defs><filter id="filter0_d_220_1292" x="0" y="0" width="800" height="219" filterUnits="userSpaceOnUse" color-interpolation-filters="sRGB"><feFlood flood-opacity="0" result="BackgroundImageFix"/><feColorMatrix in="SourceAlpha" values="0 0 0 0 0 0 0 0 0 0 0 0 0 0 0 0 0 0 127 0" result="hardAlpha"/><feOffset dy="10"/><feComposite in2="hardAlpha" operator="out"/><feColorMatrix values="0 0 0 0 1 0 0 0 0 0.966586 0 0 0 0 0.916667 0 0 0 1 0"/><feBlend in2="BackgroundImageFix" result="effect1_dropShadow_220_1292"/><feBlend in="SourceGraphic" in2="effect1_dropShadow_220_1292" result="shape"/></filter></defs></svg>