<svg width="580" height="375" viewBox="0 0 580 375" fill="none" xmlns="http://www.w3.org/2000/svg"><g clip-path="url(#clip0_227_91)"><rect width="444.55" height="366" rx="44" fill="#C2E1DB"/><path opacity=".3" d="M494.941 375c26.605 0 48.174-4.801 48.174-10.722 0-5.922-21.569-10.723-48.174-10.723-26.606 0-48.174 4.801-48.174 10.723 0 5.921 21.568 10.722 48.174 10.722z" fill="#603711" fill-opacity=".4"/><path d="M536.662 341.118s8.892.468 11.426 0c0 0 3.142 2.366-3.658 4.392 0 0-6.49 2.396-15.539 1.023.003 0 5.455-3.567 7.771-5.415z" fill="#FFD37B"/><path d="M536.662 342.801c3.893.201 8.009.578 11.871-.061-.428-.057-.86-.114-1.288-.168-.921-.717-.171-.111-.168-.111.315.023-.147.057.071.08.214.027-.161.074-.007-.067.231-.212-.007-.06-.084-.017-1.215.673-2.399 1.242-3.748 1.646-4.475 1.343-9.371 1.461-13.97.804.134 1.027.268 2.05.399 3.076 2.757-1.807 5.515-3.638 8.106-5.677 1.693-1.333-.69-3.699-2.367-2.38-2.362 1.862-4.916 3.507-7.429 5.153-1.068.7-1.135 2.857.398 3.076 4.96.71 10.05.673 14.93-.582 2.487-.64 6.416-1.589 7.038-4.496.231-1.084-.184-2.239-.974-2.999-.99-.953-2.269-.512-3.517-.468-3.083.108-6.185-.02-9.264-.178-2.149-.108-2.142 3.257.003 3.369z" fill="#856030"/><path d="M536.129 291.625s22.681-.966 22.517 23.457c0 0-1.339 21.698-19.796 22.788l-2.721-46.245z" fill="#94CFB4"/><path d="M536.129 293.308c6.021-.242 13.039 2.41 16.874 7.555 3.033 4.066 4.355 9.733 3.919 14.755-.063.73-.046.491-.19 1.346-.144.845-.318 1.683-.522 2.514-.519 2.11-1.215 4.18-2.179 6.128-3.022 6.112-8.31 10.11-15.184 10.578.558.562 1.114 1.121 1.673 1.683-.793-13.469-1.586-26.941-2.38-40.409-.113-1.946-.227-3.891-.344-5.836-.128-2.154-3.474-2.167-3.347 0 .793 13.468 1.586 26.94 2.379 40.409.114 1.945.228 3.89.345 5.836.05.861.726 1.746 1.674 1.682 6.907-.471 12.808-3.813 16.603-9.655 2.503-3.847 3.999-8.404 4.645-12.94.74-5.176-.311-10.904-2.768-15.502-2.59-4.842-7.031-8.238-12.145-10.015-2.838-.986-6.038-1.616-9.056-1.494-2.142.084-2.152 3.453.003 3.365z" fill="#856030"/><path d="M548.62 332.569s1.691-19.415-9.766-32.2c0 0 6.898 21.118 1.423 36.017 0 0 4.625.023 8.343-3.817z" fill="#7FBC96"/><path d="M448.531 285.675c-1.222-9.457-2.236-23.608 8.096-39.066 17.995-26.92 49.686-17.884 53.264-16.975.214.054.415.161.632.205 4.458.865 41.544 15.39 26.825 62.237-.402 1.283-.519 2.639-.02 3.887 3.728 9.33 17.219 49.186-20.995 56.486-2.115.404-3.735 2.124-4.032 4.268-.593 4.277-2.454 10.049-8.334 10.311-.479.02-3.307.384-5.726-.895-.74-.394-3.478-2.066-3.478-2.066-.304 0-.94 1.033-1.837 2.066-1.292 1.488-3.491 1.727-4.749 1.673-1.309-.058-7.514.632-12.152-12.389-.629-1.77-2.166-3.069-4.02-3.331-6.974-.986-23.411-6.482-20.499-36.542.228-2.343-1.185-4.52-3.397-5.284-5.248-1.814-18.233-6.425-15.362-15.569 0 0 2.601-5.946 8.183-3.591.164.064 8.759 3.538 7.601-5.425z" fill="#F9E8BB"/><path d="M450.205 285.675c-1.199-9.356-.998-18.651 2.336-27.583 3.681-9.861 10.519-18.809 19.803-23.878 10.88-5.936 24.083-6.209 35.894-3.264 6.549 1.632 12.41 4.92 17.607 9.672 4.405 4.029 7.989 8.966 10.228 14.529 2.962 7.357 3.558 15.403 2.617 23.235-.308 2.564-.796 5.109-1.399 7.619-.606 2.524-1.804 5.153-1.954 7.747-.131 2.255 1.124 4.534 1.834 6.637 1.626 4.819 2.885 9.82 3.47 14.879.683 5.92.553 12.041-1.372 17.729-2.135 6.313-6.653 11.24-12.523 14.266-1.811.932-3.702 1.673-5.647 2.275-2.212.687-4.836.821-6.894 1.888-4.254 2.211-3.226 7.323-5.432 10.934-2.235 3.662-7.212 3.783-10.616 1.784-1.218-.713-2.911-2.325-4.387-1.474-.877.508-1.336 1.562-2.025 2.268-.924.946-2.125 1.178-3.397 1.182-1.57.006-2.631-.142-4.15-1.108-3.866-2.456-5.014-7.023-6.901-10.884-.981-2.009-2.822-3.284-4.98-3.691-.837-.159-1.67-.293-2.497-.502-2.008-.515-3.852-1.255-5.629-2.302-5.251-3.089-8.508-8.37-10.044-14.199-1.218-4.62-1.449-9.443-1.225-14.198.121-2.578.75-5.234-.629-7.593-1.125-1.928-2.932-2.723-4.926-3.433-3.284-1.171-6.614-2.544-9.422-4.657-2.396-1.801-4.853-4.961-3.721-8.067.324-.892 1.094-1.811 1.824-2.387 1.422-1.124 2.868-.932 4.478-.37 1.8.63 3.798 1.03 5.686.566 3.507-.859 4.354-4.419 3.993-7.62-.241-2.127-3.592-2.15-3.347 0 .201 1.767.345 4.15-1.861 4.446-1.101.148-2.209-.148-3.3-.525-2.062-.71-4.05-1.047-6.111-.108-1.751.795-3.206 2.302-4.103 4.005-2.263 4.291.217 9.242 3.584 12.049 2.022 1.682 4.314 2.975 6.707 4.048 2.028.909 4.411 1.417 6.339 2.504 1.569.885 1.8 2.393 1.673 4.039-.157 2.012-.284 4.021-.288 6.044-.006 3.227.248 6.465.85 9.639.921 4.839 2.795 9.507 5.898 13.35 2.225 2.753 5.107 4.985 8.316 6.455 1.356.619 2.755 1.141 4.197 1.521 1.292.34 2.969.34 4.133.983 1.828 1.01 2.199 3.635 3.013 5.408.763 1.66 1.66 3.248 2.757 4.705 1.47 1.949 3.283 3.642 5.569 4.557 1.202.481 2.45.666 3.742.69 1.329.024 2.637-.111 3.879-.619.786-.323 1.486-.768 2.095-1.367.321-.316.592-.683.874-1.033.271-.336 1.278-1.127.394-.774-.428-.057-.86-.114-1.288-.168 2.209 1.349 4.321 2.783 6.945 3.13 2.787.37 5.89.047 8.199-1.68 2.336-1.743 3.652-4.492 4.361-7.266.315-1.238.291-2.712.88-3.85.911-1.753 2.805-1.814 4.512-2.211 10.11-2.356 19.053-8.181 23.066-18.092 3.203-7.916 2.915-16.865 1.385-25.127-.632-3.412-1.509-6.781-2.583-10.079-.405-1.242-.837-2.474-1.299-3.692-.251-.656-.566-1.313-.666-2.009-.278-1.949.937-4.355 1.429-6.243 2.962-11.379 3.474-23.72-1.091-34.749-3.186-7.696-8.584-14.168-15.291-19.021-8.966-6.485-19.807-8.996-30.764-8.858-11.346.141-22.44 3.854-30.841 11.678-10.967 10.218-16.556 25.416-16.014 40.298.097 2.652.368 5.291.703 7.919.271 2.12 3.621 2.147 3.347.003z" fill="#856030"/><path d="M491.691 348.162c12.552 0 22.728-11.509 22.728-25.706 0-14.196-10.176-25.705-22.728-25.705-12.552 0-22.728 11.509-22.728 25.705 0 14.197 10.176 25.706 22.728 25.706z" fill="#E8C587"/><path d="M503.07 253.512c1.44 0 2.607-1.174 2.607-2.622s-1.167-2.622-2.607-2.622c-1.44 0-2.607 1.174-2.607 2.622s1.167 2.622 2.607 2.622zM477.162 253.512c1.44 0 2.607-1.174 2.607-2.622s-1.167-2.622-2.607-2.622c-1.44 0-2.607 1.174-2.607 2.622s1.167 2.622 2.607 2.622z" fill="#603711"/><path d="M485.786 257.291c.385.667.847 1.292 1.373 1.855.254.272.528.528.813.767.308.256.642.569 1.057.609.409.04.717-.158 1.031-.401.348-.272.696-.545 1.044-.817.73-.572 1.463-1.148 2.193-1.72.214-.168.174-.535 0-.714-.208-.215-.499-.168-.71 0-.592.465-1.185.929-1.774 1.394-.294.232-.592.464-.887.696-.14.108-.277.219-.418.327-.087.067-.248.239-.365.242-.191 0-.535-.39-.672-.511-.238-.209-.466-.435-.68-.667-.438-.478-.816-1.003-1.141-1.568-.321-.565-1.188-.057-.864.508z" fill="#EF9292"/><path d="M510.64 308.284s-7.952 14.495-1.566 18.204c5.981 3.473 8.645-2.171 13.169-10.901" fill="#F9E8BB"/><path d="M509.195 307.433c-2.132 3.907-3.936 8.43-4.244 12.903-.188 2.716.475 5.624 2.791 7.279 2.57 1.835 5.887 2.171 8.467.223 3.568-2.693 5.482-7.553 7.477-11.403.994-1.918-1.894-3.621-2.888-1.699-1.165 2.251-2.296 4.533-3.611 6.7-.867 1.427-1.868 3.117-3.354 3.975-2.316 1.336-5.134-.596-5.502-3.036-.425-2.82.626-5.889 1.6-8.487.609-1.626 1.322-3.231 2.152-4.756 1.041-1.898-1.848-3.601-2.888-1.699z" fill="#856030"/><path d="M542.134 293.826s-.362 3.383 2.814 5.042c.107.057.221.111.335.165 3.537 1.608 6.479.044 6.479.044s-3.909-4.153-9.628-5.251zM556.879 317.344s-4.97-.895-5.974 3.52c-1.008 4.412 2.965 5.53 2.965 5.53s2.44-4.247 3.009-9.05z" fill="#79B38E"/><path d="M470.69 265.678c4.635 0 8.393-2.161 8.393-4.826 0-2.666-3.758-4.826-8.393-4.826-4.636 0-8.394 2.16-8.394 4.826 0 2.665 3.758 4.826 8.394 4.826z" fill="#F9C2C2"/><path d="M466.182 258.587c.686 1.585 1.369 3.17 2.055 4.755.097.222.194.447.288.67.107.249.472.306.686.181.258-.151.288-.441.181-.69-.686-1.585-1.369-3.17-2.055-4.755-.097-.222-.194-.448-.288-.67-.107-.249-.472-.306-.686-.181-.258.148-.288.437-.181.69zM470.057 258.22c.686 1.585 1.369 3.17 2.055 4.755.097.222.194.448.287.67.108.249.472.306.687.182.257-.152.287-.441.18-.69-.686-1.585-1.369-3.171-2.055-4.756-.097-.222-.194-.447-.287-.669-.108-.249-.472-.307-.687-.182-.257.151-.291.437-.18.69z" fill="#EF9292"/><path d="M511.57 265.143c4.635 0 8.393-2.161 8.393-4.826 0-2.666-3.758-4.826-8.393-4.826-4.636 0-8.394 2.16-8.394 4.826 0 2.665 3.758 4.826 8.394 4.826z" fill="#F9C2C2"/><path d="M508.025 258.038c.686 1.585 1.369 3.17 2.055 4.756.097.222.194.447.288.669.107.249.472.307.686.182.257-.151.288-.441.181-.69-.687-1.585-1.369-3.17-2.055-4.755-.097-.222-.195-.448-.288-.67-.107-.249-.472-.306-.686-.182-.258.152-.288.441-.181.69zM511.901 257.675c.687 1.585 1.369 3.17 2.055 4.755.097.222.194.448.288.67.107.249.472.306.686.181.258-.151.288-.44.181-.689-.686-1.586-1.369-3.171-2.055-4.756-.097-.222-.194-.447-.288-.67-.107-.249-.472-.306-.686-.181-.258.148-.291.437-.181.69z" fill="#EF9292"/><path d="M486.179 354.142c4.705 1.168 9.852 1.05 14.555 0 2.101-.468 1.211-3.715-.891-3.244-4.103.915-8.661 1.019-12.774 0-2.092-.519-2.986 2.726-.89 3.244z" fill="#856030"/><path d="M492.23 353.27c.211 3.346.425 6.694.636 10.039.137 2.151 3.484 2.168 3.346 0-.21-3.345-.425-6.693-.636-10.039-.133-2.15-3.484-2.167-3.346 0zM427.935 334.094c.378 6.973 3.721 13.236 8.564 18.133 1.523 1.538 3.889-.841 2.366-2.379-4.196-4.244-7.255-9.686-7.583-15.754-.118-2.154-3.468-2.167-3.347 0zM420.003 332.664c.468 9.184 4.946 17.513 11.335 23.941 1.523 1.535 3.893-.844 2.366-2.379-5.743-5.782-9.933-13.277-10.355-21.562-.11-2.158-3.457-2.171-3.346 0zM566.327 287.785c2.39 6.465 1.714 13.354-.75 19.692-.783 2.019 2.45 2.894 3.227.895 2.654-6.829 3.323-14.522.749-21.482-.743-2.012-3.979-1.141-3.226.895zM574.799 285.009c2.961 7.952 2.121 16.524-.921 24.318-.786 2.016 2.447 2.891 3.226.896 3.233-8.286 4.063-17.666.921-26.11-.746-2.009-3.983-1.14-3.226.896z" fill="#856030"/><path d="M440.485 211.063c-.546-.141-1.128-.043-1.6.27l-7.798 5.186c-.857.568-1.141 1.686-.666 2.601l2.972 5.721c-.686.044-1.389.236-2.058.586-2.236 1.175-3.24 3.699-2.239 5.624 1 1.925 3.634 2.537 5.87 1.363 2.236-1.175 3.24-3.699 2.239-5.624l-4.384-8.437 6.984-4.644 2.651 5.105c-.686.044-1.389.236-2.058.586-2.236 1.174-3.24 3.698-2.239 5.623 1 1.925 3.634 2.538 5.87 1.363 2.236-1.174 3.24-3.698 2.239-5.623l-4.515-8.687c-.261-.501-.723-.871-1.268-1.013z" fill="#78D1C0"/><path d="M547.492 213.742l4.618.562c.733.091 1.399-.437 1.489-1.174.091-.737-.431-1.407-1.168-1.498l-5.087-.616c-1.097-.134-2.112.582-2.356 1.669l-1.546 6.846c-.599-.428-1.312-.754-2.105-.936-2.658-.606-5.245.815-5.73 2.962-.485 2.147 1.238 4.553 3.896 5.162 2.657.606 5.244-.814 5.729-2.961l2.26-10.016z" fill="#F7CD70"/><path d="M544.567 265.462v13.408l-6.493-2.5-.258-10.908c0-23.999-19.706-43.572-43.87-43.572-24.163 0-43.866 19.573-43.866 43.572l-3.23 18.137-3.517-4.729v-13.408c0-27.751 22.678-50.276 50.617-50.276 27.939 0 50.617 22.525 50.617 50.276z" fill="#4C417E"/><path d="M544.566 265.462v13.408l-6.071-1.558-.679-11.85c0-23.999-19.706-43.572-43.87-43.572v-6.704c27.943 0 50.62 22.525 50.62 50.276z" fill="#382E64"/><path d="M444.016 280.893h-4.668c-3.863 0-7.005-3.16-7.005-7.044v-9.703c0-3.883 3.142-7.043 7.005-7.043h4.668c1.292 0 2.336 1.05 2.336 2.349v19.092c0 1.299-1.044 2.349-2.336 2.349z" fill="#85C847"/><path d="M443.548 286.564c-3.605 0-6.533-3.396-6.533-7.572v-20.53c0-4.176 2.931-7.572 6.533-7.572 5.247 0 6.532 3.396 6.532 7.572v20.53c0 4.173-2.931 7.572-6.532 7.572z" fill="#4C417E"/><path d="M541.806 275.926v-19.093c0-1.299 1.044-2.349 2.336-2.349h4.668c3.863 0 7.005 3.161 7.005 7.044v9.703c0 3.884-3.142 7.044-7.005 7.044h-4.668c-1.292-.004-2.336-1.054-2.336-2.349z" fill="#85C847"/><path d="M538.073 276.37v-20.529c0-4.177 1.285-7.573 6.533-7.573 3.605 0 6.533 3.396 6.533 7.573v20.529c0 4.176-2.932 7.572-6.533 7.572-3.601 0-6.533-3.396-6.533-7.572z" fill="#4C417E"/></g><defs><clipPath id="clip0_227_91"><path fill="#fff" d="M0 0h580v375H0z"/></clipPath></defs></svg>