<svg width="1440" height="786" viewBox="0 0 1440 786" fill="none" xmlns="http://www.w3.org/2000/svg"><g clip-path="url(#clip0_228_51)"><path fill="#fff" d="M0 0h1440v786H0z"/><path d="M652.828 721.652L-50.7627 120.706V998H652.828V721.652zM892.156 721.652L1494 120.706V998H892.156V721.652z" fill="#EBF2F5"/><ellipse cx="696.023" cy="138.252" rx="765.023" ry="670.252" fill="#fff"/><path d="M576.891-222.635c-33.238 13.864-24.131 46.783-80.556 65.804-20.707 6.98-27.157 4.309-43.099 11.778-33.607 15.742-52.05 49.6826-40.635 76.2376 23.519 54.7 180.235 93.247 289.677 98.7821 24.075 1.2141 205.212 10.3575 224.627-55.6237 14.342-48.7416-68.866-106.783-90.895-122.156-77.323-53.931-205.148-97.327-259.119-74.822z" fill="#DCF0F6"/><path opacity=".89" d="M838.093 384.264c-7.125 38.511 54.82 75.318 75.932 56.6 21.113-18.718-42.899-35.71-31.901-60.532 10.999-24.822 47.265-38.517 59.207-51.329 11.941-12.812-88.519-24.338-103.238 55.261z" fill="#FEF6C7"/><path d="M538.243 56.5821c6.906 1.3314 14.209 6.1062 17.204 14.8718 3.112 9.0586.94 19.4623-1.162 29.5231-.247 1.175-.492 2.346-.725 3.505-3.127 15.468-1.71 27.079 4.098 33.584 3.353 3.754 7.762 5.34 12.026 6.864 4.263 1.524 8.358 3.001 11.383 6.499 4.726 5.454 6.085 14.976 4.008 28.276-.212 1.367-.443 2.742-.672 4.13-1.526 9.153-3.105 18.605-.448 27.367.981 3.149 2.466 6.01 4.367 8.413 1.902 2.403 4.18 4.299 6.699 5.573 7.15 3.537 15.097 1.609 22.783-.25 8.437-2.04 16.4-3.971 23.14.89 5.436 3.924 8.996 12.083 9.521 21.824.37 6.872-.657 13.732-1.97 20.451l2.001.07c.983-5.067 1.789-10.226 1.972-15.459.064-1.755.05-3.512-.043-5.262-.566-10.54-4.481-19.411-10.476-23.737-7.353-5.318-16.074-3.21-24.491-1.169-7.407 1.776-15.067 3.648-21.686.374-2.271-1.15-4.324-2.859-6.039-5.025-1.714-2.167-3.053-4.746-3.937-7.585-2.458-8.088-.937-17.2.531-26.018.233-1.395.465-2.782.68-4.162 2.209-14.161.666-24.43-4.589-30.496-3.362-3.881-7.836-5.485-12.161-7.04-4.241-1.523-8.245-2.961-11.271-6.345-3.653-4.094-7.232-12.831-3.519-31.204.231-1.155.475-2.318.719-3.489 2.184-10.4525 4.443-21.2641 1.085-31.0798-3.348-9.7259-11.396-14.9619-18.942-16.3483l-.086 2.4542z" fill="#fff"/><path opacity=".89" d="M598.917 681.04c-4.445-38.912-74.445-56-89.162-31.927-14.717 24.073 51.465 21.607 48.205 48.56-3.261 26.953-33.939 50.653-41.613 66.396-7.673 15.744 91.767-2.605 82.57-83.029z" fill="#DCF0F6"/><path d="M578.194 127.256c-12.45-33.5372-82.387-61.2524-121.978-76.5122-67.359-25.9621-229.767-46.91507-312.153 0C41.08 109.388 95.0889 164.366 127.357 176.507c32.268 12.142 69.023-37.465 100.466-49.251 53.78-20.159 94.515 19.242 108.933 64.829 20.431 64.6 77.58 98.045 103.898 107.666 26.318 9.621 92.227-9.621 117.172-43.066 24.945-33.446 35.929-87.508 20.368-129.429z" fill="#DCF0F6"/><path d="M512.682 32.4627c7.735 1.1993 16.046 6.171 19.718 15.6982 3.815 9.8449 1.802 21.3724-.146 32.5196-.229 1.3022-.456 2.5999-.671 3.8842-2.877 17.1343-.849 29.8523 5.864 36.7843 3.877 4.001 8.844 5.576 13.647 7.088 4.803 1.513 9.416 2.981 12.917 6.713 5.47 5.817 7.352 16.239 5.558 30.949-.182 1.512-.387 3.034-.587 4.569-1.342 10.127-2.732 20.585.565 30.121 1.213 3.426 2.977 6.516 5.186 9.087 2.208 2.57 4.817 4.568 7.669 5.872 8.093 3.616 16.86 1.191 25.339-1.15 9.306-2.568 18.092-4.998 25.779.09 6.2 4.108 10.478 12.946 11.44 23.641.679 7.545-.197 15.13-1.396 22.572h2.228c.897-5.612 1.593-11.317 1.593-17.081.004-1.933-.08-3.865-.251-5.786-1.04-11.572-5.74-21.18-12.578-25.709-8.388-5.567-18.008-2.913-27.293-.344-8.173 2.237-16.623 4.591-24.113 1.244-2.571-1.178-4.923-2.979-6.914-5.296-1.992-2.317-3.582-5.104-4.676-8.192-3.049-8.802-1.71-18.884-.419-28.64.204-1.544.408-3.079.594-4.605 1.907-15.662-.208-26.899-6.291-33.369-3.891-4.14-8.931-5.733-13.803-7.277-4.777-1.512-9.289-2.94-12.786-6.547-4.223-4.363-8.544-13.836-5.127-34.1883.211-1.2798.437-2.5686.663-3.8664 2.024-11.5812 4.118-23.5607 0-34.229-4.102-10.5699-13.26-16.0204-21.709-17.2555v2.7029z" fill="#fff"/><ellipse cx="696.023" cy="-624.748" rx="765.023" ry="670.252" fill="#DCF0F6"/><path opacity=".8" d="M1128.39 382.587c37.86-24.887 37.24-100.948 9.38-102.271-27.85-1.322-8.6 60.718-36.43 71.888-27.84 11.171-59.36-5.625-77.09-4.622-17.72 1.003 25.89 86.453 104.14 35.005zM1264.83 239.915c15.4 4.939 36.38-12.278 30.51-20.309-5.87-8.032-18.79 11.216-28.13 5.989-9.34-5.227-11.74-17.746-15.99-22.443-4.25-4.697-18.21 26.558 13.61 36.763z" fill="#FEF6C7"/><path opacity=".8" d="M364.641 532.423c-42.393 28.276-41.11 113.812-9.775 115.088 31.335 1.276 9.211-68.35 40.43-81.124 31.219-12.774 66.803 5.876 86.725 4.614 19.922-1.262-29.762-97.031-117.38-38.578zM177.534 516.514c6.951 24.969 48.496 37.899 54.077 22.956 5.58-14.943-31.576-15.28-32.805-32.392-1.229-17.112 13.422-31.356 15.968-41.185 2.546-9.829-51.612-.986-37.24 50.621z" fill="#DCF0F6"/></g><defs><clipPath id="clip0_228_51"><path fill="#fff" d="M0 0h1440v786H0z"/></clipPath></defs></svg>