<svg width="1440" height="790" viewBox="0 0 1440 790" fill="none" xmlns="http://www.w3.org/2000/svg"><g clip-path="url(#clip0_228_49)"><path fill="#fff" d="M0 0h1440v790H0z"/><path d="M652.828 737.652L-50.7627 136.706V1014H652.828V737.652zM908.156 737.652L1510 136.706V1014H908.156V737.652z" fill="#DCF0F6"/><ellipse cx="696.023" cy="154.252" rx="765.023" ry="670.252" fill="#fff"/><path fill="#fff" d="M540 0h360v790H540z"/><path fill="#fff" d="M540 0h360v790H540z"/><path d="M588.596 30.3852C572.33-13.4331 480.953-49.645 429.224-69.5829c-88.009-33.9211-300.206-61.2981-407.8495 0C-113.18 7.03938-42.6136 78.8728-.453251 94.736 41.7071 110.599 89.7301 45.7843 130.812 30.3852c70.267-26.33887 123.491 25.1417 142.329 84.7038 26.694 84.404 101.364 128.103 135.75 140.673 34.386 12.571 120.501-12.57 153.093-56.269 32.592-43.699 46.945-114.3348 26.612-169.1078z" fill="#DCF0F6"/><path d="M503-93.4685c10.106 1.567 20.965 8.0628 25.764 20.5108 4.984 12.8631 2.353 27.9246-.191 42.4891-.3 1.7015-.596 3.3971-.877 5.0751-3.759 22.38762-1.11 39.0044 7.662 48.0612 5.065 5.2271 11.555 7.2852 17.83 9.2614 6.276 1.9762 12.303 3.894 16.877 8.7703 7.148 7.6009 9.606 21.2182 7.262 40.4369-.238 1.9762-.505 3.9641-.767 5.9696-1.753 13.2311-3.569 26.8951.739 39.3551 1.585 4.476 3.889 8.514 6.775 11.873 2.886 3.358 6.294 5.968 10.021 7.673 10.573 4.724 22.028 1.555 33.106-1.502 12.16-3.357 23.639-6.531 33.683.116 8.1 5.368 13.689 16.915 14.947 30.889.887 9.858-.257 19.769-1.825 29.492h2.912c1.172-7.332 2.082-14.787 2.082-22.318.004-2.525-.106-5.049-.329-7.559-1.358-15.12-7.5-27.674-16.434-33.591-10.959-7.273-23.529-3.806-35.66-.45-10.678 2.924-21.718 5.999-31.505 1.626-3.36-1.539-6.432-3.892-9.034-6.92-2.602-3.028-4.68-6.668-6.109-10.703-3.984-11.501-2.235-24.674-.548-37.4198.267-2.0172.533-4.0226.776-6.0164 2.493-20.464-.271-35.1455-8.219-43.6-5.084-5.4084-11.669-7.4899-18.035-9.507-6.242-1.9763-12.136-3.8414-16.706-8.554-5.517-5.7007-11.164-18.07847-6.699-44.67.276-1.6722.572-3.3561.867-5.0517 2.645-15.1316 5.38-30.7837 0-44.7226C526.005-88.2648 514.04-95.3862 503-97v3.5315z" fill="#fff"/><g opacity=".4" clip-path="url(#clip1_228_49)"><path opacity=".89" d="M850.134 437.467c-5.777-71.726 88.782-146.113 117.28-112.75 28.498 33.364-66.705 70.71-53.658 116.397 13.048 45.686 64.203 68.33 80.056 91.38 15.858 23.049-131.751 53.224-143.678-95.027z" fill="#FEF6C7"/></g><path opacity=".1" d="M843.124 705c-.441.06-.878.147-1.307.261-5.229 1.378-8.557 5.885-7.401 10.076.224.793.596 1.538 1.098 2.199-4.102 2.461-6.344 6.708-5.229 10.711.999 3.618 4.456 6.061 8.656 6.594.004.561.08 1.119.227 1.662 1.162 4.19 6.344 6.464 11.584 5.103.776-.206 1.529-.487 2.248-.839L843.124 705z" fill="#88CFCB"/><path opacity=".2" d="M569.5 503c-2.274 0-4.498.674-6.389 1.938-1.891 1.264-3.365 3.06-4.236 5.161-.87 2.101-1.098 4.414-.654 6.645.444 2.23 1.539 4.279 3.147 5.888 1.609 1.608 3.658 2.703 5.888 3.147 2.231.444 4.544.216 6.645-.654 2.101-.871 3.897-2.345 5.161-4.236 1.264-1.891 1.938-4.115 1.938-6.389 0-3.05-1.212-5.975-3.368-8.132-2.157-2.156-5.082-3.368-8.132-3.368zm0 18.229c-1.331 0-2.632-.395-3.738-1.134-1.107-.74-1.969-1.791-2.479-3.02-.509-1.23-.642-2.582-.382-3.888.259-1.305.9-2.504 1.841-3.445.941-.941 2.14-1.582 3.445-1.841 1.306-.26 2.658-.127 3.888.382 1.229.51 2.28 1.372 3.02 2.479.739 1.106 1.134 2.407 1.134 3.738 0 1.785-.709 3.496-1.971 4.758s-2.973 1.971-4.758 1.971z" fill="#61C9CA"/><path opacity=".1" d="M880.871 252.58l-1.578 4.757c-.185.561-.559 1.034-1.055 1.332-.496.297-1.079.399-1.641.286-2.697-.539-7.461-2.078-10.117-6.407-2.216-3.604-5.924-3.925-8.778-3.497-.404.056-.814.003-1.193-.151-.379-.155-.713-.408-.97-.734-.258-.326-.431-.716-.502-1.13-.071-.415-.039-.842.094-1.24l1.582-4.771c.133-.403.365-.763.673-1.045.308-.282.682-.476 1.085-.564 2.566-.544 8.144-1.204 10.49 2.669 2.881 4.752 7.415 6.603 10.242 7.319.319.082.618.232.878.44s.475.47.632.769c.157.298.252.627.279.966.027.339-.014.68-.121 1.001z" fill="#61C9CA"/><ellipse cx="402.86" cy="602.451" rx="176.536" ry="135.714" transform="rotate(180 402.86 602.451)" fill="#EBF2F5"/><mask id="a" style="mask-type:alpha" maskUnits="userSpaceOnUse" x="84" y="372" width="529" height="487"><g clip-path="url(#clip2_228_49)"><path d="M88.8178 641.004c10.9123 10.864 28.5582 18.203 48.1392 12.82 20.258-5.53 36.451-22.289 52.109-38.496 1.826-1.896 3.65-3.782 5.465-5.635 24.203-24.728 47.003-36.474 65.945-33.976 10.934 1.444 19.235 7.473 27.246 13.315 8.01 5.842 15.728 11.436 25.794 12.6 15.706 1.836 34.646-7.441 56.209-27.596 2.219-2.07 4.428-4.184 6.663-6.308 14.72-14.046 29.919-28.556 49.078-34.545 6.917-2.107 13.934-2.944 20.631-2.464 6.698.481 12.939 2.27 18.35 5.261 15.212 8.587 21.496 25.354 27.582 41.563 6.681 17.791 12.979 34.592 30.088 40.805 13.805 5.004 32.981 1.393 51.293-9.664 12.917-7.801 24.094-18.115 34.664-28.775l2.588 3.536c-7.979 8.026-16.343 15.845-25.608 22.627-3.104 2.28-6.307 4.419-9.594 6.409-19.811 11.967-40.716 15.813-55.939 10.29-18.691-6.76-25.6-25.149-32.255-42.906-5.896-15.602-11.927-31.78-26.008-39.729-4.879-2.695-10.506-4.307-16.544-4.74-6.039-.434-12.365.321-18.6 2.219-17.692 5.519-32.345 19.506-46.528 33.033-2.245 2.141-4.475 4.271-6.712 6.362-22.963 21.456-43.484 31.321-60.952 29.282-11.174-1.305-19.589-7.428-27.73-13.343-7.981-5.802-15.515-11.281-25.376-12.587-11.919-1.568-32.168 2.722-60.917 32.092-1.812 1.841-3.621 3.717-5.444 5.602-16.267 16.839-33.094 34.257-55.026 40.276-21.758 5.927-41.1562-2.192-52.9563-14.147l4.3451-3.181z" fill="#fff"/></g></mask><g mask="url(#a)"><ellipse cx="402.86" cy="602.451" rx="176.536" ry="135.714" transform="rotate(180 402.86 602.451)" fill="#fff"/></g><path opacity=".8" d="M1146.55 316.718c5.04-55.693-68.92-113.504-91.59-87.612-22.67 25.892 52.05 54.942 41.46 90.41-10.59 35.469-51.03 53.026-63.67 70.916-12.64 17.889 103.4 41.398 113.8-73.714zM1327.38 189.433c28.07-18.451 27.61-74.839 6.96-75.819-20.65-.981-6.38 45.013-27.01 53.294-20.64 8.282-44.01-4.17-57.15-3.426-13.14.743 19.19 64.092 77.2 25.951z" fill="#FFFCEB"/></g><defs><clipPath id="clip0_228_49"><path fill="#fff" d="M0 0h1440v790H0z"/></clipPath><clipPath id="clip1_228_49"><path fill="#fff" transform="rotate(-75 750.338597 -276.27724)" d="M0 0h230v174H0z"/></clipPath><clipPath id="clip2_228_49"><path fill="#fff" transform="scale(-1 1) rotate(36.20195 -797.474126 -511.207201)" d="M0 0h460.67v264.939H0z"/></clipPath></defs></svg>