<svg width="322" height="453" viewBox="0 0 322 453" fill="none" xmlns="http://www.w3.org/2000/svg"><rect y="81" width="322" height="369" rx="30" fill="#C2E1DB"/><path d="M185.101 82.9207s5.725.2981 7.356 0c0 0 2.023 1.5077-2.355 2.7988 0 0-4.178 1.527-10.003.652.002 0 3.511-2.2734 5.002-3.4508z" fill="#FFD37B"/><path d="M185.102 83.993c2.505.1286 5.155.3688 7.641-.0387-.275-.0364-.553-.0729-.829-.1072-.592-.4568-.11-.0708-.108-.0708.203.015-.095.0365.046.0515.137.0172-.104.0472-.005-.0429.149-.1351-.004-.0386-.054-.0107-.782.4289-1.544.7914-2.413 1.0488-2.88.8557-6.032.9308-8.993.5125.087.6542.173 1.3062.257 1.9603 1.775-1.1517 3.55-2.3184 5.218-3.6181 1.09-.8493-.444-2.3571-1.523-1.5163-1.521 1.186-3.165 2.2348-4.783 3.2835-.687.4461-.731 1.8209.256 1.9603 3.193.4525 6.47.4289 9.611-.371 1.601-.4075 4.131-1.0123 4.531-2.8654.149-.6906-.118-1.4262-.627-1.9109-.637-.607-1.46-.326-2.264-.2981-1.984.0686-3.982-.0129-5.964-.1137-1.383-.0686-1.379 2.0761.003 2.1469z" fill="#856030"/><path d="M184.759 51.3805s14.601-.6155 14.495 14.9486c0 0-.862 13.827-12.744 14.5219l-1.751-29.4705z" fill="#94CFB4"/><path d="M184.759 52.4528c3.876-.1544 8.394 1.5356 10.863 4.8149 1.952 2.5908 2.803 6.2025 2.522 9.4024-.04.4654-.03.3131-.122.8579-.093.5383-.205 1.0723-.336 1.602-.334 1.3448-.782 2.6638-1.403 3.9056-1.945 3.8948-5.35 6.4427-9.775 6.7408.36.3582.718.7142 1.077 1.0724-.51-8.5832-1.021-17.1685-1.532-25.7516-.073-1.2396-.146-2.4793-.221-3.7189-.082-1.3726-2.237-1.3812-2.155 0 .511 8.5831 1.021 17.1684 1.532 25.7515.073 1.2397.146 2.4793.222 3.719.032.549.467 1.1131 1.077 1.0723 4.447-.3002 8.245-2.4299 10.689-6.1532 1.611-2.4514 2.574-5.3553 2.99-8.2464.476-3.2985-.2-6.9488-1.782-9.8785-1.667-3.0863-4.526-5.2503-7.818-6.3827-1.827-.6284-3.887-1.0294-5.831-.9522-1.378.0536-1.385 2.2004.003 2.1447z" fill="#856030"/><path d="M192.799 77.4732s1.088-12.3728-6.287-20.5206c0 0 4.44 13.4581.915 22.9527 0 0 2.978.0151 5.372-2.4321z" fill="#7FBC96"/><path d="M128.367 47.5884c-.787-6.0267-1.44-15.0452 5.211-24.8958 11.585-17.15558 31.986-11.397 34.289-10.818.138.0344.267.103.407.1309 2.87.5512 26.744 9.8077 17.269 39.6621-.259.8171-.334 1.6815-.013 2.4772 2.4 5.9451 11.084 31.3449-13.516 35.9968-1.361.2574-2.404 1.3533-2.596 2.7195-.381 2.7259-1.579 6.4041-5.364 6.5714-.308.0129-2.129.2445-3.687-.5705-.476-.2509-2.238-1.3169-2.238-1.3169-.196 0-.606.6585-1.183 1.3169-.832.948-2.247 1.1002-3.057 1.0659-.843-.0365-4.837.4031-7.823-7.8947-.405-1.1281-1.394-1.9559-2.588-2.1232-4.49-.6284-15.07-4.1307-13.196-23.2873.146-1.4927-.763-2.8804-2.187-3.3672-3.378-1.156-11.738-4.0943-9.889-9.9214 0 0 1.674-3.7898 5.268-2.2885.105.0408 5.638 2.2541 4.893-3.4572z" fill="#F9E8BB"/><path d="M129.444 47.5886c-.771-5.9623-.642-11.886 1.504-17.5781 2.37-6.284 6.772-11.9868 12.748-15.2167 7.004-3.7833 15.504-3.957 23.107-2.0804 4.216 1.0402 7.989 3.1356 11.335 6.1639 2.835 2.5672 5.143 5.7135 6.584 9.2587 1.907 4.6884 2.29 9.8164 1.685 14.8071-.198 1.6343-.513 3.2557-.901 4.8557-.39 1.6085-1.161 3.2835-1.258 4.9371-.084 1.4369.724 2.8889 1.181 4.2293 1.047 3.0713 1.857 6.2583 2.234 9.4818.439 3.7726.355 7.6738-.883 11.2984-1.375 4.0234-4.284 7.1633-8.063 9.0914-1.165.5941-2.382 1.0659-3.634 1.4498-1.424.4375-3.113.5233-4.438 1.2032-2.739 1.4091-2.077 4.6669-3.497 6.9682-1.439 2.3334-4.643 2.4106-6.834 1.1367-.784-.4547-1.875-1.482-2.825-.9394-.564.3238-.859.9951-1.303 1.4455-.595.6027-1.368.7507-2.187.7528-1.01.0043-1.693-.0901-2.672-.7056-2.488-1.5656-3.227-4.476-4.442-6.936-.631-1.2804-1.816-2.0932-3.206-2.3527-.539-.1008-1.075-.1866-1.607-.3196-1.293-.3282-2.48-.8-3.624-1.467-3.381-1.9688-5.477-5.3339-6.466-9.0485-.784-2.9447-.933-6.0181-.788-9.0486.077-1.6428.482-3.335-.405-4.8384-.724-1.229-1.888-1.7351-3.172-2.1876-2.113-.7464-4.257-1.6214-6.065-2.9683-1.542-1.1474-3.124-3.1613-2.395-5.1409.209-.5683.704-1.1539 1.174-1.5206.915-.7163 1.846-.5941 2.882-.2359 1.16.401 2.446.6563 3.661.3603 2.258-.5469 2.803-2.816 2.57-4.8556-.155-1.3555-2.312-1.3705-2.154 0 .129 1.1259.222 2.6444-1.198 2.8331-.709.0944-1.422-.0943-2.125-.3345-1.327-.4526-2.606-.667-3.934-.0687-1.126.5062-2.064 1.467-2.641 2.5522-1.456 2.7345.14 5.8894 2.307 7.6781 1.302 1.0724 2.778 1.8959 4.318 2.5801 1.306.5791 2.84.9029 4.081 1.5957 1.01.564 1.159 1.5248 1.077 2.5736-.101 1.2826-.183 2.5629-.185 3.8519-.005 2.0568.159 4.12.547 6.1425.592 3.0841 1.799 6.0588 3.796 8.508 1.433 1.7544 3.288 3.1764 5.354 4.1136.873.3946 1.773.727 2.702.9694.831.2166 1.911.2166 2.661.6263 1.176.6434 1.415 2.3162 1.939 3.4465.491 1.0574 1.068 2.0697 1.775 2.9983.946 1.2418 2.113 2.3206 3.585 2.9043.773.306 1.577.424 2.409.439.855.015 1.697-.07 2.497-.394.506-.206.956-.489 1.348-.8711.207-.2016.382-.4353.563-.6584.174-.2145.823-.7185.254-.4933-.276-.0364-.554-.0729-.83-.1072 1.422.86 2.782 1.774 4.471 1.995 1.795.235 3.792.03 5.279-1.0706 1.503-1.111 2.35-2.8632 2.807-4.6305.202-.7892.187-1.7286.567-2.4535.586-1.1174 1.805-1.156 2.904-1.4091 6.508-1.5013 12.265-5.2138 14.849-11.53 2.061-5.0443 1.876-10.7471.891-16.0124-.407-2.1747-.971-4.3216-1.663-6.4234-.26-.7914-.538-1.5763-.836-2.3527-.161-.4183-.364-.8365-.428-1.2804-.179-1.2418.603-2.7753.919-3.9785 1.907-7.2512 2.237-15.1159-.702-22.1441-2.051-4.905-5.526-9.0292-9.844-12.1219-5.772-4.1329-12.75-5.73284-19.804-5.6449-7.304.09007-14.446 2.4557-19.853 7.4421-7.061 6.5114-10.659 16.1969-10.31 25.6808.063 1.6901.237 3.3715.453 5.0465.174 1.3512 2.331 1.3684 2.154.0022z" fill="#856030"/><path d="M156.152 87.4096c8.08 0 14.631-7.3342 14.631-16.3813 0-9.0472-6.551-16.3813-14.631-16.3813-8.081 0-14.631 7.3341-14.631 16.3813 0 9.0471 6.55 16.3813 14.631 16.3813z" fill="#E8C587"/><path d="M163.477 27.0915c.927 0 1.679-.7481 1.679-1.6708 0-.9227-.752-1.6707-1.679-1.6707s-1.678.748-1.678 1.6707c0 .9227.751 1.6708 1.678 1.6708zM146.798 27.0915c.927 0 1.679-.7481 1.679-1.6708 0-.9227-.752-1.6707-1.679-1.6707-.926 0-1.678.748-1.678 1.6707 0 .9227.752 1.6708 1.678 1.6708z" fill="#603711"/><path d="M152.35 29.5c.248.4247.545.8236.883 1.1818.164.1737.341.3367.524.489.198.163.413.3624.68.3882.263.0257.462-.1008.664-.2553l.672-.5211c.47-.3646.942-.7314 1.411-1.096.138-.1072.112-.341 0-.4546-.133-.1373-.321-.1073-.456 0-.382.2959-.763.5919-1.142.8879-.19.1479-.382.2959-.571.4439-.091.0686-.179.1394-.269.2081-.056.0428-.16.1522-.235.1544-.123 0-.345-.2488-.433-.326-.153-.133-.3-.2767-.438-.4247-.282-.3045-.525-.6391-.734-.9994-.207-.3603-.765-.0365-.556.3238z" fill="#EF9292"/><path d="M168.35 61.9968s-5.119 9.2373-1.008 11.6008c3.85 2.2133 5.565-1.3834 8.478-6.9468" fill="#F9E8BB"/><path d="M167.419 61.4543c-1.372 2.49-2.534 5.3725-2.732 8.2228-.12 1.7308.306 3.5838 1.797 4.639 1.655 1.1689 3.79 1.3833 5.451.1415 2.297-1.7157 3.529-4.8127 4.813-7.2662.64-1.2225-1.219-2.3078-1.859-1.0831-.75 1.4348-1.478 2.8889-2.325 4.2701-.558.9094-1.202 1.986-2.159 2.5329-1.491.8514-3.305-.3796-3.542-1.9345-.273-1.7973.403-3.7533 1.03-5.409.392-1.0359.851-2.0589 1.385-3.0305.671-1.2096-1.189-2.2948-1.859-1.083z" fill="#856030"/><path d="M188.623 52.7832s-.232 2.1554 1.812 3.2128c.069.0364.142.0708.216.1051 2.277 1.0251 4.171.0279 4.171.0279s-2.517-2.6466-6.199-3.3458zM198.116 67.7704s-3.199-.5705-3.846 2.2434c-.648 2.8117 1.909 3.5237 1.909 3.5237s1.571-2.7066 1.937-5.7671z" fill="#79B38E"/><path d="M142.632 34.8449c2.984 0 5.403-1.377 5.403-3.0755 0-1.6986-2.419-3.0756-5.403-3.0756-2.984 0-5.403 1.377-5.403 3.0756 0 1.6985 2.419 3.0755 5.403 3.0755z" fill="#F9C2C2"/><path d="M139.729 30.3259c.442 1.0101.881 2.0203 1.323 3.0305.062.1415.125.2852.185.4268.069.1587.304.1951.442.1158.166-.0965.185-.281.116-.4397-.442-1.0101-.881-2.0203-1.323-3.0305-.062-.1415-.125-.2852-.185-.4268-.069-.1587-.304-.1951-.442-.1158-.166.0944-.185.2788-.116.4397zM142.224 30.092c.442 1.0102.881 2.0203 1.323 3.0305.062.1415.125.2852.185.4268.069.1587.304.1952.442.1158.166-.0965.185-.281.116-.4397-.442-1.0101-.881-2.0203-1.323-3.0304-.062-.1416-.125-.2853-.185-.4268-.069-.1588-.304-.1952-.442-.1159-.166.0966-.187.2789-.116.4397z" fill="#EF9292"/><path d="M168.949 34.5038c2.985 0 5.404-1.3769 5.404-3.0755 0-1.6986-2.419-3.0755-5.404-3.0755-2.984 0-5.403 1.3769-5.403 3.0755 0 1.6986 2.419 3.0755 5.403 3.0755z" fill="#F9C2C2"/><path d="M166.668 29.9763c.442 1.0101.881 2.0203 1.323 3.0305.063.1415.125.2852.185.4268.069.1587.304.1951.442.1158.166-.0965.185-.281.116-.4397-.441-1.0102-.881-2.0203-1.322-3.0305-.063-.1415-.125-.2852-.186-.4268-.069-.1587-.303-.1951-.441-.1158-.166.0965-.186.281-.117.4397zM169.162 29.7448c.442 1.0102.882 2.0204 1.323 3.0305.063.1416.125.2853.186.4268.069.1587.303.1952.441.1158.166-.0965.186-.2809.117-.4396-.442-1.0102-.882-2.0204-1.323-3.0305-.063-.1416-.125-.2853-.186-.4268-.069-.1587-.303-.1952-.441-.1158-.166.0943-.188.2788-.117.4396z" fill="#EF9292"/><path d="M152.603 91.2208c3.029.7442 6.343.6691 9.37 0 1.353-.2981.78-2.3678-.573-2.0675-2.642.5833-5.576.6498-8.224 0-1.347-.3303-1.922 1.7372-.573 2.0675z" fill="#856030"/><path d="M156.498 90.6652c.135 2.1318.273 4.2658.409 6.3977.088 1.3704 2.243 1.3812 2.155 0-.136-2.1319-.274-4.2659-.41-6.3977-.086-1.3705-2.243-1.3812-2.154 0zM115.108 78.4448c.243 4.4438 2.395 8.4351 5.513 11.5557.98.9801 2.503-.5362 1.523-1.5163-2.702-2.7045-4.671-6.1725-4.882-10.0394-.075-1.3726-2.232-1.3812-2.154 0zM110.002 77.5331c.301 5.8529 3.184 11.161 7.297 15.2574.98.978 2.506-.5383 1.523-1.5163-3.697-3.6846-6.394-8.4609-6.666-13.7411-.071-1.3748-2.225-1.3834-2.154 0zM204.198 48.9333c1.539 4.1199 1.104 8.5102-.482 12.5487-.504 1.2868 1.577 1.8444 2.077.5705 1.708-4.3517 2.139-9.2545.482-13.6897-.478-1.2826-2.561-.7271-2.077.5705zM209.652 47.1638c1.906 5.0679 1.366 10.5305-.593 15.4977-.506 1.2846 1.575 1.8423 2.077.5704 2.081-5.2802 2.616-11.2575.593-16.6386-.481-1.2804-2.564-.7271-2.077.5705z" fill="#856030"/><path d="M123.188.040361c-.351-.090078-.726-.02788-1.03.171577l-5.02 3.305002c-.552.36245-.735 1.0745-.429 1.65786l1.913 3.64601c-.441.02788-.894.15013-1.325.37318-1.439.7485-2.085 2.35701-1.441 3.58381.644 1.2268 2.34 1.6171 3.779.8686 1.439-.7485 2.085-2.357 1.441-3.5838l-2.822-5.37679 4.496-2.95971 1.707 3.25353c-.442.02788-.894.15013-1.325.37318-1.44.74851-2.086 2.35704-1.442 3.58381.645 1.22678 2.34 1.61708 3.779.86861 1.44-.7485 2.086-2.35704 1.442-3.58381L124.004.685919c-.168-.319562-.465-.55548-.816-.645558z" fill="#78D1C0"/><path d="M192.073 1.74755l2.974.35816c.471.05791.9-.27881.958-.7485.058-.469694-.278-.896491-.752-.954398l-3.274-.392483c-.707-.085788-1.36.371036-1.517 1.063781l-.996 4.36234c-.385-.27238-.844-.48042-1.355-.59623-1.71-.38605-3.376.51902-3.688 1.88735-.313 1.36832.797 2.90179 2.508 3.29003 1.71.386 3.376-.51907 3.688-1.88739l1.454-6.38266z" fill="#F7CD70"/><path d="M190.19 34.7073v8.5446l-4.18-1.5936-.166-6.951c0-15.2939-12.686-27.76755-28.241-27.76755-15.556 0-28.239 12.47365-28.239 27.76755l-2.079 11.5579-2.264-3.0133v-8.5446c0-17.6853 14.598-32.03982 32.584-32.03982 17.986 0 32.585 14.35452 32.585 32.03982z" fill="#4C417E"/><path d="M190.189 34.7073v8.5446l-3.908-.993-.437-7.5516c0-15.2939-12.686-27.76755-28.241-27.76755V2.66748c17.987 0 32.586 14.35452 32.586 32.03982z" fill="#382E64"/><path d="M125.461 44.5408h-3.005c-2.487 0-4.51-2.0138-4.51-4.4888v-6.1832c0-2.475 2.023-4.4889 4.51-4.4889h3.005c.832 0 1.504.6691 1.504 1.497v12.1669c0 .8279-.672 1.497-1.504 1.497z" fill="#85C847"/><path d="M125.159 48.1548c-2.321 0-4.206-2.164-4.206-4.8256V30.2465c0-2.6616 1.887-4.8256 4.206-4.8256 3.378 0 4.205 2.164 4.205 4.8256v13.0827c0 2.6595-1.887 4.8256-4.205 4.8256z" fill="#4C417E"/><path d="M188.412 41.3754v-12.167c0-.8278.672-1.497 1.504-1.497h3.005c2.487 0 4.51 2.0139 4.51 4.4889v6.1832c0 2.475-2.023 4.4889-4.51 4.4889h-3.005c-.832-.0022-1.504-.6713-1.504-1.497z" fill="#85C847"/><path d="M186.01 41.6583V28.5756c0-2.6616.827-4.8256 4.205-4.8256 2.321 0 4.206 2.164 4.206 4.8256v13.0827c0 2.6616-1.887 4.8256-4.206 4.8256-2.318 0-4.205-2.164-4.205-4.8256z" fill="#4C417E"/></svg>