<svg width="307" height="157" viewBox="0 0 307 157" fill="none" xmlns="http://www.w3.org/2000/svg"><g filter="url(#filter0_d_153_87)" fill="#FFE7C1"><path d="M17.0004 89.7c.0337 4.6458.5698 9.2865 1.6053 13.898.615 3.832 2.2442 7.596 4.8372 11.174 1.2346 1.688 3.0182 3.242 5.2653 4.586 2.2834 1.268 4.8675 2.364 7.6839 3.259 4.1529 1.299 8.4408 2.465 12.8422 3.492l4.9871 1.246 54.6436 6.832c9.61 2.142 19.541 4.051 29.152 5.902l2.825.547c5.337 1.024 10.652 2.068 15.946 3.131 4.965 1.001 10.295 2.06 15.582 3.05 9.931 1.862 17.658 3.119 25.063 4.085 4.645.606 8.819 1.059 12.714 1.385 2.333.198 4.409.35 6.421.466 2.012.116 3.66.21 5.522.244h1.82c4.685.041 9.342-.405 13.719-1.315 2.25-.479 4.402-1.083 6.421-1.804 1.97-.725 3.817-1.543 5.522-2.444 3.482-1.915 6.464-4.081 8.862-6.437 2.568-2.503 4.759-5.115 6.549-7.811 2.975-4.364 5.244-8.916 7.47-13.327l1.562-3.341 1.606-3.096c1.562-3.003 3.146-6.123 4.644-9.195 2.483-5.1802 4.281-9.452 5.694-13.4328 1.646-4.4682 2.818-8.9841 3.51-13.5255.708-4.5042.708-9.033 0-13.5371-.214-1.164-.471-2.328-.728-3.329-.257-1.001-.514-1.7809-.899-2.5841-.662-1.4917-1.639-2.9368-2.911-4.3067-1.185-1.26-2.66-2.4333-4.387-3.492-1.664-.9965-3.531-1.8868-5.565-2.6538-4.27-1.5784-8.994-2.7585-13.977-3.492-5.292-.7702-10.7-1.2805-16.16-1.5248-4.773-.2212-10.017-.3376-16.545-.3492h-1.883c-7.984 0-16.46.1164-25.15.3492-19.926.5238-39.554 1.5714-54.408 2.4211-7.02.3957-14.019.8148-21.039 1.2338l-6.122.3725-2.697.1629c-3.596.2096-7.17.4307-10.702.6286-4.152.2444-8.3042.4539-12.6277.6635-7.791.3957-16.652.8497-25.2991 1.5364-4.666.3725-8.7755.7682-12.6068 1.2222-2.3116.2677-4.4091.5354-6.4211.8264-2.0119.291-3.4674.5005-5.0512.8032-2.8039.5082-5.4957 1.1835-8.0264 2.0137-2.2849.7528-4.3849 1.6602-6.2499 2.7004-1.8178 1.0175-3.3927 2.1556-4.6874 3.3872-1.3522 1.289-2.4567 2.6503-3.2961 4.0623-.9285 1.5837-1.6438 3.202-2.1404 4.8422-.5779 1.9671-1.0916 4.0856-1.5411 6.4601-.9141 4.6548-1.3642 9.3331-1.3484 14.0143zM284.421.00003c.168-.000851.334.016064.498.050456.423.120487.808.34627 1.118.655921.394.368963.705.815863.914 1.311843.216.54.333 1.11422.346 1.6953.022.62148-.043 1.243-.194 1.84668-.147.66953-.355 1.32468-.619 1.95767-.617 1.4655-1.376 2.868-2.266 4.1878-.923 1.4199-1.92 2.7908-2.987 4.1071-.924 1.1504-1.92 2.3209-3.048 3.552-.955 1.0798-1.961 2.1394-2.723 2.9366-.082.0684-.187.1044-.294.1009-.099 0-.195-.0319-.275-.0908-.087-.0236-.165-.0729-.223-.1413-.041-.0451-.071-.0978-.091-.1551-.019-.0572-.026-.1178-.021-.1779.244-1.2816.518-2.6641.874-4.0365.112-.4642.244-.9183.376-1.3825v-.1816c.264-.9284.538-1.8668.823-2.7851.808-2.7268 1.799-5.39686 2.966-7.99219.543-1.20193 1.193-2.35349 1.941-3.44106.297-.42978.638-.82871 1.016-1.190749.305-.303248.668-.543346 1.067-.706377.189-.067553.388-.108315.589-.121093h.213zM291.467 14.2915c.311-.0045.62.054.909.1721.242.0993.465.2397.66.4151.185.1607.349.3444.489.5467.241.3607.36.7903.34 1.225-.047.4335-.202.8479-.45 1.2047-.284.4164-.62.7941-.999 1.1238-.455.3919-.939.7473-1.449 1.063-1.183.7634-2.418 1.4401-3.697 2.0248-1.159.5366-2.398 1.0124-3.777 1.5793-.69.2531-1.379.4961-2.089.7289-.389.1388-.786.2537-1.189.3443h-.05c-.06.0037-.12-.0051-.177-.026-.057-.0209-.109-.0534-.152-.0955-.059-.0244-.11-.0626-.15-.1114-.039-.0448-.069-.097-.088-.1537-.018-.0566-.025-.1164-.021-.1759.005-.0595.021-.1174.049-.1704.027-.0529.064-.0998.11-.1378 1.069-1.1845 2.228-2.4297 3.537-3.7965 1.128-1.2144 2.33-2.3572 3.597-3.4219.633-.5189 1.301-.9925 1.999-1.4173.578-.3676 1.208-.6441 1.868-.8201.249-.0596.504-.0902.76-.0911l-.03-.0101zM303.554 24.72h.995c.415-.0026.825.0846 1.203.2556.378.1709.714.4216.985.7346.213.3539.3.7688.248 1.1782-.015.1949-.051.3875-.109.5743-.072.2577-.172.5068-.298.7426-.576.9631-1.463 1.7032-2.517 2.0992-.599.2679-1.221.48-1.859.6336-.718.1827-1.445.3249-2.178.4258-1.609.2204-3.231.3229-4.854.307-1.541 0-3.192-.0793-4.873-.2377-1.355-.1172-2.702-.3022-4.038-.5545-.467-.0891-1.084-.2178-1.681-.396-.115-.0222-.217-.0857-.288-.1782-.034-.0485-.058-.1034-.07-.1612a.432281.432281 0 010-.1755c.005-.0487.019-.0959.043-.1386.024-.0427.057-.0798.096-.1089.023-.0482.054-.0914.094-.1271.039-.0357.085-.0632.135-.0809 1.293-.4356 2.586-.8416 3.879-1.2575l1.492-.4752c.994-.307 1.929-.6139 2.894-.9011 1.442-.4257 2.735-.7822 3.978-1.0792 1.611-.3961 2.984-.6733 4.187-.8614.852-.135 1.713-.2078 2.576-.2179h-.04zM7.28229 52.8476h-.65902c-1.26629-.003-2.52898.134-3.76464.4088-.48814.108-.95924.2812-1.40042.5149-.37076.1865-.683841.469-.906147.8175-.104203.1741-.176704.365-.214182.564-.027331.1733-.027331.3498 0 .5232.020564.3015.139068.5883.337748.8174.226542.2472.508831.4377.823771.5558.35419.145.72488.2466 1.10386.3025.53168.0792 1.06873.1174 1.60636.1144.46131 0 .91439 0 1.36746-.049 1.20925-.0804 2.41354-.2222 3.60813-.4251 1.16979-.188 2.38899-.4169 3.73169-.703 1.0462-.2288 2.1501-.4904 3.2951-.7765.7579-.188 1.5075-.3924 2.2571-.6131.2554-.0736.4778-.139.6838-.2207.0746-.025.1366-.0778.173-.1471.0619-.0103.1193-.0388.1647-.0818.0595-.0492.1027-.1149.1241-.1887.0215-.0737.0201-.1522-.0038-.2252-.0239-.0731-.0694-.1373-.1305-.1844-.0611-.0472-.135-.0751-.2122-.0802-1.2062-.2181-2.425-.3601-3.6493-.425-.5025 0-1.005-.0654-1.4993-.1145-1.0956-.1062-2.183-.2043-3.2951-.2779-1.28507-.0817-2.42187-.1226-3.4763-.1226M32.8164 42.5129l.466-.466c.8976-.8933 1.6935-1.883 2.373-2.951.2688-.4216.4794-.8772.6261-1.3544.1303-.3941.152-.8152.0628-1.2188-.0494-.1968-.1332-.383-.2474-.5503-.1033-.1419-.2281-.2667-.3699-.3699-.2278-.1987-.5144-.3177-.8169-.3392-.335-.0146-.6693.0503-.9755.1895-.353.1479-.6869.3382-.9944.5666-.432.32-.8388.6727-1.2168 1.055-.3262.3262-.6466.6466-.9323 1.0016-.7982.9119-1.5495 1.8638-2.2507 2.8519-.6943.9601-1.3945 1.984-2.1417 3.1358-.5779.9016-1.1735 1.8671-1.7808 2.8791-.403.6688-.7886 1.3434-1.1626 2.0295-.1285.2326-.2396.4362-.3274.6396-.0351.0705-.0416.1516-.0183.2263-.0365.0511-.057.1118-.0587.1743-.0072.0768.0087.1539.0457.2212.037.0674.0934.1219.162.1566.0686.0347.1461.048.2227.0381.0765-.0098.1485-.0423.2067-.0934a29.188134 29.188134 0 002.881-2.2799c.3553-.3553.7569-.6644 1.1411-.9792.8498-.6996 1.6881-1.3991 2.5265-2.1334.9665-.8509 1.7992-1.6259 2.5448-2.3715M2.32198 34.2913h-.32176c-.2997.0047-.59374.0816-.85676.224-.263025.1425-.487143.3461-.653029.5935-.139657.3269-.196144.6827-.164496 1.0363.031649.3535.150465.694.346001.9913.200733.378.432524.7389.693014 1.0792.24751.3271.51152.6541.82502 1.0057 1.17102 1.2652 2.51841 2.3581 4.00135 3.2457 1.55266.9218 3.16494 1.7412 4.82638 2.4528 1.2788.5641 2.5906 1.1037 3.8611 1.6351l1.122.4579c.825.3515 1.6501.7031 2.4751 1.071.3217.1472.6352.2861.9405.4415.0653.037.1392.0567.2145.0572h.0743a.372829.372829 0 00.1467-.0582c.0441-.0296.0813-.0683.109-.1135.048-.0873.0654-.1879.0495-.2861a.58624.58624 0 00-.0742-.1635c-.0174-.0353-.0428-.0661-.0743-.09l-1.7325-1.5452c-1.2953-1.1528-2.5906-2.3056-3.8694-3.4747-.8828-.8176-1.7655-1.6352-2.6235-2.4527l-.7426-.7195c-.5032-.4742-.99824-.9566-1.50975-1.4308-.7642-.7148-1.56849-1.3862-2.40906-2.0112-.80118-.5912-1.6675-1.0904-2.58231-1.488A6.28538 6.28538 0 003.18 34.3812a4.64708 4.64708 0 00-.82502-.0899"/></g><defs><filter id="filter0_d_153_87" x="0" y="0" width="307" height="156.863" filterUnits="userSpaceOnUse" color-interpolation-filters="sRGB"><feFlood flood-opacity="0" result="BackgroundImageFix"/><feColorMatrix in="SourceAlpha" values="0 0 0 0 0 0 0 0 0 0 0 0 0 0 0 0 0 0 127 0" result="hardAlpha"/><feOffset dy="3.8625"/><feComposite in2="hardAlpha" operator="out"/><feColorMatrix values="0 0 0 0 1 0 0 0 0 0.966586 0 0 0 0 0.916667 0 0 0 1 0"/><feBlend in2="BackgroundImageFix" result="effect1_dropShadow_153_87"/><feBlend in="SourceGraphic" in2="effect1_dropShadow_153_87" result="shape"/></filter></defs></svg>