<svg width="1440" height="663" viewBox="0 0 1440 663" fill="none" xmlns="http://www.w3.org/2000/svg"><g clip-path="url(#clip0_228_53)"><path fill="#fff" d="M0 0h1440v663H0z"/><path fill="#fff" d="M540 0h360v663H540z"/><path opacity=".89" d="M838.093 185.264c-7.125 38.511 54.82 75.318 75.932 56.6 21.113-18.718-42.899-35.71-31.901-60.532 10.999-24.822 47.265-38.517 59.207-51.329 11.941-12.812-88.519-24.338-103.238 55.261z" fill="#FEF6C7"/><path opacity=".89" d="M598.917 616.04c-4.445-38.912-74.445-56-89.162-31.927-14.717 24.073 51.465 21.607 48.205 48.56-3.261 26.953-33.939 50.653-41.613 66.396-7.673 15.744 91.767-2.605 82.57-83.029z" fill="#DCF0F6"/><circle opacity=".7" cx="843" cy="632" r="12" fill="#FEF7CD"/><circle opacity=".5" cx="648.5" cy="559.5" r="16.5" fill="#B9E1ED" fill-opacity=".7"/><circle opacity=".6" cx="839" cy="60" r="16" fill="#FEF7CD"/><path d="M576.194 87.2557c-12.45-33.537-82.387-61.2522-121.978-76.5119-67.359-25.9621-229.767-46.9151-312.153 0C39.08 69.3876 93.0889 124.366 125.357 136.507c32.268 12.141 69.023-37.4654 100.466-49.2513 53.78-20.1588 94.515 19.2423 108.933 64.8293 20.431 64.6 77.58 98.045 103.898 107.666 26.318 9.621 92.227-9.621 117.172-43.066 24.945-33.446 35.929-87.508 20.368-129.4293z" fill="#DCF0F6"/><path d="M510.682-39.5374c7.735 1.1993 16.046 6.171 19.718 15.6982 3.815 9.8449 1.802 21.37246-.146 32.51961-.229 1.30222-.456 2.59999-.671 3.88429-2.877 17.1346-.849 29.8525 5.864 36.7842 3.877 4.0007 8.844 5.5759 13.647 7.0884 4.803 1.5125 9.416 2.9803 12.917 6.7124 5.47 5.8175 7.352 16.2397 5.558 30.9489-.182 1.5126-.387 3.0341-.587 4.569-1.342 10.1264-2.732 20.5844.565 30.1214 1.213 3.426 2.977 6.516 5.186 9.087 2.208 2.57 4.817 4.567 7.669 5.872 8.093 3.616 16.86 1.191 25.339-1.15 9.306-2.568 18.092-4.998 25.779.09 6.2 4.108 10.478 12.946 11.44 23.641.679 7.545-.197 15.13-1.396 22.572h2.228c.897-5.612 1.593-11.317 1.593-17.081.004-1.933-.08-3.865-.251-5.786-1.04-11.572-5.74-21.18-12.578-25.709-8.388-5.567-18.008-2.913-27.293-.344-8.173 2.237-16.623 4.591-24.113 1.244-2.571-1.178-4.923-2.979-6.914-5.296-1.992-2.318-3.582-5.104-4.676-8.192-3.049-8.802-1.71-18.884-.419-28.6398.204-1.5439.408-3.0788.594-4.6048 1.907-15.6624-.208-26.899-6.291-33.3698-3.891-4.1394-8.931-5.7325-13.803-7.2763-4.777-1.5126-9.289-2.9401-12.786-6.5469-4.223-4.3631-8.544-13.8366-5.127-34.1888.211-1.2798.437-2.5686.663-3.86634 2.024-11.58122 4.118-23.56076 0-34.22906-4.102-10.5699-13.26-16.0204-21.709-17.2555v2.7029z" fill="#fff"/><ellipse cx="696.023" cy="-652.748" rx="765.023" ry="670.252" fill="#EBF2F5"/><path opacity=".8" d="M1008.37 194.906c26.25-17.252 25.81-69.976 6.51-70.892-19.312-.916-5.97 42.088-25.26 49.831-19.294 7.743-41.148-3.899-53.432-3.204-12.284.695 17.94 59.927 72.182 24.265zM1115.61 84.3105c21.88 7.0196 51.71-17.4509 43.36-28.8662-8.35-11.4153-26.71 15.9415-39.98 8.5123-13.27-7.4293-16.68-25.2225-22.72-31.898-6.04-6.6756-25.89 37.7475 19.34 52.2519z" fill="#FEF6C7"/></g><defs><clipPath id="clip0_228_53"><path fill="#fff" d="M0 0h1440v663H0z"/></clipPath></defs></svg>