<svg width="3440" height="1024" viewBox="0 0 3440 1024" fill="none" xmlns="http://www.w3.org/2000/svg"><g clip-path="url(#clip0_228_30)"><path fill="#fff" d="M0 0h3440v1024H0z"/><path fill="#fff" d="M1000 0h1440v1024H1000z"/><path d="M1571.5 1019.5L-65 677v500h1636.5v-157.5zM2165 1019.5L3563 677v500H2165v-157.5z" fill="#DCF0F6"/><ellipse cx="1671.5" cy="687" rx="1777.5" ry="382" fill="#fff"/><g clip-path="url(#clip1_228_30)"><path d="M1327-20.8149s72.79 160.1849 314.86 138.3309C1746.45 108.079 1782-57.2141 1782-57.2141l-366.73 13.6549L1327-20.8149z" fill="#DCF0F7"/><path d="M1727.02-4c-3.99 25.2657-20.5 52.4135-52.16 64.4091-32.71 12.4601-71.01 5.8846-108.05-.4765-4.33-.7505-8.64-1.489-12.91-2.1918-56.93-9.3987-99.19-2.7756-122.22 19.1547-13.29 12.6627-18.52 28.8875-23.55 44.5755-5.03 15.688-9.9 30.757-22.3 42.193-19.33 17.868-53.96 24.015-102.84 18.154-5.02-.596-10.08-1.263-15.18-1.918-33.64-4.384-68.39-8.922-100.08 1.846-11.38 3.963-21.65 9.724-30.19 16.938-8.54 7.215-15.18 15.736-19.51 25.053-12.02 26.433-3.96 55.07 3.82 82.766 8.53 30.399 16.61 59.096-.3 84.207-13.65 20.25-43.02 34.223-78.55 37.368-25.07 2.216-50.273-.643-75-4.562v7.278c18.645 2.93 37.6 5.206 56.75 5.206 6.43.01 12.84-.264 19.23-.822 38.45-3.395 70.37-18.75 85.42-41.085 18.5-27.398 9.68-58.823 1.15-89.151-7.44-26.695-15.26-54.296-4.14-78.763 3.91-8.399 9.9-16.08 17.6-22.584 7.7-6.505 16.95-11.699 27.22-15.273 29.24-9.959 62.74-5.587 95.16-1.37 5.13.667 10.23 1.334 15.3 1.942 52.04 6.23 89.37-.679 110.87-20.549 13.76-12.71 19.05-29.173 24.18-45.087 5.02-15.605 9.77-30.3406 21.75-41.7644 14.5-13.7943 45.98-27.9102 113.6-16.7485 4.25.6909 8.53 1.4295 12.85 2.168 38.48 6.6113 78.28 13.4489 113.73 0C1713.79 53.5119 1731.9 23.6005 1736-4h-8.98z" fill="#fff"/></g><g opacity=".4" clip-path="url(#clip2_228_30)"><path opacity=".89" d="M1117.85 614.139c23.28-137.493-190.829-266.641-262.816-199.233-71.987 67.408 148.596 125.863 111.573 214.694-37.026 88.831-161.264 138.837-201.911 184.893-40.647 46.056 305.064 83.833 353.154-200.354z" fill="#FEF6C7"/></g><ellipse cx="2552.01" cy="737.234" rx="269.897" ry="207.486" fill="#EBF2F5"/><g clip-path="url(#clip3_228_30)"><path d="M3032.13 678.292c-16.68-16.609-43.66-27.829-73.6-19.6-30.97 8.455-55.73 34.076-79.66 58.854-2.8 2.9-5.58 5.783-8.36 8.616-37 37.804-71.86 55.764-100.82 51.944-16.72-2.208-29.41-11.425-41.65-20.357-12.25-8.931-24.05-17.483-39.44-19.263-24.01-2.807-52.97 11.377-85.93 42.191-3.4 3.163-6.77 6.395-10.19 9.643-22.51 21.474-45.74 43.658-75.03 52.814-10.58 3.22-21.31 4.501-31.55 3.766-10.23-.734-19.78-3.47-28.05-8.042-23.26-13.129-32.86-38.762-42.17-63.544-10.21-27.2-19.84-52.886-46-62.384-21.1-7.651-50.42-2.13-78.42 14.774-19.74 11.927-36.83 27.695-52.99 43.993l-3.96-5.406c12.2-12.271 24.99-24.225 39.15-34.594 4.75-3.484 9.64-6.756 14.67-9.798 30.29-18.296 62.25-24.175 85.52-15.732 28.58 10.336 39.14 38.45 49.31 65.597 9.02 23.853 18.24 48.588 39.77 60.739 7.46 4.121 16.06 6.586 25.29 7.248 9.23.663 18.9-.491 28.44-3.392 27.04-8.438 49.45-29.822 71.13-50.504 3.43-3.273 6.84-6.529 10.26-9.726 35.11-32.802 66.48-47.885 93.19-44.767 17.08 1.994 29.95 11.356 42.39 20.399 12.2 8.87 23.72 17.247 38.8 19.243 18.22 2.397 49.18-4.16 93.13-49.063 2.77-2.815 5.54-5.682 8.33-8.565 24.86-25.745 50.59-52.374 84.12-61.576 33.27-9.061 62.92 3.351 80.96 21.629l-6.64 4.863z" fill="#fff"/></g><g opacity=".7"><path opacity=".2" d="M2584.58 567.746l1.28 1.11 6.54 5.81c2.93 2.596 6.77 3.922 10.67 3.687 3.91-.234 7.56-2.01 10.16-4.937l5.23-5.89 1.73-2 15-16.93-15.13-13.36c-.99-.863-2.27-1.304-3.58-1.227-1.31.076-2.54.664-3.42 1.637l-8.43 9.5c-.88.975-2.1 1.565-3.41 1.643-1.31.079-2.6-.36-3.59-1.223l-10.15-9c-.99-.862-2.28-1.301-3.59-1.223-1.31.079-2.53.669-3.41 1.643l-13.48 15.16 17.58 15.6z" fill="#C5DAE1"/><path opacity=".2" d="M1502 784.824c-.1-.767-.26-1.526-.46-2.273-2.42-9.093-10.34-14.882-17.7-12.872-1.39.39-2.7 1.037-3.86 1.91-4.33-7.133-11.79-11.033-18.82-9.093-6.35 1.738-10.65 7.749-11.58 15.054-.99.006-1.97.138-2.92.394-7.36 2.021-11.36 11.033-8.97 20.146.36 1.35.86 2.66 1.48 3.91l62.83-17.176z" fill="#88CFCB"/><path opacity=".2" d="M1973.5 623c-4.45 0-8.8 1.32-12.5 3.792-3.7 2.472-6.58 5.986-8.29 10.098-1.7 4.111-2.15 8.635-1.28 13 .87 4.364 3.01 8.373 6.16 11.52 3.15 3.147 7.16 5.289 11.52 6.158 4.37.868 8.89.422 13-1.281 4.11-1.703 7.63-4.587 10.1-8.287 2.47-3.7 3.79-8.05 3.79-12.5 0-5.967-2.37-11.69-6.59-15.91-4.22-4.219-9.94-6.59-15.91-6.59zm0 35.665c-2.6 0-5.15-.772-7.31-2.219-2.17-1.446-3.86-3.502-4.85-5.908-1-2.406-1.26-5.053-.75-7.606.51-2.554 1.76-4.9 3.6-6.741 1.84-1.841 4.19-3.095 6.74-3.603 2.56-.508 5.2-.247 7.61.749 2.4.997 4.46 2.684 5.91 4.849 1.44 2.165 2.21 4.71 2.21 7.314 0 3.492-1.38 6.84-3.85 9.309-2.47 2.469-5.82 3.856-9.31 3.856zM2104.5 104c-4.45 0-8.8 1.32-12.5 3.792-3.7 2.472-6.58 5.986-8.29 10.098-1.7 4.111-2.15 8.635-1.28 13 .87 4.364 3.01 8.373 6.16 11.52 3.15 3.147 7.16 5.289 11.52 6.158 4.37.868 8.89.422 13-1.281 4.11-1.703 7.63-4.587 10.1-8.287 2.47-3.7 3.79-8.05 3.79-12.5 0-5.967-2.37-11.69-6.59-15.91-4.22-4.219-9.94-6.59-15.91-6.59zm0 35.665c-2.6 0-5.15-.772-7.31-2.219-2.17-1.446-3.86-3.502-4.85-5.908-1-2.406-1.26-5.053-.75-7.606.51-2.554 1.76-4.9 3.6-6.741 1.84-1.841 4.19-3.095 6.74-3.603 2.56-.508 5.2-.247 7.61.749 2.4.997 4.46 2.684 5.91 4.849 1.44 2.165 2.21 4.71 2.21 7.314 0 3.492-1.38 6.84-3.85 9.309-2.47 2.469-5.82 3.856-9.31 3.856z" fill="#61C9CA"/></g></g><defs><clipPath id="clip0_228_30"><path fill="#fff" d="M0 0h3440v1024H0z"/></clipPath><clipPath id="clip1_228_30"><path fill="#fff" transform="translate(1327 -4)" d="M0 0h455v137.996H0z"/></clipPath><clipPath id="clip2_228_30"><path fill="#fff" transform="scale(-1 1) rotate(-75 -85.56149 1147.68982)" d="M0 0h430v419H0z"/></clipPath><clipPath id="clip3_228_30"><path fill="#fff" transform="scale(1 -1) rotate(36.20195 2901.371594 3235.142498)" d="M0 0h704.294v405.052H0z"/></clipPath></defs></svg>