<svg width="3440" height="860" viewBox="0 0 3440 860" fill="none" xmlns="http://www.w3.org/2000/svg"><g clip-path="url(#clip0_156_21856)"><path fill="#fff" d="M0 0h3440v860H0z"/><mask id="a" style="mask-type:alpha" maskUnits="userSpaceOnUse" x="0" y="0" width="3440" height="860"><path fill="#fff" d="M0 0h3440v860H0z"/></mask><g mask="url(#a)" fill="#DCF0F6"><ellipse cx="1720" cy="439" rx="1759" ry="421"/><path d="M2028 149.24v-290.229L3456-155v634L2028 149.24z"/></g><path d="M1447 282V-8L-98-22v517l1545-213z" fill="#DCF0F6"/><ellipse cx="1671.5" cy="-337" rx="1777.5" ry="382" fill="#fff"/><path d="M1105.5 1035.5c-27.2-73.2-180-133.693-266.5-167-147.167-56.667-502-102.4-682 0-225 128-107 248-36.5 274.5s150.803-81.78 219.5-107.5c117.5-44 206.5 42 238 141.5 44.638 141 169.5 214 227 235s201.5-21 256-94 78.5-191 44.5-282.5z" fill="#DCF0F6"/><path d="M914.203 302.831c18.658 77.043 27.993 115.53 51.965 131.877 33.773 22.992 85.952 17.269 120.102-6.156 58.09-39.789 61.4-128.988 35.43-178.286-2.47-4.694-24.94-28.621-69.72-76.522-16.05-17.173-25-26.408-40.41-34.657-10.2-5.489-46.743-25.046-74.566-10.732-33.127 17.06-33.944 72.013-34.339 99.851-.169 9.512.221 28.006 11.538 74.625zM2288.53 709.469c-13.97-33.662 11.8-64.264-14.62-116.511-9.7-19.173-15.62-19.89-21.83-36.924-13.1-35.905-5.17-83.052 18.35-105.458 48.46-46.152 176.48-.149 253.1 55.17 16.85 12.173 143.66 103.751 117.22 186.196-19.53 60.903-109.97 77.233-133.91 81.563-84.04 15.17-195.61-9.385-218.31-64.036z" fill="#B9E1ED"/><circle cx="2178.92" cy="268" r="20" fill="#B9E1ED" fill-opacity=".5"/><circle cx="2242.42" cy="203.5" r="27.5" fill="#B9E1ED" fill-opacity=".7"/><circle cx="2296.42" cy="121.5" r="37.5" fill="#B9E1ED" fill-opacity=".9"/><path opacity=".8" d="M2397.92 434.859c-43.19-17.185-131.05-26.629-137 73.078 0 20.022 8.18 52.848 24.43 74.58 22.83 30.533 5.84 57.061-5.31 79.085-15.72 31.033-10.41 58.963 5.31 80.586 19.64 27.029 66.9 38.542 112.57 32.035M947.186 121.393c23.435-8.841 90.784 2.002 172.704 116.105 27.51 40.145 37.7 132.219-58.08 188.67-19.53 11.344-69.792 23.521-114.624-18.517l-14.265-11.51" stroke="#fff" stroke-width="3"/><path d="M1891.46 787.808c-91.44 35.322-174.47 20.16-256.58 8.902-43.35-5.932-87.55-7.171-132.91-6.725-46.29.446-91.81-.362-133.84-11.813-143.02-39.002-215.62-217.291-133.88-382.127 23.62-58.953 108.76-153.792 200.71-168.764 184.07-29.945 277.34-54.831 415.92-37.352 134.69 25.371 348.92 123.879 302.47 355.844-17.22 86.028-185.09 212.379-261.89 242.035z" fill="#fff" fill-opacity=".8"/><path opacity=".8" d="M1191.25 553.535c-33.98-153.053 78-228.067 117.94-260.76 41.03-28.588 81.4-50.993 133.5-67.121 38.98-12.07 106.8-22.971 138.45-30.176 129.95-29.584 237.61-19.516 277.25-8.479 89.95 16.189 197.4 85.234 239.87 117.733 55.57 40.839 74.13 107.462 76.46 135.669 34.78 137.232-113.44 258-191.89 301.231-84.96 59.786-175.41 77.262-221.88 68.064-37.18-7.359-115.44-10.118-149.92-10.578-58.77 2.576-123.44-1.073-148.42-3.219-197.5-23.915-263.19-171.54-271.36-242.364z" stroke="#A8CDD5" stroke-width="3"/></g><defs><clipPath id="clip0_156_21856"><path fill="#fff" d="M0 0h3440v860H0z"/></clipPath></defs></svg>