<svg width="1440" height="1171" viewBox="0 0 1440 1171" fill="none" xmlns="http://www.w3.org/2000/svg"><g clip-path="url(#clip0_228_50)"><path fill="#DCF0F6" d="M0 0h1440v1171H0z"/><path d="M652.828 1129.65L-50.7627 528.706V1406H652.828v-276.35zM908.156 1129.65L1510 528.706V1406H908.156v-276.35z" fill="#fff"/><ellipse cx="696.023" cy="546.252" rx="765.023" ry="670.252" fill="#DCF0F6"/><path fill="#DCF0F6" d="M900 0v1171H540V0z"/><path d="M801.032-226.475c29.992 22.738 13.436 56.146 65.376 89.872 19.061 12.377 26.099 11.002 40.298 22.792 29.932 24.8528 40.614 65.8049 23.202 91.8027-35.871 53.5512-200.878 58.521-311.254 38.907-24.28-4.3186-206.96-36.8009-211.335-112.5694-3.232-55.9713 92.911-99.1743 118.366-110.6183 89.343-40.141 226.646-57.1 275.347-20.186z" fill="#fff"/><path d="M862.396 914.527c-61.551 31.304-117.434 17.829-172.692 7.818-29.177-5.276-58.927-6.388-89.457-6.007-31.155.382-61.789-.349-90.082-10.519-96.255-34.642-145.104-192.815-90.076-339.008 15.904-52.287 73.21-136.389 135.102-149.642 123.887-26.505 186.663-48.552 279.932-33.004 90.651 22.546 234.837 109.994 203.557 315.744-11.6 76.307-124.598 188.335-176.284 214.618z" fill="#fff" fill-opacity=".8"/><path opacity=".8" d="M389.264 709.202c-22.882-135.486 52.52-201.89 79.414-230.83 27.629-25.307 54.816-45.14 89.893-59.417 26.252-10.685 71.916-20.334 93.228-26.712 87.506-26.189 159.999-17.277 186.694-7.506 60.571 14.33 132.918 75.45 161.517 104.219 37.42 36.152 49.92 95.128 51.49 120.097 23.42 121.481-76.387 228.387-129.218 266.656-57.205 52.924-118.112 68.394-149.406 60.251-25.036-6.513-77.732-8.956-100.951-9.363-39.572 2.28-83.115-.95-99.941-2.85-132.985-21.169-177.224-151.851-182.72-214.545z" stroke="#A8CDD5" stroke-width="3"/><path stroke="#000" stroke-width="4.18605" d="M1609.12-2572.33v4526.79h-3589.53v-4526.79z"/><path d="M846.588 1064.16c-.981-15.45 13.595-24.14 10.172-48.77-1.257-9.04-3.536-10.15-3.687-17.845-.319-16.222 9.365-34.035 21.904-39.76 25.831-11.791 70.944 24.429 94.116 57.255 5.096 7.22 43.437 61.56 21.46 90.96-16.239 21.73-54.833 15.73-65.053 14.14-35.863-5.57-77.318-30.91-78.912-55.98z" fill="#B9E1ED"/><path opacity=".8" d="M950.982 976.368c-22.372-15.396-71.402-36.506-88.55 2.227-2.759 8.013-2.6 22.765 3.715 34.665 8.872 16.73-4.518 23.99-13.941 30.61-13.278 9.32-14.088 21.54-8.064 33.3 7.53 14.69 33.015 28.62 60.071 35.02" stroke="#fff" stroke-width="3"/><path d="M488.169 200.635c8.393 34.003 12.592 50.988 23.259 58.213 15.026 10.161 38.186 7.661 53.313-2.658 25.73-17.528 27.074-56.883 15.473-78.648-1.101-2.072-11.11-12.64-31.062-33.797-7.149-7.585-11.138-11.664-17.99-15.311-4.536-2.427-20.787-11.074-33.119-4.772-14.683 7.512-14.967 31.758-15.103 44.041-.062 4.197.138 12.357 5.229 32.932z" fill="#B9E1ED"/><path opacity=".8" d="M502.371 122.061c10.466-3.92 40.545.888 77.131 51.481 12.286 17.8 16.836 58.625-25.938 83.655-8.722 5.03-31.171 10.429-51.193-8.21L496 243.883" stroke="#fff" stroke-width="3"/><ellipse cx="696.023" cy="-635.748" rx="765.023" ry="670.252" fill="#fff"/></g><defs><clipPath id="clip0_228_50"><path fill="#fff" d="M0 0h1440v1171H0z"/></clipPath></defs></svg>